<?xml version="1.0" encoding="utf-8"?>
<!-- Generator: Adobe Illustrator 27.0.1, SVG Export Plug-In . SVG Version: 6.00 Build 0)  -->
<svg version="1.1" id="Laag_1" xmlns="http://www.w3.org/2000/svg" xmlns:xlink="http://www.w3.org/1999/xlink" x="0px" y="0px"
	 viewBox="0 0 393 395" style="enable-background:new 0 0 393 395;" xml:space="preserve">
<style type="text/css">
	.st0{fill:#501F1D;}
</style>
<path class="st0" d="M100.5,395.9h285.6c0-6.9-12.6-13.2-33.6-18.1c0.3-1.9,0.5-3.9,0.8-5.6c1.5-10.3,3.1-20.7,6.9-30.6
	c6.1-16.5-18.4-34.9-14.6-97.7c0-0.4,0-1.1,0-1.5l0.4-5.7c0.4-6.5,0.4-13.8,0-20.7c0.8,0.8,1.1,1.9,1.9,2.7c1.5,2.3,3.4,4.2,4.2,6.9
	c1.5,3.4,1.5,7.3,1.5,10.7c3.8-5,6.1-11.5,5.4-18.4c-0.8-8-5-15.3-9.6-21.8c-2.3-3.4-5-6.5-7.3-10c0,0,3.3,0.4-2.3-6.5
	c-2.7-7.7-6.5-14.6-11.1-20.7c-7.3-8.8-17.6-15.3-28.3-14.6c-4.2,0.4-7.7,1.5-11.5,3.1c-0.4-5.7-1.5-11.9-2.7-17.6
	c-3.4-19.5-8.4-39.8-19.9-55.2c-1.9-11.5-8.4-22.2-14.6-32.6c-5.7-9.2-11.1-19.2-19.5-26c-0.8-0.8-1.5-1.5-1.9-2.3
	c-0.4-1.1,0-2.3,0-3.4c0-2.7-2.3-4.6-4.6-5.4c-2.3-0.8-5-0.4-7.7,0.4c-4.2,0.8-8.8,1.1-13,2.3c-3.4,1.1-7.3,1.9-10.3,3.8
	c-0.4,0.4-0.8,0.8-1.5,1.1c-1.5,1.5-3.1,3.4-3.8,5.7c-0.4,1.1-0.8,2.3-0.4,3.4c0.4,2.7,3.1,4.6,5.4,4.2c0,2.7,0.8,8,1.1,8
	c0,0,0.4,0,0.8,0c0,3.4,0.4,6.9,1.5,10.3c0.4,1.1,0.8,1.9,1.5,2.7s1.9,1.1,2.7,0.8c0.4,0,0.4-0.4,0.8,0c0.4,0,0.4,0.4,0.8,0.8
	c1.1,2.3,1.5,4.6,2.3,6.9c1.1,2.3,3.1,4.6,5.4,4.2c1.9,0,3.8-1.5,5.7-1.1c1.9,0.4,2.7,2.3,3.1,4.2c2.3,10-0.4,20.7-2.3,30.3
	s-5,19.5-9.6,28c-1.5,2.7-3.1,5-4.6,7.3c-2.3-2.3-4.6-5-6.9-6.9c-3.8-3.4-8-7.3-12.6-6.9c-10,0.4-12.3,14.9-14.6,25.3
	c-2.3,13-9.6,25.3-20.7,31.4c-29.5,16.1-62.8-29.9-66.3-57.8c-0.8-6.5-0.4-13.4-1.5-19.9c-1.1-6.5-4.6-13.4-10.7-15.7
	c-6.9-2.7-14.2,0.8-20.7,4.6c-7.5,10.7-18.4,8-30.6,8.4C14,91,2.1,88.4,2.5,97.2c0.8,11.9,8.4,11.9,21.8,14.6
	c15.7,3.1,25.3,11.1,33.7,26.8c1.5,2.7,3.4,5.7,5.4,8.8c8,39.4,24.1,80,60.5,96.1c7.3,21.8,10.7,47.1,10,67
	c-0.4,18,2.7,32.9,14.6,46.3c3.4,3.8,7.3,7.7,11.5,11.5c0,1.5,0,3.1,0,4.8C123.9,378.2,100.5,386.5,100.5,395.9z M70.7,160
	c2.7,4.2,5,8.8,6.5,13c7.7,20.3,24.1,28.3,34.9,46c3.1,5,5.7,10.7,8.4,17.2C92.1,220.5,79.5,191,70.7,160z M328.8,304.4
	c6.5,9.6,9.2,20.3,14.2,30.6c0.4,1.1,1.1,2.3,1.5,3.8c0.4,1.9,0.4,3.4,0,5.4c-1,10.3-2.2,20.8-3.7,31.2c-7.9-1.5-16.7-2.7-26.2-3.8
	l10.4-36.1l-13.8-52.9C317.3,289.4,323.4,296.3,328.8,304.4z M223.5,118.2c0,8.8-3.4,17.2-6.9,25.7c-2.3-2.3-4.6-5-6.9-7.7
	C215,131.3,219.6,125.1,223.5,118.2z M159.5,349.6c-1.1-1.5-1.9-3.1-2.3-4.6c-1.9-6.9,0.4-11.1,1.5-16.5c1.1-5.7,2.7-11.1,3.8-16.9
	c0,2.3-0.4,4.2-0.8,6.1C160.7,328.5,159.9,338.8,159.5,349.6z M173.3,361.8c-0.4-0.4-0.8-0.8-1.1-1.1c1.9-15.3,5.7-30.3,11.1-44.8
	c2.3-6.5,10.7-17.2,9.6-24.9c23-1.5,46.7,0,67-11.5c2.7-1.5,5.4-3.4,8-5c10.7,26.4,37.5,52.1,39.1,58.6c1.1,4.7-3.7,24.9-7.2,37
	c-17.3-1.5-36.4-2.3-56.4-2.3c-22.5,0-43.9,1-62.8,2.9C178.4,367.7,176.3,365,173.3,361.8z"/>
</svg>
