<?xml version="1.0" encoding="utf-8"?>
<!-- Generator: Adobe Illustrator 27.0.1, SVG Export Plug-In . SVG Version: 6.00 Build 0)  -->
<svg version="1.1" id="Laag_1" xmlns="http://www.w3.org/2000/svg" xmlns:xlink="http://www.w3.org/1999/xlink" x="0px" y="0px"
	 viewBox="0 0 1399.2 1181.7" style="enable-background:new 0 0 1399.2 1181.7;" xml:space="preserve">
<style type="text/css">
	.st0{fill:#FFF5E0;}
	
		.st1{clip-path:url(#SVGID_00000018233578058493665820000012748698694828771481_);fill:url(#SVGID_00000088128651544227211230000016472013492557697943_);}
	.st2{opacity:0.25;clip-path:url(#SVGID_00000145743970217142833410000012678781656854491785_);}
	.st3{fill:#FAB752;}
	.st4{opacity:7.000000e-02;clip-path:url(#SVGID_00000018198776371893336690000016118784008835667381_);}
	.st5{opacity:0.15;clip-path:url(#SVGID_00000091694059654756171040000017203260445139082907_);}
	.st6{clip-path:url(#SVGID_00000023997643216536397090000010111212331142136992_);}
	.st7{opacity:0.11;fill:#FFF298;enable-background:new    ;}
	.st8{opacity:0.15;fill:#FFF298;enable-background:new    ;}
	.st9{fill:url(#SVGID_00000129183194420647302520000005011451365846851234_);}
	.st10{clip-path:url(#SVGID_00000006707090961691861030000005761111499990130089_);}
	.st11{fill:url(#SVGID_00000098196476530580029110000008009048107514651302_);}
	.st12{clip-path:url(#SVGID_00000069379375581808754680000011894515340263485115_);}
	.st13{fill:url(#SVGID_00000054251919258263967760000006593104052136939658_);}
	.st14{opacity:0.55;clip-path:url(#SVGID_00000155828367731444196490000010995833797870707846_);}
	.st15{fill:url(#SVGID_00000090287877398966180460000009787082262695444654_);}
	.st16{opacity:0.55;clip-path:url(#SVGID_00000029736552891516023540000000500446793474104498_);}
	.st17{fill:#F9B24D;}
	.st18{opacity:0.15;clip-path:url(#SVGID_00000175324350758878889370000003039730349520592823_);}
	.st19{fill:#E7751D;}
	.st20{clip-path:url(#SVGID_00000054961028638624747940000007370713396230618803_);}
	.st21{clip-path:url(#SVGID_00000094603865771967907540000007588751814399888778_);}
	.st22{fill:url(#SVGID_00000049219543587240987500000005727473011819083945_);}
	.st23{clip-path:url(#SVGID_00000052097480741085817840000000125903155722405799_);}
	.st24{fill:url(#SVGID_00000041259276804058529360000012903636936239646614_);}
	.st25{clip-path:url(#SVGID_00000117656073349930673990000006888568462636113084_);}
	.st26{fill:url(#SVGID_00000027583098493974819850000013029023902920905115_);}
	.st27{fill:#82492B;}
	.st28{clip-path:url(#SVGID_00000063594208534806860840000007912291577145353863_);}
	.st29{fill:url(#SVGID_00000065783645795239136630000017201258200927615153_);}
	.st30{fill:url(#SVGID_00000044891421589753235130000017273521050073179781_);}
	
		.st31{opacity:0.15;clip-path:url(#SVGID_00000142149821461949068910000011438333542020629694_);fill:url(#SVGID_00000181769570240336071130000007043251092523700377_);enable-background:new    ;}
	.st32{clip-path:url(#SVGID_00000001663531832254971310000008127867463656334979_);}
	.st33{clip-path:url(#SVGID_00000099619705203458202430000011591696687551183278_);}
	.st34{fill:url(#SVGID_00000104690699713115471260000018263651414899665796_);}
	.st35{clip-path:url(#SVGID_00000005949449117122905970000003014905523229153424_);}
	.st36{fill:url(#SVGID_00000085946801267932768770000006325002725733724545_);}
	.st37{clip-path:url(#SVGID_00000013160135255203524980000003450908610831698623_);}
	.st38{fill:url(#SVGID_00000115513936796717042920000002379097636225563837_);}
	.st39{fill:url(#SVGID_00000101092468515687940610000012441444583216347314_);}
	
		.st40{opacity:5.000000e-02;clip-path:url(#SVGID_00000103963823789273127830000002925476774616674982_);fill:url(#SVGID_00000056396477038148598960000016287277146513543344_);enable-background:new    ;}
	.st41{opacity:0.25;clip-path:url(#SVGID_00000026149259060221110160000004122392744765257363_);}
	.st42{fill:url(#SVGID_00000070110946048991027200000003240247911867377549_);}
	
		.st43{opacity:0.25;clip-path:url(#SVGID_00000074427380159945865080000017350649547338881706_);fill:url(#SVGID_00000180347981683645597920000013491961028115495843_);enable-background:new    ;}
	.st44{clip-path:url(#SVGID_00000088131370252884986110000000687930341840808381_);}
	.st45{fill:#501F1D;}
	.st46{clip-path:url(#SVGID_00000122679938057842218800000009060968248869107334_);}
	.st47{fill:url(#SVGID_00000166650667528346602520000015937989129828579740_);}
	.st48{fill:url(#SVGID_00000086675241071696093550000000454825889445101238_);}
	
		.st49{clip-path:url(#SVGID_00000128482199993532890810000009735304937447778183_);fill:url(#SVGID_00000067237836422636323340000018337341918402860710_);}
	.st50{clip-path:url(#SVGID_00000172401823861454005120000003882737426629774989_);}
	.st51{fill:url(#SVGID_00000085933363662333168750000012010906071499837886_);}
	.st52{clip-path:url(#SVGID_00000091731101269345460980000011221931536137816744_);fill:#501F1D;}
	.st53{clip-path:url(#SVGID_00000141453017059536524460000017830077305562353583_);}
	.st54{clip-path:url(#SVGID_00000083085687855076296000000003877875380499039105_);}
</style>
<g>
	<g>
		<g>
			<path class="st0" d="M1400.4,1119.9V0H851.6C693.4,76.4,656.5,278.4,604.8,430.1c-23,67.5-44.5,137.5-85.5,196.6
				C473.6,692.5,403.2,736.1,332.1,770c-81.8,38.9-149.6,61.8-237.4,83.8c-20.8,5.2-42.1,10.6-60.3,22.1S1.4,906.4,0.5,928
				c-1.6,40.5,42.5,66.2,81.1,77.9c116.8,35.6,224.9,34.1,333.6,90c14.2,7.3,28,15.3,41.4,24c56.2,36.3,68.6,51.4,151.2,58.3
				s792.5,0,792.5,0v-58.3H1400.4z"/>
		</g>
		<g>
			<g>
				<g>
					<defs>
						<path id="SVGID_1_" d="M1400.5,1120H599.9c-33.5-23.7-112.9-40.2-170.3-50c-59.6-10.2-118.5-24.2-175.9-43.5
							c-132.8-44.4-153.1-96.9-145.1-130.1c10.6-43.7,73.8-57.2,114.7-70.1c89.5-28.3,161.2-54.2,228-104.6
							c134.2-101.2,173.8-220,292.9-472.8C786.6,159,875,29.4,990,0h410.5V1120L1400.5,1120z"/>
					</defs>
					<clipPath id="SVGID_00000005244712983443154250000006764230467707199121_">
						<use xlink:href="#SVGID_1_"  style="overflow:visible;"/>
					</clipPath>
					
						<linearGradient id="SVGID_00000176757787274789526620000000410255569728008834_" gradientUnits="userSpaceOnUse" x1="571.1434" y1="-1385.2" x2="571.1434" y2="-2530.7" gradientTransform="matrix(1 0 0 1 0 2382)">
						<stop  offset="0.2041" style="stop-color:#F9F095"/>
						<stop  offset="0.3188" style="stop-color:#F9EE92"/>
						<stop  offset="0.4439" style="stop-color:#F9E58B"/>
						<stop  offset="0.5738" style="stop-color:#F8D77E"/>
						<stop  offset="0.7071" style="stop-color:#F6C26C"/>
						<stop  offset="0.843" style="stop-color:#F3A456"/>
						<stop  offset="0.9792" style="stop-color:#EF7C3E"/>
						<stop  offset="1" style="stop-color:#EE753B"/>
					</linearGradient>
					
						<rect x="-461.1" y="-148.7" style="clip-path:url(#SVGID_00000005244712983443154250000006764230467707199121_);fill:url(#SVGID_00000176757787274789526620000000410255569728008834_);" width="2064.4" height="1145.5"/>
				</g>
			</g>
			<g>
				<g>
					<defs>
						<path id="SVGID_00000045604940282736415410000013619045035476159907_" d="M1400.5,1120H599.9c-33.5-23.7-112.9-40.2-170.3-50
							c-59.6-10.2-118.5-24.2-175.9-43.5c-132.8-44.4-153.1-96.9-145.1-130.1c10.6-43.7,73.8-57.2,114.7-70.1
							c89.5-28.3,161.2-54.2,228-104.6c134.2-101.2,173.8-220,292.9-472.8C786.6,159,875,29.4,990,0h410.5V1120L1400.5,1120z"/>
					</defs>
					<clipPath id="SVGID_00000083052395761350995790000013339440920893097106_">
						<use xlink:href="#SVGID_00000045604940282736415410000013619045035476159907_"  style="overflow:visible;"/>
					</clipPath>
					<g style="opacity:0.25;clip-path:url(#SVGID_00000083052395761350995790000013339440920893097106_);">
						<path class="st3" d="M537.7,571.3c335.1,7.1,670.8,5.4,1005.5-5.2c-292.5-15-586.6-17.4-880.5-19.7
							c-78.1-0.6-156.2-1.3-234.2-1.9"/>
					</g>
				</g>
			</g>
			<g>
				<g>
					<defs>
						<path id="SVGID_00000145759686094607410580000001570551728972305070_" d="M1400.5,1120H599.9c-33.5-23.7-112.9-40.2-170.3-50
							c-59.6-10.2-118.5-24.2-175.9-43.5c-132.8-44.4-153.1-96.9-145.1-130.1c10.6-43.7,73.8-57.2,114.7-70.1
							c89.5-28.3,161.2-54.2,228-104.6c134.2-101.2,173.8-220,292.9-472.8C786.6,159,875,29.4,990,0h410.5V1120L1400.5,1120z"/>
					</defs>
					<clipPath id="SVGID_00000170261774053152003390000013271359617949807275_">
						<use xlink:href="#SVGID_00000145759686094607410580000001570551728972305070_"  style="overflow:visible;"/>
					</clipPath>
					<g style="opacity:7.000000e-02;clip-path:url(#SVGID_00000170261774053152003390000013271359617949807275_);">
						<path class="st3" d="M473.8,420.6c258.7,4.8,517.9,3.6,776.3-3.5c-225.8-10-452.9-11.6-679.8-13.2
							c-60.3-0.4-120.6-0.8-180.8-1.3"/>
					</g>
				</g>
			</g>
			<g>
				<g>
					<defs>
						<path id="SVGID_00000088817743335519075310000004402075679105147787_" d="M1400.5,1120H599.9c-33.5-23.7-112.9-40.2-170.3-50
							c-59.6-10.2-118.5-24.2-175.9-43.5c-132.8-44.4-153.1-96.9-145.1-130.1c10.6-43.7,73.8-57.2,114.7-70.1
							c89.5-28.3,161.2-54.2,228-104.6c134.2-101.2,173.8-220,292.9-472.8C786.6,159,875,29.4,990,0h410.5V1120L1400.5,1120z"/>
					</defs>
					<clipPath id="SVGID_00000060732064403553858110000000494477461315637660_">
						<use xlink:href="#SVGID_00000088817743335519075310000004402075679105147787_"  style="overflow:visible;"/>
					</clipPath>
					<g style="opacity:0.15;clip-path:url(#SVGID_00000060732064403553858110000000494477461315637660_);">
						<path class="st3" d="M1718.9,492.4c-335.1-7.1-670.8-5.4-1005.5,5.2c292.5,15,586.6,17.4,880.5,19.7
							c78.1,0.6,156.2,1.3,234.2,1.9"/>
					</g>
				</g>
			</g>
			<g>
				<g>
					<defs>
						<path id="SVGID_00000016785451735112867510000011066461544842346894_" d="M1400.5,1120H599.9c-33.5-23.7-112.9-40.2-170.3-50
							c-59.6-10.2-118.5-24.2-175.9-43.5c-132.8-44.4-153.1-96.9-145.1-130.1c10.6-43.7,73.8-57.2,114.7-70.1
							c89.5-28.3,161.2-54.2,228-104.6c134.2-101.2,173.8-220,292.9-472.8C786.6,159,875,29.4,990,0h410.5V1120L1400.5,1120z"/>
					</defs>
					<clipPath id="SVGID_00000087404179200301467910000000108924668260065944_">
						<use xlink:href="#SVGID_00000016785451735112867510000011066461544842346894_"  style="overflow:visible;"/>
					</clipPath>
					<g style="clip-path:url(#SVGID_00000087404179200301467910000000108924668260065944_);">
						<ellipse class="st7" cx="1193.8" cy="249.2" rx="230.1" ry="231"/>
						<ellipse class="st7" cx="1193.8" cy="249.2" rx="166.1" ry="166.8"/>
						<ellipse class="st8" cx="1193.8" cy="249.2" rx="121.8" ry="122.4"/>
						
							<linearGradient id="SVGID_00000035518805976751832520000005808561341010778037_" gradientUnits="userSpaceOnUse" x1="1193.8434" y1="-2040.4" x2="1193.8434" y2="-2225.2" gradientTransform="matrix(1 0 0 1 0 2382)">
							<stop  offset="0" style="stop-color:#F1F0AF;stop-opacity:0.3"/>
							<stop  offset="1" style="stop-color:#F2F0AF"/>
						</linearGradient>
						
							<ellipse style="fill:url(#SVGID_00000035518805976751832520000005808561341010778037_);" cx="1193.8" cy="249.2" rx="92" ry="92.4"/>
					</g>
				</g>
			</g>
			<g>
				<g>
					<defs>
						<path id="SVGID_00000101097923710729328710000011742118432767314056_" d="M1400.5,1120H599.9c-33.5-23.7-112.9-40.2-170.3-50
							c-59.6-10.2-118.5-24.2-175.9-43.5c-132.8-44.4-153.1-96.9-145.1-130.1c10.6-43.7,73.8-57.2,114.7-70.1
							c89.5-28.3,161.2-54.2,228-104.6c134.2-101.2,173.8-220,292.9-472.8C786.6,159,875,29.4,990,0h410.5V1120L1400.5,1120z"/>
					</defs>
					<clipPath id="SVGID_00000176031885676937865780000002284374363192313755_">
						<use xlink:href="#SVGID_00000101097923710729328710000011742118432767314056_"  style="overflow:visible;"/>
					</clipPath>
					<g style="clip-path:url(#SVGID_00000176031885676937865780000002284374363192313755_);">
						
							<linearGradient id="SVGID_00000116930506677425880080000005659111535960209297_" gradientUnits="userSpaceOnUse" x1="803.8934" y1="-2067.8247" x2="803.8934" y2="-2126.2935" gradientTransform="matrix(1 0 0 1 0 2382)">
							<stop  offset="0" style="stop-color:#F8F1A2;stop-opacity:0.4"/>
							<stop  offset="0.4049" style="stop-color:#FAF1A8;stop-opacity:0.6429"/>
							<stop  offset="0.9745" style="stop-color:#FFF0B6;stop-opacity:0.9847"/>
							<stop  offset="1" style="stop-color:#FFF0B7"/>
						</linearGradient>
						<path style="fill:url(#SVGID_00000116930506677425880080000005659111535960209297_);" d="M932.8,302
							c-20.3,0.7-40.9-5.4-57.6-17c-17.9-12.5-36.9-32.2-57.3-24.8c-7,2.6-12.6,8.2-19.6,11.1c-22.9,9.7-46.5-12.6-71.2-15.4
							c-6.2-0.7-13.6,0.6-16.4,6.1c-4.3,8.3,2.1,27.4-12.9,28.1c-3.7,0.2-7.2-1.5-10.7-2.5s-7.8-1.3-10.5,1.3
							c-1.9,1.8-2.5,4.4-3.7,6.7c-2.6,5.4-7.8,9.1-13.4,11.3c-5.6,2.1-15.4,6.3-21.3,7c95.3-1.5,236,1.5,331.3,0
							C959.6,305.8,945.4,301.6,932.8,302z"/>
					</g>
				</g>
			</g>
			<g>
				<g>
					<defs>
						<path id="SVGID_00000152946540464302409980000003603611403721256105_" d="M1400.5,1120H599.9c-33.5-23.7-112.9-40.2-170.3-50
							c-59.6-10.2-118.5-24.2-175.9-43.5c-132.8-44.4-153.1-96.9-145.1-130.1c10.6-43.7,73.8-57.2,114.7-70.1
							c89.5-28.3,161.2-54.2,228-104.6c134.2-101.2,173.8-220,292.9-472.8C786.6,159,875,29.4,990,0h410.5V1120L1400.5,1120z"/>
					</defs>
					<clipPath id="SVGID_00000168815279867725820690000010461768429850399674_">
						<use xlink:href="#SVGID_00000152946540464302409980000003603611403721256105_"  style="overflow:visible;"/>
					</clipPath>
					<g style="clip-path:url(#SVGID_00000168815279867725820690000010461768429850399674_);">
						
							<linearGradient id="SVGID_00000000213325367716108010000000112791007813810864_" gradientUnits="userSpaceOnUse" x1="1218.8785" y1="-1936.1" x2="1218.8785" y2="-2114.3499" gradientTransform="matrix(1 0 0 1 0 2382)">
							<stop  offset="0" style="stop-color:#F8F1A2;stop-opacity:0.4"/>
							<stop  offset="0.4049" style="stop-color:#FAF1A8;stop-opacity:0.6429"/>
							<stop  offset="0.9745" style="stop-color:#FFF0B6;stop-opacity:0.9847"/>
							<stop  offset="1" style="stop-color:#FFF0B7"/>
						</linearGradient>
						<path style="fill:url(#SVGID_00000000213325367716108010000000112791007813810864_);" d="M1543.6,366.5
							c-0.9-12.3-3.2-24.6-7.7-36.1c-16-40.7-63.2-71.5-107-60.5c-27.1,6.8-50.9,25.8-63.6,50.7c-7.4,14.5-12.9,32.5-28,38.4
							c-27.4,10.7-51.6-29-81-27.2c-19.1,1.2-32.1,19.1-44,34.1c-11.9,15.1-29,27.3-46.9,20.5c-5.6-2.1-10.1-6.1-15.4-8.9
							c-17.1-9.3-46.1-7.3-62.1,3.9c-16.2,11.4-26.2,42.1-43,48.1c-18.3,6.5-44.3-2.8-60.4-2.6c-35.1,0.4-60.6,4.1-90.9,19
							c0,0,514.8,0,556.1,0c60.4,0,80.8-21,91-46.8C1544.6,388.8,1544.4,377.4,1543.6,366.5z"/>
					</g>
				</g>
			</g>
			<g>
				<g>
					<defs>
						<path id="SVGID_00000038382489305251890610000016705301692460460466_" d="M1400.5,1120H599.9c-33.5-23.7-112.9-40.2-170.3-50
							c-59.6-10.2-118.5-24.2-175.9-43.5c-132.8-44.4-153.1-96.9-145.1-130.1c10.6-43.7,73.8-57.2,114.7-70.1
							c89.5-28.3,161.2-54.2,228-104.6c134.2-101.2,173.8-220,292.9-472.8C786.6,159,875,29.4,990,0h410.5V1120L1400.5,1120z"/>
					</defs>
					<clipPath id="SVGID_00000044888266093717376350000008294903733182573192_">
						<use xlink:href="#SVGID_00000038382489305251890610000016705301692460460466_"  style="overflow:visible;"/>
					</clipPath>
					<g style="opacity:0.55;clip-path:url(#SVGID_00000044888266093717376350000008294903733182573192_);">
						
							<linearGradient id="SVGID_00000098199708276986102600000012583087368767912106_" gradientUnits="userSpaceOnUse" x1="6053.8149" y1="-2146.791" x2="6053.8149" y2="-2229.7339" gradientTransform="matrix(-1 0 0 1 7035.1758 2382)">
							<stop  offset="0" style="stop-color:#F8F1A2;stop-opacity:0.4"/>
							<stop  offset="0.4049" style="stop-color:#FAF1A8;stop-opacity:0.6429"/>
							<stop  offset="0.9745" style="stop-color:#FFF0B6;stop-opacity:0.9847"/>
							<stop  offset="1" style="stop-color:#FFF0B7"/>
						</linearGradient>
						<path style="fill:url(#SVGID_00000098199708276986102600000012583087368767912106_);" d="M885.5,202.8
							c5.4-2.5,10.4-5.5,13.3-11.7c3.5-7.5,2.3-16.7,6.3-24c2.6-4.8,7.2-8.2,12-10.6c6.7-3.3,14.4-5,21.8-3.9
							c7.4,1,14.5,4.7,19.1,10.7c9,11.9,7,30.7,18.6,40.1c1.9,1.5,4.1,2.7,6.5,2.8c4.4,0.2,8-3,11.7-5.2c11-6.5,26.4-4.2,35,5.2
							c5.6,6.1,8.4,14.5,15.1,19.4c8.4,6.1,15.5,1.3,24.4,1.8c9.1,0.4,17.7,2.5,25.6,7c0,0-164.7,0-177.9,0
							c-10.3,0-22.2,1.6-32.4,0.3c-9.1-1.2-17.7-3.3-16.8-14.8c0.4-4.7,3.1-9.2,7.1-11.7C878.4,206,882,204.5,885.5,202.8z"/>
					</g>
				</g>
			</g>
			<g>
				<g>
					<defs>
						<path id="SVGID_00000165940511237069790590000011214922265564758714_" d="M1400.5,1120H599.9c-33.5-23.7-112.9-40.2-170.3-50
							c-59.6-10.2-118.5-24.2-175.9-43.5c-132.8-44.4-153.1-96.9-145.1-130.1c10.6-43.7,73.8-57.2,114.7-70.1
							c89.5-28.3,161.2-54.2,228-104.6c134.2-101.2,173.8-220,292.9-472.8C786.6,159,875,29.4,990,0h410.5V1120L1400.5,1120z"/>
					</defs>
					<clipPath id="SVGID_00000022541313144041278560000013838611633775127198_">
						<use xlink:href="#SVGID_00000165940511237069790590000011214922265564758714_"  style="overflow:visible;"/>
					</clipPath>
					<g style="opacity:0.55;clip-path:url(#SVGID_00000022541313144041278560000013838611633775127198_);">
						<path class="st17" d="M79.3,641.9c154.3-44.9,315.3-85.4,474-61.1c50.3,7.7,99.3,21.9,148.6,34.1
							c44.8,11.2,86.4,25.2,132.6,30.4c98.8,11.2,198.9,2.5,296.2-16.3c51-9.9,101.4-22.7,151.3-37.2c16.5-4.8,33.3-9.8,50.5-9.5
							c25.3,0.5,48.9,12.4,72.1,22.5c73.4,31.9,153.4,47.8,224.1,85.2c23.9,12.6,47.1,28.1,62.9,50.1c19.2,26.7,26,61.3,21.7,93.9
							c-6.6,50.5-35.5,90.4-74.6,121c-55.4,43.4-124.7,64.4-192.8,81.6c-533.4,135.2-1110.7,89.3-1616.3-128.3"/>
					</g>
				</g>
			</g>
			<g>
				<g>
					<defs>
						<path id="SVGID_00000031195451261824673970000007952607281780082844_" d="M1400.5,1120H599.9c-33.5-23.7-112.9-40.2-170.3-50
							c-59.6-10.2-118.5-24.2-175.9-43.5c-132.8-44.4-153.1-96.9-145.1-130.1c10.6-43.7,73.8-57.2,114.7-70.1
							c89.5-28.3,161.2-54.2,228-104.6c134.2-101.2,173.8-220,292.9-472.8C786.6,159,875,29.4,990,0h410.5V1120L1400.5,1120z"/>
					</defs>
					<clipPath id="SVGID_00000098196934491577954360000007250370358414262698_">
						<use xlink:href="#SVGID_00000031195451261824673970000007952607281780082844_"  style="overflow:visible;"/>
					</clipPath>
					<g style="opacity:0.15;clip-path:url(#SVGID_00000098196934491577954360000007250370358414262698_);">
						<path class="st19" d="M514.8,660.6c72-7.1,144.5-8.3,216.6-3.7c32.4,2.1,64.6,8.3,96.5,10.6c35.2,2.5,71.9-0.8,106.9-3.4
							c51.3-3.9,102.3-11,153.5-15.6c122.8-11.2,246.8-8.3,369,8.5c-103.7,27.7-210.6,41.9-317.6,48.5
							c-235.1,14.4-472,2.7-705.4-26.2C459.2,667.1,487.2,663.3,514.8,660.6z"/>
					</g>
				</g>
			</g>
			<g>
				<g>
					<defs>
						<path id="SVGID_00000093135322829025842320000001933592169972234653_" d="M1400.5,1120H599.9c-33.5-23.7-112.9-40.2-170.3-50
							c-59.6-10.2-118.5-24.2-175.9-43.5c-132.8-44.4-153.1-96.9-145.1-130.1c10.6-43.7,73.8-57.2,114.7-70.1
							c89.5-28.3,161.2-54.2,228-104.6c134.2-101.2,173.8-220,292.9-472.8C786.6,159,875,29.4,990,0h410.5V1120L1400.5,1120z"/>
					</defs>
					<clipPath id="SVGID_00000035511657766491211720000015692817210088289720_">
						<use xlink:href="#SVGID_00000093135322829025842320000001933592169972234653_"  style="overflow:visible;"/>
					</clipPath>
					<g style="clip-path:url(#SVGID_00000035511657766491211720000015692817210088289720_);">
						<path class="st17" d="M41.7,853.8c101-91.3,230.4-150.4,365.4-167c73.9-9,148.7-5.7,223-2.2c83.4,3.8,166.7,7.7,250.1,11.5
							c179.9,8.3,363.5,16.2,537-32.6c41.5-11.7,82.7-26.7,125.7-29.4c80.1-5.1,136.1,43.8,150.5,122.2
							c12.8,69.4-25.6,140.5-80.4,184.6c-54.8,44.2-123.7,66.2-191.6,84.5C890,1168.3,312.2,1130.9-196.6,920.7"/>
					</g>
				</g>
			</g>
			<g>
				<g>
					<defs>
						<path id="SVGID_00000139974210007924060730000002430525405304204458_" d="M1400.5,1120H599.9c-33.5-23.7-112.9-40.2-170.3-50
							c-59.6-10.2-118.5-24.2-175.9-43.5c-132.8-44.4-153.1-96.9-145.1-130.1c10.6-43.7,73.8-57.2,114.7-70.1
							c89.5-28.3,161.2-54.2,228-104.6c134.2-101.2,173.8-220,292.9-472.8C786.6,159,875,29.4,990,0h410.5V1120L1400.5,1120z"/>
					</defs>
					<clipPath id="SVGID_00000101098075683107053360000012445771424702325171_">
						<use xlink:href="#SVGID_00000139974210007924060730000002430525405304204458_"  style="overflow:visible;"/>
					</clipPath>
					<g style="clip-path:url(#SVGID_00000101098075683107053360000012445771424702325171_);">
						
							<linearGradient id="SVGID_00000088818137694706870190000017421099307426373786_" gradientUnits="userSpaceOnUse" x1="1300.381" y1="-1504.0623" x2="1447.3282" y2="-1651.0093" gradientTransform="matrix(1 0 0 1 0 2382)">
							<stop  offset="0" style="stop-color:#D98238;stop-opacity:0.2"/>
							<stop  offset="0.5161" style="stop-color:#E27B28;stop-opacity:0.3548"/>
							<stop  offset="1" style="stop-color:#E7751D;stop-opacity:0.5"/>
						</linearGradient>
						<path style="fill:url(#SVGID_00000088818137694706870190000017421099307426373786_);" d="M1284.8,760.1
							c32.4-2.2,65-3.4,97.5-3.8c32.8-0.3,66.4,0.4,96.7,12.9c13.7,5.6,28.3,17.2,26,31.9c-2.3,15-20.1,21.4-35,23.9
							c-77.3,12.8-156.2,0.9-233.6-11"/>
					</g>
				</g>
			</g>
			<g>
				<g>
					<defs>
						<path id="SVGID_00000053508841203414702420000004689292925754190014_" d="M1400.5,1120H599.9c-33.5-23.7-112.9-40.2-170.3-50
							c-59.6-10.2-118.5-24.2-175.9-43.5c-132.8-44.4-153.1-96.9-145.1-130.1c10.6-43.7,73.8-57.2,114.7-70.1
							c89.5-28.3,161.2-54.2,228-104.6c134.2-101.2,173.8-220,292.9-472.8C786.6,159,875,29.4,990,0h410.5V1120L1400.5,1120z"/>
					</defs>
					<clipPath id="SVGID_00000162339307090500648530000003678323200610341278_">
						<use xlink:href="#SVGID_00000053508841203414702420000004689292925754190014_"  style="overflow:visible;"/>
					</clipPath>
					<g style="clip-path:url(#SVGID_00000162339307090500648530000003678323200610341278_);">
						
							<linearGradient id="SVGID_00000110440606936375384580000000151835851259010486_" gradientUnits="userSpaceOnUse" x1="527.3387" y1="-1597.0104" x2="741.4435" y2="-1597.0104" gradientTransform="matrix(1 0 0 1 0 2382)">
							<stop  offset="0" style="stop-color:#D98238;stop-opacity:0.2"/>
							<stop  offset="0.5161" style="stop-color:#E27B28;stop-opacity:0.3548"/>
							<stop  offset="1" style="stop-color:#E7751D;stop-opacity:0.5"/>
						</linearGradient>
						<path style="fill:url(#SVGID_00000110440606936375384580000000151835851259010486_);" d="M605.8,804
							c-26.5,2.5-42.8,2.1-71.9-5c-2.1-0.5-4.4-1.2-5.7-3c-3.6-5.1,4.3-10.4,10.4-11.6c66.7-13.6,134.8-20.2,202.8-19.8"/>
					</g>
				</g>
			</g>
			<g>
				<g>
					<defs>
						<path id="SVGID_00000023245510055264906660000009802238881588907157_" d="M1400.5,1120H599.9c-33.5-23.7-112.9-40.2-170.3-50
							c-59.6-10.2-118.5-24.2-175.9-43.5c-132.8-44.4-153.1-96.9-145.1-130.1c10.6-43.7,73.8-57.2,114.7-70.1
							c89.5-28.3,161.2-54.2,228-104.6c134.2-101.2,173.8-220,292.9-472.8C786.6,159,875,29.4,990,0h410.5V1120L1400.5,1120z"/>
					</defs>
					<clipPath id="SVGID_00000091697319435007686650000008202789425106508456_">
						<use xlink:href="#SVGID_00000023245510055264906660000009802238881588907157_"  style="overflow:visible;"/>
					</clipPath>
					<g style="clip-path:url(#SVGID_00000091697319435007686650000008202789425106508456_);">
						<g>
							<g>
								
									<linearGradient id="SVGID_00000129198623477366002970000002801909259602131629_" gradientUnits="userSpaceOnUse" x1="544.5516" y1="-1656.8004" x2="654.9099" y2="-1656.8004" gradientTransform="matrix(1 0 0 1 0 2382)">
									<stop  offset="0" style="stop-color:#D98238;stop-opacity:0.4"/>
									<stop  offset="0.5161" style="stop-color:#E27B28;stop-opacity:0.5032"/>
									<stop  offset="1" style="stop-color:#E7751D;stop-opacity:0.6"/>
								</linearGradient>
								<path style="fill:url(#SVGID_00000129198623477366002970000002801909259602131629_);" d="M654.9,761.3
									c-16.7-11.1-28.3-20.2-39.3-29.3c-8.7-7.1-18.4-16.8-23.2-22.2c1.3,1,2.6,1.9,3.7,2.9c2.4,2.1,4.2,4.2,5.8,6.3
									c0.1-1-0.2-2.2-1.1-3.3c2.5,2.2,5,4.4,7.4,6.5c0.1-1-0.3-2.1-1.3-3.2c2.2,2.3,4.4,4.5,6.7,6.8c-0.6-1.6-1.2-3.3-1.8-4.9
									c2.2,2.3,4.5,4.6,7.1,7c-0.1-1-0.6-2.1-1.5-3.2c2.5,2.3,4.8,4.5,7,6.8c0-1.5-0.4-3.2-1.3-4.9c3.3,2.5,6.3,5,9.3,7.6
									c-1-2.4-3-4.8-5.8-7.3c2.7,1.7,5.4,3.3,8.1,5c-1.6-2.9-8.1-5.9-11.4-9c2.1,1.3,4.8,2.5,7.7,3.6c-0.6-0.8-2-1.6-3.5-2.4
									c-2.8-1.5-5.7-2.9-8.6-4.4c3.3,1.2,6.6,2.4,9.9,3.6c-4.6-2.5-11-4.4-15.1-7c3.3,1.2,6.7,2.3,10.2,3.3
									c-5.1-3-13.7-4.9-18.4-8c2.9,0.6,5.8,1.3,8.7,2.1c-3-1.9-7.1-3.5-11.4-4.8c-1-0.3-2-0.5-3-0.7c3.3,0.6,6.7,1.1,10.1,1.7
									c-2.4-1-4.8-1.9-7.4-2.5c4.3,0.9,8.5,1.9,12.8,3c-2.4-0.9-4.7-1.9-7.1-2.8c4.6,1.2,9.1,2.9,13,5c-1.5-1.1-3.2-2.2-5.1-3.2
									c2.3,0.8,4.5,1.8,6.7,2.7c0.8,0.4,1.7,0.8,2.5,1.2c-0.4-0.6-1.3-1.4-2.4-2s-2.4-1.2-3.7-1.7c4.1,1.1,8.1,2.6,11.7,4.4
									c-1.7-1.4-4.5-2.6-7.2-3.8c4.6,1.3,8.9,3,13.3,4.8c-2.1-1.2-4.5-2.4-7-3.4c0.9,0.4,1.9,0.7,2.8,1.1c1.9,0.8,3.9,1.6,5.7,2.5
									c-2-2.3-6.3-4.7-10.9-6c2.5,0.6,5,1.2,7.5,1.8c-3.6-1.7-7.9-2.9-11.7-3.2c2.4,0.1,4.8,0.3,7.2,0.4c-4.1-1-8.1-1.3-12-1.7
									c0.9-0.1,1.9-0.2,3.1-0.2c0.8,0,2.1-0.2,3-0.1c-3.8-0.7-7.3-0.9-10.8-1.2c1.3-0.2,2.8-0.4,4.4-0.5c-4.1-0.5-8-0.6-11.4-0.3
									c-0.3,0-0.6-0.1-1-0.1c1.9-0.4,4-0.7,6.4-0.8c-5-0.7-9.4-0.5-13.4-0.1c1.5-0.4,3.2-0.7,5.1-0.9c-3.9-0.5-7.4,0-10.5,0.3
									c-0.5,0-0.9,0.1-1.4,0.1c1.5-0.9,4.1-1.4,7.3-1.4c-2.3-0.2-4.5-0.4-6.8-0.6c3.7-0.4,8.5-0.1,13.4,0.6
									c-3.4-0.7-6.8-1.3-10.1-1.8c6.1,0.2,13.2,1.6,20,2.9c-2.7-0.9-5.6-1.6-8.4-2.2c5.7,0.8,11.7,2.3,17.5,3.8
									c-2.1-1-5.6-2.3-8.7-3.2c1.6,0.4,3.1,0.8,4.6,1.3c-1.5-0.6-2.3-1.4-3.6-2.1c-1.1-0.6-2.5-1.1-3.8-1.5
									c-4-1.3-8.5-2.1-12.3-2.3c1.2-0.2,2.3-0.3,3.4-0.5c-4.9-0.6-9.5-0.6-12.9,0c0.9-0.8,2.9-1.4,5.4-1.5
									c-4.4-0.7-7.8-0.3-10.1,0.6c-2.7,1-4.4,2.5-4.4,4.4c-1.2-1.1-2.4-2.1-3.8-3.2c-2.6-1.9-6-3.8-9.9-5.2
									c0.9,0.9,1.9,1.8,2.8,2.6c-2.5-1.3-4.2-2.6-7.9-3.6c2,0.8,3.9,1.8,5.4,2.8c-2.4-1.3-5.3-2.3-8.2-2.9c-2.9-0.6-5.7-0.9-8.2-1
									c2,0.4,4.1,1,6.1,1.5c-2.2-0.4-4.1-0.4-5.9-0.3c-1,0-1.9,0.1-2.7,0.3c-0.5,0.1-1.4,0.5-2,0.5c1.9,0.2,3.8,0.3,5.5,0.2
									c-3.9,0-6.8,1.1-7.7,2.7c1.7,0,3.1-0.2,4-0.6c-2.9,1.1-3,3.6-0.3,6c-1.8,0.4-3.2,0.9-4.3,1.6c1.3-0.2,2.5-0.3,3.9-0.5
									c-2.7,0.6-3.7,2.1-4.6,3.5c1.3-0.4,2.7-0.8,4-1.2c-1.1,1.1-1,2.6,0.3,4.1c0.3-0.4,0.6-0.8,1-1.3c1.3,2.2,4,4.5,7.7,6.7
									c-2-2-3.4-4.5-1.9-6c0.6,1.1,1.4,2.2,2.4,3.3c-1.5-2-2.2-4-1.9-5.7c1.1,1.2,2,2.3,2.8,3.4c-0.9-1.7-0.6-3.2,0.7-4.4
									c0.7,1.1,1.5,2.1,2.3,3.2c-0.8-1.8,0.1-3.3,2.5-4.1c-0.6,0.7-0.6,1.6,0.2,2.6c0.7-0.9,2-1.7,3.9-2.1c-0.7,0.5-0.9,1.3-0.5,2
									c0.6-0.6,1.9-0.8,3.6-0.9c0.4,0,0.8,0,1.3,0c1.2,0.3,2.3,0.4,3.2,0.3c-2.9,0.1-5.7,0.4-8.2,0.9c1.9,0.2,3.6,0.2,5.1,0
									c-3.4,0.2-6.4,0.7-9,1.5c1.2,0,3.1-0.1,5.3,0c-4.9,0.7-8.6,1.5-11.2,3.7c1.8-0.8,4.1-1.4,6.9-1.6c-2.6,0.9-5,1.9-7.1,3.1
									c1.7-0.5,3.3-1,5-1.5c-2.5,1.2-5,2.4-5.7,4.6c1.3-0.3,2.4-0.7,3.3-1.3c-0.3,1.2-0.1,2.5,0.4,3.8c0.1,0.5,0,0.8,0.2,1.3
									c0.2,0.4,0.6,0.8,0.9,1.2c0.2,0.3,1,0.9,1,1.1c-0.6-2.7-0.5-5.2,0.5-7.3c0.3,1.7,0.6,3.5,2.4,5.6c-0.3-2.4-0.6-4.8,0.3-6.6
									c0.1,1.6,0.7,3.4,2,5.4c0-2.4,0.4-4.6,1.1-6.7c-0.3,1.2,0,2.6,0.6,4.1c0.2,0.4,0.5,0.9,1.1,1.3c0-2.1,0.3-4.1,0.9-5.9
									c0,1.3,0.3,2.8,1,4.4c0.7-0.1,0.8-0.7,0.9-1.2c0.1-1.4,0.4-2.9,1.6-3.7c-0.2,0.9-0.3,1.9-0.2,3c0,0.3,0.2,0.7,0.7,1.1
									c0.8-1.7,1.5-3.4,2.3-5.2c0.2,1.1,0.4,2.2,0.6,3.3c-0.8,1.6-0.9,3.4,0,5.4c0-1,0.2-2,1.8-2.5c-1,2.3,0,5.1,2.9,8
									c0.1-0.7,0.2-1.5,0.3-2.2c0.4,1.4,1.8,2.9,3.8,4.4c1.9,1.5,4.4,2.9,6.9,4.4c0.5,0.3,1.1,0.6,1.8,0.8c0.1,0,0.1-0.1,0.1-0.2
									c0.6,0.3,1.1,0.6,1.7,1c1.3,0.7,2.6,1.4,4.2,1.9c-4.8-2.9-8-5.9-11.1-8.9c-1.1-1.1-2.2-2.1-2.5-3.2
									c2.9,2.9,6.3,5.9,11.3,8.6c-3.8-4.5-9.9-9.2-14.1-13.7c4,3.1,8.2,6.2,12.5,9.2c-2-4.1-10.7-8.6-13.4-12.7
									c1.9,1.5,4,3.1,6.2,4.6c0.9,0.6,1.9,1.2,3.2,1.6c-2.2-2.1-4.4-4.2-6.6-6.2c1.4,0.9,2.8,1.8,4.6,2.5c-0.3-0.5-0.5-1-0.7-1.4
									c4.3,5.8,10.3,11.9,16.6,17.7c11.2,10.3,24.5,20.6,39.1,30.7 M585,704L585,704L585,704L585,704L585,704z M581,708.7
									c-0.1,0.1-0.2,0.2-0.3,0.4c0.1-0.2,0.2-0.5,0.3-0.7C581,708.4,581,708.5,581,708.7z M568.9,698.3c-3.4-0.6-6.9-1.3-10-1.4
									c2.3,0.2,4.9,0.7,7.2,1.4c-5.1-0.7-10.1-0.9-14.3-0.6c1.9,0,4.1,0.3,6.2,0.6c-3.2-0.1-6.2,0-8.6,0.5c1.7-1.7,4.1-3.1,7-4.2
									c-1,0.5-1.7,1-2.2,1.7c0.3,0.2,0.9,0.1,1.1,0c2.3-1.1,5.9-1.5,10.1-1.1c-2,0.3-3.5,0.9-4.5,1.7c1.4,0.1,2.5,0,3.8,0.1
									c3.4,0.1,7.6,1.2,11,2.7C573.6,699.3,571.2,698.8,568.9,698.3z"/>
							</g>
						</g>
						<g>
							<g>
								<path class="st27" d="M644.9,759.6c2.2-26.5,0.2-36.7-4.4-55c-3.8-15.3-6.3-30.9-7-46.6c-0.5-11.2-0.3-22.9,2.5-33.8
									c0.6-2.1,1.8-4.7,4.2-4.7c-2,0-2.8,24.2-0.9,40.2c1.6,13.9,3.6,27.7,8.3,44.5c6.1,21.8,8.6,38.2,3.3,58.9"/>
							</g>
							<g>
								<path class="st27" d="M630.8,626.7c1.4-1.1,2.8-2.2,4.3-3.3c1.3-1,2.6-1.9,3.6-3.4c0.1-0.1,0.2-0.3,0.2-0.5s0-0.5-0.1-0.6
									c-0.7-1.4-1.9-2-3.2-2.4c-2.7-0.9-5.6-1.1-8.3-0.6c0.9,0.5,1.8,0.7,2.7,0.6c-2.6,0.2-5.3,0.6-7.9,1.3c1.5,0.2,3,0.3,4.4,0
									c-3.1,0.3-6.1,1-9.1,2.3c1,0,2.8-0.2,4.6,0c-4.8,1-8.7,2.2-12.9,5.6c2.3-1.3,4.8-2.1,7.3-2.4c-3,1.3-6,2.9-8.8,4.7
									c1.9-0.7,3.8-1.5,5.6-2.3c-3.2,1.8-6.4,3.7-8.9,6.9c1.3-0.5,2.6-1.1,3.9-1.9c-1.2,1.7-2.2,3.7-3.1,5.8
									c-0.3,0.7-0.7,1.3-0.9,2c-0.2,0.6-0.2,1.2-0.3,1.9c0,0.4,0,1.3-0.1,1.7c1.8-4.2,4.1-7.9,6.8-11.1c-1.3,2.6-2.6,5.4-2.9,8.5
									c1.8-3.6,3.6-7.3,6-10c-1.3,2.5-2.4,5.2-3,8.2c2.1-3.6,4.4-6.9,6.8-10.1c-1.3,1.8-2.3,3.9-3.1,6.2c-0.2,0.6-0.4,1.3-0.1,1.9
									c1.8-3.2,3.8-6.2,5.9-9c-1.2,2-2.2,4.3-3,6.6c0.7-0.2,1.3-1,1.8-1.9c1.3-2.2,2.8-4.4,4.6-5.6c-1,1.4-1.9,2.9-2.8,4.5
									c-0.2,0.5-0.5,1.1-0.3,1.6c2.2-2.6,4.4-5.2,6.5-7.8c-1,2.2-2,4.3-3.1,6.5c1.9-2.3,3.9-4.6,5.9-6.9c-0.7,1.3-1.5,2.6-2.2,3.9
									c1.5-1.4,2.9-2.7,4.4-4.1C631.7,624.5,631.1,625.5,630.8,626.7z"/>
							</g>
							<g>
								<path class="st27" d="M637.9,621.7c0.6,2.8,1.3,5.8,1.5,8.6c0.2,3.2,0,6.4-0.4,9.5c1-1.6,1.7-3.3,2-5.1
									c0.2,3.3,0.5,6.6,0.7,9.9c1-1.5,1.5-3.2,1.7-4.9c0,3.5-0.1,6.9-0.2,10.4c0.9-2.5,1.9-5,2.7-7.5c-0.1,3.5-0.2,7,0,10.6
									c0.7-1.5,1.3-3.2,1.5-4.9c0.1,3.4,0.2,6.9,0.1,10.3c1.3-2.3,2.4-4.8,3.1-7.4c0.7,3.8,1,7.7,1.3,11.5
									c1.2-3.6,1.7-7.4,1.4-11.1c0.9,2.5,1.8,5,2.6,7.6c1.2-4.4-1.8-9-2-13.6c0.7,2,1.9,3.9,3.5,5.5c0.2-1.2-0.4-2.5-0.9-3.6
									c-1.1-2.2-2.3-4.4-3.6-6.6c1.8,1.8,3.6,3.7,5.4,5.5c-1.8-3.8-5.7-6.7-6.9-10.6c1.9,1.8,3.8,3.5,5.9,5.1
									c-1.8-4.6-7.5-7.5-8.9-12.1c2,0.9,3.9,1.9,5.7,3.2c-0.9-2.9-3.1-5.4-5.7-7.2c-2.6-1.9-5.7-3.2-8.9-4.3
									c-0.6-0.2-1.2-0.4-1.8-0.5c-0.5,0-1.3,0.2-1.7,0"/>
							</g>
							<g>
								<path class="st27" d="M638,617.4c-1.7-6,3.2-11.7,9-14.4c2.7-1.3,6.1-1.9,9.2-0.8c-2.3,0.2-4.4,1-6,2.3
									c3.5-0.8,7.4-0.8,11.1,0c-1.1,0.2-2.3,0.5-3.4,0.7c3.2,0.3,6.3,1.6,8.6,3.5c0.8,0.6,1.6,1.4,2,2.3c0.5,1.1,0.6,2.2,1.3,3.2
									c-1.3-1.1-2.6-2.1-4.3-2.8c2.4,1,4.9,3.8,6.2,5.6c-3.6-2.4-7.4-4.7-11.7-5.8c1.9,0.8,3.8,2,5.4,3.3c-4.7-2-9.6-4.1-14.7-4.4
									c2.5,0.8,4.9,1.7,7.2,2.7c-3.6-1.3-7.5-1.6-11-1c1.8,0.4,3.5,0.7,5.3,1c-4.6,0-8.8,2.1-10.7,5.3c-0.1,0.2-0.5,0.5-0.7,0.2"
									/>
							</g>
							<g>
								<g>
									<path class="st27" d="M639.1,617.6c-0.3,0.6-0.5,1.3-0.7,1.9c0.3,0,0.6-0.1,0.9-0.1L639.1,617.6z"/>
								</g>
								<g>
									<path class="st27" d="M638.4,619.5c-2.1,0.3-3.9,1.5-5.4,2.8l0.4-0.8c-1.2,0.9-2.3,1.8-3.4,2.8c-4.3,3.7-8.1,8-9.7,13.2
										c0.8-1.5,1.9-3.1,3.7-3.8c-2.9,3.5-4.5,7.7-4.5,12.1c0.7-1.1,1.4-2.2,2.2-3.3c-0.9,2.1-1,4.4-0.6,6.7s1.2,4.4,2.1,6.6
										c0.2,0.5,0.4,0.9,0.8,1.3c0.1-0.1,0.2-0.2,0.3-0.3c0.2,0.5,0.4,1,0.6,1.5c0.5,1.1,1,2.1,1.9,3c-1.6-4.4-1.7-9-1.7-13.6
										c0-1.6,0-3.2,0.6-4.7c0,4.4,0.3,8.9,2.3,13c0.6-6.9-0.6-13.9-0.1-20.8c0.7,4.7,1.7,9.3,2.8,13.9c1.8-6.3-1.7-13-0.5-19.4
										c0.3,2.3,0.8,4.6,1.3,6.9c0.2,0.9,0.5,1.9,1.3,2.5c-0.1-3.2-0.2-6.3-0.2-9.5c0.4,1.3,0.9,2.7,1.7,3.9
										C635.1,628.7,636.6,624,638.4,619.5z"/>
								</g>
							</g>
							<g>
								<path class="st27" d="M639.1,617.4c0.2-1.2,0.2-2.4,0.2-3.6c0-3,0-6-0.6-9s-1.8-5.8-3.9-8c0,1.3,0,2.7,0.1,4
									c-1-1.9-1.3-4-3.7-5.4c1,1.3,1.8,2.7,2.2,4.3c-0.9-1.9-2.6-3.4-4.5-4.4c-1.9-0.9-4.1-1.4-6.2-1.6c1.3,0.6,2.7,1.4,3.9,2.4
									c-1.6-0.6-3.2-0.6-4.8-0.5c-0.9,0.1-1.8,0.2-2.6,0.4c-0.5,0.1-1.7,0.8-2.1,0.7c1.5,0.3,3.1,0.4,4.6,0.3
									c-3.4,0.1-6.8,1.6-9.1,4.2c1.4,0,2.8-0.3,4-1c-3.4,1.6-5.7,5.4-5.5,9.2c3.4-3,7.2-5.4,11.4-7.1c-1.9,0.7-3.5,1.9-4.9,3.3
									c0.1,0.3,0.6,0.2,0.9,0c2.9-1.6,6.3-2.2,9.6-1.7c-1.9,0.4-3.8,1.3-5.4,2.6c1.1,0.2,2.2,0.1,3.2,0.1c3.1,0.2,6,1.9,7.5,4.6
									c1,1.7,1.4,3.7,1.9,5.7"/>
							</g>
							<g>
								<path class="st27" d="M669.5,628.4c0.5,0.6,1,1.1,1.4,1.7c1,1.2,1.9,2.5,2.7,3.8c0.3-3.5-1.3-7.1-4.2-9.1
									c1.6,0.9,3.3,1.8,4.9,2.7c-1.6-2.5-4.3-4.4-7.3-4.9c1.9,0.2,3.9,0.4,5.9,0.6c-2.7-1.4-5.8-2-8.8-2.6
									c0.9-0.2,1.9-0.3,2.8-0.3c0.7,0,2-0.3,2.6-0.1c-2.6-1-5.5-1.4-8.3-1.8c1.4-0.4,2.8-0.6,4.2-0.7c-3.1-0.7-6.4-0.8-9.6-0.4
									c-0.2-0.1-0.5-0.1-0.7-0.2c2-0.6,4.1-1.1,6.2-1.2c-3.7-1.1-7.6-0.7-11.5-0.1c1.7-0.6,3.4-1.1,5.1-1.3
									c-2.9-0.7-6.4,0-9.3,0.5c-2.3,0.4-4.6,0.8-6.7,1.7h-0.1c-0.2,0.1-0.3,0.1-0.5,0.2c-1.7,0.7-3.3,1.7-4.9,2.7l4.9,2.3
									c1.3-0.2,2.5,0.1,3.8,0.4c3.9,1.1,7.6,2.5,11.4,4c-1.2-1.5-2.6-2.8-4.1-3.9c2.9,1.3,5.7,3,8.4,4.5c-1.3-1.4-2.5-2.8-3.7-4.2
									c2.9,1.8,5.3,4.4,6.9,7.5c-0.4-1.7-0.9-3.3-1.6-4.9c1.3,1.2,2.4,2.6,3.4,4.1c0.4,0.6,0.8,1.2,1.2,1.8c0.3-1,0.1-2.1-0.4-3
									c-0.4-0.9-1.1-1.7-1.7-2.5c2.6,1.6,4.8,3.9,6.3,6.6c-0.2-2.2-1.6-4-3-5.7c2.9,1.9,5,4.6,7.2,7.3
									C671.8,631.8,670.8,630,669.5,628.4z"/>
							</g>
							<g>
								<path class="st27" d="M637.3,616c-0.5-1.8-1.9-3.4-3.5-4.6c-1.6-1.2-3.6-2-5.5-2.8c-2.4-1-4.8-1.9-7.4-2.2
									c1.9,0.3,3.6,1.1,5,2.1c-3.8-1.1-7.9-1.4-11.8-0.9c1.6,0,3.3,0.4,4.8,1c-4.7-0.4-9.4,0.7-13.1,3.2c1.3-0.3,2.5-0.5,3.8-0.6
									c-2.9,1-5,3.2-7,5.3c1.5-0.6,3-1.2,4.5-1.8c-1.9,1.7-3.1,3.9-3.3,6.3c0.6-0.6,1.3-1.3,1.9-1.9c-0.8,3.3-0.5,6.9,0.8,10.1
									c0-3.1,1-6.9,3.6-9.1c-0.4,1.6-0.7,3.3-0.8,5c0.5-3.1,1.6-6.1,3.3-8.8c0,1.7-0.2,3.5-0.6,5.1c0.7-2.5,2.3-4.9,4.5-6.7
									c-0.3,1.6-0.6,3.2-0.8,4.9c0.8-2.7,2.9-5,5.7-6.3c-1.2,1-1.9,2.5-2.1,3.9c1.4-1.4,3.2-2.5,5.2-3.2c-1.1,0.8-1.9,1.9-2.2,3.1
									c1-0.9,2.5-1.3,3.8-1.4c1.4-0.1,2.9,0.1,4.3,0.5c2.5,0.6,5.1,1.6,6.5,3.6"/>
							</g>
						</g>
					</g>
				</g>
			</g>
			<g>
				<g>
					<defs>
						<path id="SVGID_00000157279585873911866040000017541523313957695880_" d="M1400.5,1120H599.9c-33.5-23.7-112.9-40.2-170.3-50
							c-59.6-10.2-118.5-24.2-175.9-43.5c-132.8-44.4-153.1-96.9-145.1-130.1c10.6-43.7,73.8-57.2,114.7-70.1
							c89.5-28.3,161.2-54.2,228-104.6c134.2-101.2,173.8-220,292.9-472.8C786.6,159,875,29.4,990,0h410.5V1120L1400.5,1120z"/>
					</defs>
					<clipPath id="SVGID_00000077320284019400173900000017703985937272053172_">
						<use xlink:href="#SVGID_00000157279585873911866040000017541523313957695880_"  style="overflow:visible;"/>
					</clipPath>
					<g style="clip-path:url(#SVGID_00000077320284019400173900000017703985937272053172_);">
						
							<linearGradient id="SVGID_00000040562521532691512720000017058901560320263826_" gradientUnits="userSpaceOnUse" x1="767.7935" y1="-1573.6" x2="767.7935" y2="-1866.3" gradientTransform="matrix(1 0 0 1 0 2382)">
							<stop  offset="0" style="stop-color:#DF7631"/>
							<stop  offset="0.5237" style="stop-color:#E28B3A"/>
							<stop  offset="1" style="stop-color:#E49A42"/>
						</linearGradient>
						<polygon style="fill:url(#SVGID_00000040562521532691512720000017058901560320263826_);" points="582.9,808.4 814.3,515.7 
							952.6,808.4 						"/>
						
							<linearGradient id="SVGID_00000131357744024234846230000014906335648800333484_" gradientUnits="userSpaceOnUse" x1="930.8934" y1="-1573.6" x2="930.8934" y2="-1866.3" gradientTransform="matrix(1 0 0 1 0 2382)">
							<stop  offset="5.376340e-03" style="stop-color:#6B2923"/>
							<stop  offset="1" style="stop-color:#8E442D"/>
						</linearGradient>
						<polygon style="fill:url(#SVGID_00000131357744024234846230000014906335648800333484_);" points="1047.4,746.8 814.3,515.7 
							952.6,808.4 						"/>
						<g>
							<g>
								<g>
									<defs>
										<polygon id="SVGID_00000131356580513000586680000006431710386350073279_" points="582.9,808.4 814.3,515.7 952.6,808.4 
																					"/>
									</defs>
									<clipPath id="SVGID_00000042728560852944497070000014073671138783295878_">
										<use xlink:href="#SVGID_00000131356580513000586680000006431710386350073279_"  style="overflow:visible;"/>
									</clipPath>
									
										<linearGradient id="SVGID_00000038374968155919380180000001393132605233044913_" gradientUnits="userSpaceOnUse" x1="764.7935" y1="-1601.6" x2="764.7935" y2="-1811.7" gradientTransform="matrix(1 0 0 1 0 2382)">
										<stop  offset="0" style="stop-color:#DD6328"/>
										<stop  offset="1" style="stop-color:#D7792A;stop-opacity:0.4"/>
									</linearGradient>
									
										<path style="opacity:0.15;clip-path:url(#SVGID_00000042728560852944497070000014073671138783295878_);fill:url(#SVGID_00000038374968155919380180000001393132605233044913_);enable-background:new    ;" d="
										M944.8,754.4H733.3v-4.8h211.5V754.4z M956.3,723H703.7v6h252.6V723z M937.3,704.3H760.7v3h176.6V704.3L937.3,704.3z
										 M754.8,704.3h-65.5v3h65.5V704.3z M916.7,678.2H740.1v3h176.6V678.2L916.7,678.2z M856.1,643.8H679.5v3h176.6V643.8z
										 M982.7,619.9H806.1v3h176.6V619.9z M952.6,598.3H776v3h176.6V598.3z M977.5,570.3H800.9v3h176.6V570.3z M828.4,777.4
										H651.8v3h176.6V777.4z M1025.6,777.4H849v3h176.6V777.4z M715.4,749.6H503.9v4.8h211.5V749.6z"/>
								</g>
							</g>
						</g>
					</g>
				</g>
			</g>
			<g>
				<g>
					<defs>
						<path id="SVGID_00000131368324821704121780000001035797630505022855_" d="M1400.5,1120H599.9c-33.5-23.7-112.9-40.2-170.3-50
							c-59.6-10.2-118.5-24.2-175.9-43.5c-132.8-44.4-153.1-96.9-145.1-130.1c10.6-43.7,73.8-57.2,114.7-70.1
							c89.5-28.3,161.2-54.2,228-104.6c134.2-101.2,173.8-220,292.9-472.8C786.6,159,875,29.4,990,0h410.5V1120L1400.5,1120z"/>
					</defs>
					<clipPath id="SVGID_00000025403278733005768790000009047660961715198864_">
						<use xlink:href="#SVGID_00000131368324821704121780000001035797630505022855_"  style="overflow:visible;"/>
					</clipPath>
					<g style="clip-path:url(#SVGID_00000025403278733005768790000009047660961715198864_);">
						<path class="st17" d="M478.6,834.9c42.6-16.2,86.7-32.4,132.3-30.9c36.2,1.3,72.2,1.2,108.6-1.7c34.8-2.8,69.8-6.9,104.3,0.9
							c33.9,7.7,69.4,10.4,103.6,18.9c4,1,8.2,2.2,10.7,5.4c3.5,4.5,1.9,11.5-2,15.7s-9.6,6.2-15.1,7.8
							c-39.5,11.8-81.4,12-122.5,11.3c-58.7-1-117.4-3.5-176-7.6"/>
					</g>
				</g>
			</g>
			<g>
				<g>
					<defs>
						<path id="SVGID_00000165205564077861214150000005746163926267428775_" d="M1400.5,1120H599.9c-33.5-23.7-112.9-40.2-170.3-50
							c-59.6-10.2-118.5-24.2-175.9-43.5c-132.8-44.4-153.1-96.9-145.1-130.1c10.6-43.7,73.8-57.2,114.7-70.1
							c89.5-28.3,161.2-54.2,228-104.6c134.2-101.2,173.8-220,292.9-472.8C786.6,159,875,29.4,990,0h410.5V1120L1400.5,1120z"/>
					</defs>
					<clipPath id="SVGID_00000008150467234514270050000004855506592748375709_">
						<use xlink:href="#SVGID_00000165205564077861214150000005746163926267428775_"  style="overflow:visible;"/>
					</clipPath>
					<g style="clip-path:url(#SVGID_00000008150467234514270050000004855506592748375709_);">
						
							<linearGradient id="SVGID_00000147219950332660480990000011268116721045860786_" gradientUnits="userSpaceOnUse" x1="-123.9306" y1="-1500.8813" x2="832.4341" y2="-1500.8813" gradientTransform="matrix(1 0 0 1 0 2382)">
							<stop  offset="0" style="stop-color:#D9A15C;stop-opacity:0.2"/>
							<stop  offset="0.3219" style="stop-color:#DF9043;stop-opacity:0.3609"/>
							<stop  offset="0.7512" style="stop-color:#E57D28;stop-opacity:0.5756"/>
							<stop  offset="1" style="stop-color:#E7751D;stop-opacity:0.7"/>
						</linearGradient>
						<path style="fill:url(#SVGID_00000147219950332660480990000011268116721045860786_);" d="M-44.7,1022.4
							c-26.3-11.7-70.5-38.7-78.3-69.4c-7.1-28,26.3-75.7,45.6-94.8c12.2-12,27-21.2,41.7-29.9c126.1-74,271.3-124.5,416.7-111
							c30.2,2.8,60.5,8.4,87.9,21.5c5.4,2.5,10.9,5.7,13.4,11.2c7.9,17.3-31.7,28-43.2,33.7c-3.4,1.7-7.2,3.8-8.4,7.4
							c-2.4,7.2,6.5,12.8,13.8,15c35.3,10.4,72.5,12.5,109.2,14.6c65.5,3.8,130.9,7.5,196.5,9.2c23.4,0.6,47.3,1.1,69.2,9.5
							c4.9,1.9,10,4.4,12,9.2c3,6.8-1.3,14.6-6.4,20.1c-13.1,14.2-31.3,22.3-49.2,29.7c-46.2,18.9-93.7,34.6-142.1,46.8
							c-44.1,11.1-85.1,27.1-129.2,39c-99.7,26.7-201,49.9-304,58.9c-39,3.4-78.2,4.8-117.3,3.6C39.8,1045-4.7,1040.2-44.7,1022.4z"
							/>
					</g>
				</g>
			</g>
			<g>
				<g>
					<defs>
						<path id="SVGID_00000067952540749411202630000006952145512143962303_" d="M1400.5,1120H599.9c-33.5-23.7-112.9-40.2-170.3-50
							c-59.6-10.2-118.5-24.2-175.9-43.5c-132.8-44.4-153.1-96.9-145.1-130.1c10.6-43.7,73.8-57.2,114.7-70.1
							c89.5-28.3,161.2-54.2,228-104.6c134.2-101.2,173.8-220,292.9-472.8C786.6,159,875,29.4,990,0h410.5V1120L1400.5,1120z"/>
					</defs>
					<clipPath id="SVGID_00000049208303318872011120000006027708619470917781_">
						<use xlink:href="#SVGID_00000067952540749411202630000006952145512143962303_"  style="overflow:visible;"/>
					</clipPath>
					<g style="clip-path:url(#SVGID_00000049208303318872011120000006027708619470917781_);">
						
							<linearGradient id="SVGID_00000163046761067355295870000013885213277992753056_" gradientUnits="userSpaceOnUse" x1="-98.3566" y1="-1421.4235" x2="565.8569" y2="-1421.4235" gradientTransform="matrix(1 0 0 1 0 2382)">
							<stop  offset="0" style="stop-color:#D9A15C;stop-opacity:0.2"/>
							<stop  offset="0.3219" style="stop-color:#DF9043;stop-opacity:0.3609"/>
							<stop  offset="0.7512" style="stop-color:#E57D28;stop-opacity:0.5756"/>
							<stop  offset="1" style="stop-color:#E7751D;stop-opacity:0.7"/>
						</linearGradient>
						<path style="fill:url(#SVGID_00000163046761067355295870000013885213277992753056_);" d="M-23.1,950
							c84.5-27.1,169-54.3,253.5-81.4c17.4-5.6,35-11.2,53.4-13.1c22-2.2,44.1,1.1,65.9,4.4c53.4,8,106.9,16.1,158.9,29.5
							c13,3.4,26.2,7.2,37.2,14.3s19.6,18,20,30.1c0.4,12.7-8.2,24.1-17.3,34c-12.1,13.1-25.8,25.2-40.3,36.2
							c-17.2,13.1-35.9,24.8-56.4,33.5c-33.6,14.2-71.1,19.6-108.1,23.1c-147.1,13.9-295.8,0.7-442.1-18.7"/>
					</g>
				</g>
			</g>
			<g>
				<g>
					<defs>
						<path id="SVGID_00000106852121429408933170000004159592573101804704_" d="M1400.5,1120H599.9c-33.5-23.7-112.9-40.2-170.3-50
							c-59.6-10.2-118.5-24.2-175.9-43.5c-132.8-44.4-153.1-96.9-145.1-130.1c10.6-43.7,73.8-57.2,114.7-70.1
							c89.5-28.3,161.2-54.2,228-104.6c134.2-101.2,173.8-220,292.9-472.8C786.6,159,875,29.4,990,0h410.5V1120L1400.5,1120z"/>
					</defs>
					<clipPath id="SVGID_00000179621297742871732230000010587287391130453383_">
						<use xlink:href="#SVGID_00000106852121429408933170000004159592573101804704_"  style="overflow:visible;"/>
					</clipPath>
					<g style="clip-path:url(#SVGID_00000179621297742871732230000010587287391130453383_);">
						
							<linearGradient id="SVGID_00000061430557316265383800000017847058372664197052_" gradientUnits="userSpaceOnUse" x1="1032.7933" y1="-1478.1" x2="1032.7933" y2="-1987.5" gradientTransform="matrix(1 0 0 1 0 2382)">
							<stop  offset="0" style="stop-color:#DD6328"/>
							<stop  offset="1" style="stop-color:#D7792A"/>
						</linearGradient>
						<polygon style="fill:url(#SVGID_00000061430557316265383800000017847058372664197052_);" points="746.5,903.9 1101.2,394.5 
							1319,903.9 						"/>
						
							<linearGradient id="SVGID_00000157265956793445712650000011341866487394584994_" gradientUnits="userSpaceOnUse" x1="1307.1433" y1="-1478.1" x2="1307.1433" y2="-1987.5" gradientTransform="matrix(1 0 0 1 0 2382)">
							<stop  offset="5.376340e-03" style="stop-color:#6B2923"/>
							<stop  offset="1" style="stop-color:#8E442D"/>
						</linearGradient>
						<polygon style="fill:url(#SVGID_00000157265956793445712650000011341866487394584994_);" points="1513,903.9 1101.2,394.5 
							1319,903.9 						"/>
						<g>
							<g>
								<g>
									<defs>
										<polygon id="SVGID_00000049190951014550818540000015984536336302934918_" points="1513,903.9 1101.2,394.5 1319,903.9 
																					"/>
									</defs>
									<clipPath id="SVGID_00000134961890165473996840000010044007715329282465_">
										<use xlink:href="#SVGID_00000049190951014550818540000015984536336302934918_"  style="overflow:visible;"/>
									</clipPath>
									
										<linearGradient id="SVGID_00000106118120666868377810000008339883087285582227_" gradientUnits="userSpaceOnUse" x1="1312.9435" y1="-1517.6" x2="1312.9435" y2="-1972.1" gradientTransform="matrix(1 0 0 1 0 2382)">
										<stop  offset="5.376340e-03" style="stop-color:#6B2923"/>
										<stop  offset="1" style="stop-color:#8E442D"/>
									</linearGradient>
									
										<path style="opacity:5.000000e-02;clip-path:url(#SVGID_00000134961890165473996840000010044007715329282465_);fill:url(#SVGID_00000106118120666868377810000008339883087285582227_);enable-background:new    ;" d="
										M1264.7,817.6l226.6-118.1l-2-9.4l-226.6,118.1L1264.7,817.6z M1248,759l270.6-141l2.1,11.9l-270.6,141L1248,759z
										 M1225.8,731.3l189.2-98.6v5.4l-189.2,98.6V731.3z M1212.3,682.7l189.2-98.6v5.4l-189.2,98.6V682.7z M1168.1,583.5
										l189.2-98.6v5.4l-189.2,98.6V583.5z M1105.1,508.5l189.2-98.6v5.4l-189.2,98.6V508.5z M1156.5,541.3l189.2-98.6v5.4
										l-189.2,98.6L1156.5,541.3L1156.5,541.3z M1281.4,857.8l189.2-98.6v6.6l-189.2,98.6V857.8z"/>
								</g>
							</g>
							<g>
								<g>
									<defs>
										<polygon id="SVGID_00000150099887561496242030000006576949115132350360_" points="1513,903.9 1101.2,394.5 1319,903.9 
																					"/>
									</defs>
									<clipPath id="SVGID_00000009575266005702636510000013159546941389972372_">
										<use xlink:href="#SVGID_00000150099887561496242030000006576949115132350360_"  style="overflow:visible;"/>
									</clipPath>
									<g style="opacity:0.25;clip-path:url(#SVGID_00000009575266005702636510000013159546941389972372_);">
										<g>
											
												<linearGradient id="SVGID_00000039106382543133694520000017130587337493660577_" gradientUnits="userSpaceOnUse" x1="1122.1431" y1="-1753.22" x2="1388.1985" y2="-1753.22" gradientTransform="matrix(1 0 0 1 0 2382)">
												<stop  offset="5.376340e-03" style="stop-color:#6B2923"/>
												<stop  offset="1" style="stop-color:#8E442D"/>
											</linearGradient>
											<path style="fill:url(#SVGID_00000039106382543133694520000017130587337493660577_);" d="M1379.7,851.9
												c-3.7-14.8-8.3-29.5-13.7-44c-11.7-31.1-27-61.4-43-91.1c-29.3-54.4-46.6-102.3-64.4-147.9
												c-14.4-36.7-26.7-85.4-31-111.6c2.8,6,5.5,12,7.6,17.9c3.7,10.4,6.1,21.3,8.1,31.8c1.2-5.6,1.3-11.7,0.5-17.7
												c3.8,10.9,7.7,21.7,11.5,32.6c1.2-5.3,1.1-11.2-0.3-17c3.2,11.5,6.4,23.1,9.6,34.6c0.1-8.7,0.1-17.3,0.2-26
												c3.2,11.8,6.3,23.6,10.4,35.3c0.6-5.5,0.3-11.1-0.6-16.8c3.8,11.4,7.2,22.9,10.3,34.5c1.4-8.3,1.9-17,1.3-25.8
												c5.6,12.5,10.2,25.2,14.9,37.9c-0.2-12.4-2.6-25.2-7-37.6c4.8,8,9.6,16.1,14.5,24.1c-1.2-15.3-13.6-29.4-18.8-44.7
												c3.8,6.4,8.9,12.2,14.8,16.8c-0.7-4.1-3.4-8-6-11.5c-5.2-7-10.6-13.9-16.2-20.5c6.7,5.3,13.3,10.7,20,16
												c-8.5-11.9-21.9-20-29.1-32.5c6.8,5.1,13.8,10,20.9,14.5c-9.4-14.5-27.7-21.9-36.1-36.8c6.3,2.1,12.6,4.9,18.5,8.4
												c-5.3-9.1-13.6-16.6-22.6-21.9c-1.8-1-3.5-1.9-5.3-2.8c7,1.7,14.1,3.7,21.1,5.7c-4.7-4.4-9.7-8.2-15-11.3
												c9.2,3.3,18.3,7.5,27.4,11.6c-4.7-4.2-9.5-8.4-14.2-12.6c9.7,4.9,18.9,12.6,26.1,22.2c-2.6-5.5-5.7-10.7-9.2-15.6
												c4.8,3.4,9,7.9,13.2,12.4c1.7,1.8,3.3,3.6,5,5.3c-0.2-3.5-1.8-6.9-3.9-9.9c-2-2.9-4.6-5.3-7-7.7
												c8.7,4.4,16.8,11.1,23.5,19.4c-2.7-7.2-8.3-12.8-13.6-18c9.6,5.2,18.3,13.3,26.8,21.2c-3.9-5.9-8.4-11.3-13.3-16.1
												c1.9,1.6,3.7,3.2,5.5,5c3.9,3.7,7.6,7.6,11.2,11.7c-2.6-11.9-10.5-23.1-20.2-28.7c5.4,2.4,10.7,4.8,16.1,7.1
												c-6.9-7.8-15.9-12.8-24.6-13.4c5.5-0.1,11.1-0.3,16.6-0.4c-8.8-3.7-17.8-4.4-26.7-5.1c2.3-1.2,4.7-1.8,7.3-2.1
												c1.9-0.2,5.1-1.9,7-1.4c-8.2-2.3-16.3-2.4-24.3-2.6c3.4-1.8,6.9-3.3,10.7-4.3c-9.2-1.2-18.2-0.2-26.5,2.5
												c-0.7-0.1-1.4-0.3-2.1-0.5c4.8-3,10.1-5.2,15.7-6.5c-11-2.1-21.5,0.6-31.5,4.2c3.9-2.8,8.1-5,12.6-6.5
												c-8.7-1.3-17.3,2.7-24.9,5.4c-1.1,0.4-2.3,0.8-3.4,1.3c4.4-5.4,10.8-9.1,18.5-10.3c-5.1-0.3-10.2-0.7-15.4-1.2
												c9.1-3.4,20.1-3.8,31-1.1c-7.4-2.5-14.8-4.6-22.2-6.2c14.1-1.1,29.6,3.8,44.4,8.6c-5.6-3.8-11.6-6.8-17.8-8.8
												c12.8,2.1,25.4,8.2,37.5,14.7c-5.2-5.5-14.7-14-22.2-16.2c5.1,1.5,9.8,4.5,14.4,7.6c-2.9-3-4.2-6.9-6.6-10.1
												c-2-2.7-4.8-4.9-7.7-6.8c-8.3-5.4-18-8.3-26.9-8.2c2.8-1.3,5.7-2.6,8.5-3.9c-11-1.4-21.6,0-30.2,4.3
												c2.9-4.9,7.9-8.5,14-10c-9.5-2.4-18.2,1.3-24.2,6.5c-7.1,6.1-12.6,15.1-14.5,25.2c-1.7-5.2-3.6-10.4-5.9-15.5
												c-4.4-9.6-10.6-18.8-18.4-24.9c1.4,4.4,2.7,8.9,4.1,13.4c-4.7-6-7.5-12.9-15.3-16.6c4,3.8,7.5,8.4,10.2,13.4
												c-4.4-6.1-10.5-10.4-16.7-12.7c-6.2-2.4-12.4-2.9-18.4-2.7c4.4,1.7,8.7,3.8,12.9,6.2c-4.9-1.2-9.2-0.7-13.6,0.4
												c-2.3,0.6-4.5,1.4-6.7,2.5c-1.2,0.6-3.8,3.2-5.1,3.1c4.4,0.5,8.7,0.2,12.8-0.8c-9.2,1.7-16.9,8.2-20.7,17.6
												c3.8-0.3,7.4-2.1,10-4.9c-7.7,6.8-10.2,20.2-6.1,32.8c-4.4,2.6-8.4,5.9-11.5,10c3.1-1.5,6.3-2.7,9.7-3.8
												c-7,4.4-10.5,12.8-13.9,20.4c3.5-2.5,7-5.1,10.5-7.7c-3.6,6.3-4.7,14.3-3,22.3c1.2-2.4,2.3-4.7,3.5-7
												c1.1,11.4,5.3,23.2,12.1,33.6c-3-10.4-4-23.5,0.9-31.9c0.5,5.6,1.4,11.3,2.7,17c-1.7-10.5-1.5-20.9,0.6-30.5
												c1.5,5.8,2.7,11.6,3.6,17.4c-0.6-8.8,1.4-17.3,5.7-24.2c0.8,5.6,1.7,11.1,2.5,16.6c-0.4-9.3,3.2-17.9,9.5-23.2
												c-2.2,3.9-2.8,8.9-1.8,13.9c2.5-5.4,6.3-9.9,11.1-13c-2.1,3.1-3.2,7.1-2.9,11.2c1.9-3.3,5.4-5.3,9.2-6.2
												c0.8-0.2,1.6-0.3,2.5-0.4c2.7,1.2,5.3,1.4,7.6,0.7c-7,1.7-13.7,4.3-20.1,7.7c4.2,0.2,8.3-0.3,12-1.8
												c-8.1,2.2-15.7,6-22.6,11.2c2.8-0.3,7.5-1.8,12.6-2c-12,5.4-21.5,11-29.6,23.9c5-5.3,11-9,17.5-11
												c-6.9,5.7-13.4,12.1-19.5,19.4c4.4-3.3,8.7-6.6,13.1-9.9c-6.9,7.3-13.9,14.8-17.5,26.8c3.2-2.1,6.2-4.7,8.9-7.8
												c-1.6,6.3-2.4,13.3-2.6,20.7c-0.1,2.5-0.7,4.5-0.6,7c0.1,1.9,0.6,4.2,1,6.2c0.3,1.3,1.4,4.5,1.4,5.6
												c0.9-14.7,3.5-28.1,7.7-39.7c-0.9,9.2-1.9,18.9,0.6,29.6c1.3-12.7,2.7-25.7,6.7-35.8c-1.3,8.7-1.3,18.4-0.2,28.6
												c2.2-12.8,5.1-25,8.7-36.5c-1.7,6.5-2.5,14-2.3,22c0,2,0.3,4.5,1.4,6.3c1.9-11.4,4.3-22.2,7.5-32.3
												c-1.3,7.2-1.9,15.1-1.7,23.4c1.9-0.9,2.6-4,3.2-6.9c1.6-7.8,3.4-15.6,7.1-20.7c-1.4,5-2.5,10.5-3.2,16.2
												c-0.2,1.6-0.3,3.8,0.8,5.4c3.4-9.6,6.8-19.2,10.1-28.8c-0.5,5.8-1,11.7-1.5,17.6c-3.3,9.1-5.3,18.9-4.9,29.2
												c0.8-5.4,2.3-11,6.3-14.2c-4.5,12.7-4.6,27.7-0.4,42.2c0.9-4,1.8-8.1,2.7-12.1c-0.4,7.4,1.6,15.2,4.9,22.7
												c3.2,7.4,7.6,14.4,12.1,21.2c0.9,1.4,1.9,2.9,3.3,3.9c0.3-0.3,0.4-0.7,0.4-1.1c1,1.6,2,3.2,3.1,4.6
												c2.3,3.3,4.8,6.8,8.1,9c-8.6-13.9-13.3-29.5-17.9-44.7c-1.6-5.3-3.2-10.8-3.1-16.1c4.1,14.7,9.5,29.6,18.8,42.4
												c-5-23.3-15.1-46.1-20.7-69.4c6.6,15.3,13.7,30.4,21.1,45.4c-1.2-21.5-17.4-42.6-20.1-64.4c3.2,7.6,6.6,15.2,10.4,22.6
												c1.5,2.9,3.2,6,6,7.6c-3.3-10.5-6.6-20.9-9.9-31.4c2.5,4.3,5,8.7,8.5,12.3c-0.2-2.7-0.4-5.5-0.6-8.2
												c4.8,30.2,13.6,61,23.4,90.5c17,51.8,39,102.9,64.4,152.5c28.8,56.4,53.1,115.1,64.6,174.8c6.7-0.9,6.5-4.5,12.1-7.7
												C1391,887.3,1380.7,855.6,1379.7,851.9z M1144.9,410.1c4.5-0.5,9.3,0,14,1.4c-7.5,0.3-14.6,2.4-20.7,5.9
												c6.3-11.1,14.3-20.7,23.8-28.1c-4.4,3.2-7.8,7.6-10.1,13c0.6,1.1,1.9,0.5,2.5-0.2c6.3-6.6,15.2-10,24.6-9.5
												c-4.9,2.3-9,6-12,10.8c-1.6-0.2-3.2-0.2-4.8-0.2c5.3,0.3,10.8,2.1,15.8,5.1C1166.4,406.1,1155,406.8,1144.9,410.1z
												 M1184.2,407.4c-5.5-1.7-11.1-3.3-16.6-4c2.8,0.1,5.4-0.6,8.2-0.9c7.9-0.6,16.8,3.5,23.4,10.7
												C1194.4,410.7,1189.3,409,1184.2,407.4z M1203.7,457.2c-0.1,0.6-0.2,1.2-0.3,1.8c-0.4,0.7-0.7,1.4-1.1,2.1
												C1202.8,459.8,1203.2,458.5,1203.7,457.2z"/>
										</g>
									</g>
								</g>
							</g>
						</g>
						<g>
							<g>
								<g>
									<defs>
										<polygon id="SVGID_00000080921415189653535380000010934769310768759169_" points="746.5,903.9 1101.2,394.5 1319,903.9 
																					"/>
									</defs>
									<clipPath id="SVGID_00000075126741246661336800000009401123005252645306_">
										<use xlink:href="#SVGID_00000080921415189653535380000010934769310768759169_"  style="overflow:visible;"/>
									</clipPath>
									
										<linearGradient id="SVGID_00000002367110180232253110000012643894938147291557_" gradientUnits="userSpaceOnUse" x1="1028.2434" y1="-1526.7999" x2="1028.2434" y2="-1892.6" gradientTransform="matrix(1 0 0 1 0 2382)">
										<stop  offset="0" style="stop-color:#DD6328"/>
										<stop  offset="1" style="stop-color:#D7792A;stop-opacity:0.4"/>
									</linearGradient>
									
										<path style="opacity:0.25;clip-path:url(#SVGID_00000075126741246661336800000009401123005252645306_);fill:url(#SVGID_00000002367110180232253110000012643894938147291557_);enable-background:new    ;" d="
										M1307,810H979.5v-8.4H1307V810z M1324.7,755.3H933.6v10.4h391.1V755.3z M1295.4,722.8H1022v5.2h273.4V722.8z M1012.8,722.8
										H911.3v5.2h101.5V722.8z M1263.5,677.3H990.1v5.2h273.4V677.3z M1169.5,617.3H896.1v5.2h273.4V617.3z M1365.5,575.8h-273.4
										v5.2h273.4V575.8z M1319,538.3h-273.4v5.2H1319V538.3z M1357.5,489.4h-273.4v5.2h273.4V489.4z M1126.7,850H853.3v5.2h273.4
										V850z M1432.1,850h-273.4v5.2h273.4V850z M951.8,801.6H624.3v8.4h327.5V801.6z"/>
								</g>
							</g>
						</g>
					</g>
				</g>
			</g>
			<g>
				<g>
					<defs>
						<path id="SVGID_00000072963156836826764460000010827306956933218197_" d="M1400.5,1120H599.9c-33.5-23.7-112.9-40.2-170.3-50
							c-59.6-10.2-118.5-24.2-175.9-43.5c-132.8-44.4-153.1-96.9-145.1-130.1c10.6-43.7,73.8-57.2,114.7-70.1
							c89.5-28.3,161.2-54.2,228-104.6c134.2-101.2,173.8-220,292.9-472.8C786.6,159,875,29.4,990,0h410.5V1120L1400.5,1120z"/>
					</defs>
					<clipPath id="SVGID_00000119118898153608966540000006729710845890248889_">
						<use xlink:href="#SVGID_00000072963156836826764460000010827306956933218197_"  style="overflow:visible;"/>
					</clipPath>
					<g style="clip-path:url(#SVGID_00000119118898153608966540000006729710845890248889_);">
						<g>
							<path class="st45" d="M1349.4,710.8c10.4,29.2,19.9,58.9,25.7,89.5c2.7,14.3,4.5,28.7,5.4,43.2c0.2,3.6,4.5,34.7,0.6,36.7
								c-6.3,3.2-6.7,6.7-13.6,7.6c-0.2-58.6-13.4-116.2-31.5-171.5c-15.9-48.7-28.2-98.8-35.3-149.6c-5.2-36.5-8.5-75-4.6-111.7
								c0.8-7.2,3.3-16,10.3-17.1c-5.6,0.9-3.7,76.3,6.9,127.9C1322.3,610.4,1330.5,657.4,1349.4,710.8z"/>
						</g>
						<g>
							<path class="st45" d="M1282.3,465.4c3.6-4.2,7.2-8.4,10.8-12.6c3.2-3.7,6.6-7.2,8.9-12.5c0.2-0.5,0.4-1,0.4-1.6
								c0-0.7-0.3-1.4-0.6-2c-2.5-4.4-6.2-5.9-9.6-6.7c-7.9-1.8-15.9-1.3-23.5,1.4c2.5,1.3,5.2,1.5,7.8,0.8
								c-7.3,1.7-14.5,4.3-21.5,7.6c4.2,0.2,8.3-0.3,12.4-1.7c-8.5,2.1-16.8,5.8-24.7,11c2.9-0.3,7.8-1.7,12.9-2
								c-13,5.3-23.5,10.7-34.1,23.4c6.1-5.2,12.7-8.8,19.6-10.8c-8,5.6-15.8,11.9-23.2,19c5-3.2,10-6.5,15-9.7
								c-8.3,7.1-16.7,14.5-22.6,26.3c3.6-2,7.1-4.6,10.4-7.7c-2.8,6.2-4.9,13-6.5,20.3c-0.6,2.4-1.6,4.4-1.9,6.9
								c-0.3,1.9-0.2,4.1-0.2,6.1c0,1.3,0.6,4.4,0.3,5.5c3.7-14.4,8.8-27.6,15.2-38.9c-2.7,9-5.4,18.6-5.1,29.1
								c3.8-12.5,7.6-25.2,13.5-35.1c-2.9,8.5-4.8,18.1-5.7,28c4.7-12.6,9.9-24.6,15.6-35.8c-2.9,6.4-5.1,13.7-6.5,21.6
								c-0.3,2-0.6,4.4,0.2,6.3c4-11.2,8.6-21.8,13.6-31.8c-2.6,7.1-4.7,14.8-6.1,22.9c2-0.8,3.3-3.9,4.5-6.8
								c3.1-7.6,6.3-15.3,11-20.2c-2.4,5-4.5,10.3-6.3,15.8c-0.5,1.6-1,3.8-0.2,5.3c5.2-9.5,10.4-18.9,15.6-28.3
								c-2.1,7.5-4.2,14.9-6.3,22.4c4.7-8.3,9.5-16.7,14.2-25c-1.6,4.5-3.2,9-4.8,13.6c3.6-5.1,7.3-10.1,10.9-15.2
								C1284.1,457.8,1282.8,461.4,1282.3,465.4z"/>
						</g>
						<g>
							<path class="st45" d="M1300.4,446.2c2.6,8.9,5.6,18.4,7.1,27.5c1.7,10.2,2.1,20.9,2,31.2c2.3-5.5,3.6-11.4,3.9-17.4
								c1.8,10.7,3.6,21.4,5.3,32c2.2-5.2,3.2-11,3-16.7c1,11.3,2,22.7,3,34c1.7-8.5,3.4-17,5.2-25.5c0.9,11.6,1.9,23.2,3.7,34.7
								c1.6-5.3,2.5-10.9,2.5-16.5c1.6,11.2,2.9,22.5,3.8,33.8c3-8.2,5.1-16.7,6.2-25.3c3.2,12.2,5.5,24.7,7.7,37.2
								c2.1-12.2,2.2-24.7,0.1-36.9c3.3,7.9,6.6,15.8,9.9,23.6c1.8-15.1-8-28.9-10.3-43.8c2.6,6.3,6.6,12,11.6,16.5
								c0.1-4-1.9-7.8-3.8-11.3c-3.8-6.9-8-13.6-12.3-20.2c5.7,5.2,11.3,10.5,17,15.7c-6.3-11.6-18.1-19.6-23-31.9
								c5.8,5,11.9,9.8,18.2,14.2c-6.6-14.2-23.5-21.5-29.1-36.1c5.9,2,11.6,4.8,16.9,8.2c-3.6-9-10.4-16.3-18.4-21.5
								c-8-5.1-17.1-8.2-26.3-10.4c-1.7-0.4-3.5-0.8-5.2-0.7c-1.4,0-3.5,1.3-4.7,0.7"/>
						</g>
						<g>
							<path class="st45" d="M1299.2,432.1c-6.6-19,5-39.7,20.2-50.7c7.1-5.1,16.4-8.8,25.5-6.4c-6.4,1.5-12,5-15.9,9.8
								c9.4-4.2,20.3-5.7,31-4.2c-3.1,1.3-6.2,2.5-9.2,3.8c8.9-0.2,18.1,2.7,25.3,8c2.5,1.9,4.9,4,6.4,6.7c1.9,3.2,2.4,7,4.7,10
								c-4-3-8.2-6-12.9-7.4c7.1,2.1,15,10.5,19.1,15.9c-10.8-6.4-22.3-12.3-34.7-14.5c5.8,2,11.3,4.9,16.1,8.7
								c-13.9-4.7-28.4-9.5-42.8-8.5c7.1,1.6,14.2,3.6,21.1,6.1c-10.4-2.6-21.5-2.3-31.2,1.1c5,0.5,10.1,0.9,15.1,1.2
								c-12.8,1.9-23.9,10.4-28.1,21.6c-0.3,0.7-1.2,1.7-1.8,1"/>
						</g>
						<g>
							<g>
								<path class="st45" d="M1302.6,432.1c-0.5,2.2-0.9,4.4-1.4,6.5c0.8-0.3,1.7-0.5,2.5-0.7L1302.6,432.1z"/>
							</g>
							<g>
								<path class="st45" d="M1301.1,438.6c-5.7,1.9-10.4,6.4-14.3,11.3l0.8-2.9c-3,3.4-5.9,6.9-8.7,10.5
									c-10.7,13.9-20,29.6-22.7,47c1.9-5.3,4.4-10.8,9-13.9c-6.9,12.5-9.9,27.1-8.4,41.4c1.7-3.9,3.3-7.9,5-11.9
									c-1.8,7.3-1.3,15,0.6,22.2c1.9,7.2,4.9,14.1,8.1,20.8c0.7,1.4,1.4,2.9,2.6,3.9c0.3-0.3,0.5-0.7,0.6-1.1
									c0.7,1.5,1.4,3.1,2.2,4.6c1.7,3.3,3.5,6.6,6.4,8.9c-6-13.7-7.7-28.9-9.5-43.8c-0.6-5.2-1.2-10.6,0-15.8
									c1.3,14.4,3.8,29,10.7,41.7c-0.5-22.8-6.3-45.3-7.5-68.1c3.7,15,7.9,29.9,12.5,44.6c3-21.1-9.3-41.8-7.8-63.1
									c1.7,7.5,3.7,14.9,6.2,22.2c0.9,2.8,2.1,5.8,4.5,7.5c-1.3-10.3-2.6-20.6-3.9-30.9c1.7,4.2,3.4,8.5,6.1,12.1
									C1295.2,469.9,1297.8,454.2,1301.1,438.6z"/>
							</g>
						</g>
						<g>
							<path class="st45" d="M1302.4,431.8c0.1-3.9-0.2-7.9-0.6-11.8c-1-9.8-1.9-19.7-4.5-29.1s-7-18.4-13.7-24.5
								c0.5,4.4,1.1,8.8,1.6,13.2c-3.5-5.9-5-12.6-12.1-16.3c3.3,3.8,5.9,8.2,7.6,13.2c-3.2-6-8.5-10.2-14.3-12.5
								c-5.7-2.3-11.9-2.9-17.9-2.6c4,1.6,8,3.7,11.7,6.1c-4.6-1.2-9.1-0.7-13.7,0.4c-2.4,0.6-4.8,1.4-7.1,2.4
								c-1.3,0.6-4.4,3.2-5.7,3.1c4.3,0.4,8.7,0.2,12.9-0.8c-9.5,1.7-18.4,8.1-24,17.3c3.9-0.3,7.7-2,10.9-4.8
								c-9,6.7-14.1,20-12.3,32.3c8.4-11,18.4-20.5,29.3-27.9c-5,3.1-9.3,7.5-12.6,12.7c0.4,1.1,1.8,0.5,2.6-0.2
								c7.6-6.5,17.1-9.8,26.5-9.4c-5.3,2.2-10.2,5.9-14.1,10.7c3.1,0.3,6.1-0.6,9.2-0.8c8.6-0.7,17.3,4,22.6,12
								c3.4,5.2,5.2,11.5,7.1,17.7"/>
						</g>
						<g>
							<path class="st45" d="M1391.4,455.4c1.6,1.6,3.1,3.2,4.5,4.9c3.2,3.6,6.2,7.4,9,11.5c-0.4-11.7-6.2-22.7-14.7-28.1
								c4.9,2.3,9.8,4.7,14.7,7c-5.3-7.7-13.4-12.6-22-13.2c5.6-0.1,11.1-0.3,16.7-0.4c-8.1-3.7-17-4.4-25.7-5
								c2.5-1.1,5.1-1.8,7.7-2.1c2-0.2,5.5-1.9,7.3-1.4c-7.7-2.3-15.8-2.3-23.8-2.6c3.8-1.8,7.6-3.2,11.5-4.2
								c-8.9-1.2-18.2-0.2-27,2.5c-0.7-0.1-1.4-0.3-2.1-0.5c5.4-3,11.1-5.1,16.9-6.3c-10.7-2-21.7,0.6-32.2,4.1
								c4.4-2.7,9.1-4.9,13.9-6.3c-8.4-1.3-17.8,2.6-25.9,5.3c-6.2,2.1-12.6,4.4-18.2,8.2c-0.1,0.1-0.3,0.1-0.4,0.2
								c-0.5,0.3-0.9,0.6-1.4,1c-4.5,3.1-8.7,6.9-12.8,10.7l14.4,5.7c3.5-1.2,7.2-0.7,10.7-0.1c11.3,1.9,22.3,5.1,33.3,8.4
								c-3.8-4.4-8.2-8.1-12.8-11.1c8.6,3.3,16.9,7.4,25.2,11.4c-3.9-4.1-7.9-8.2-11.8-12.3c8.8,4.8,16.4,12.4,21.9,21.8
								c-1.5-5.4-3.6-10.5-6.2-15.3c4.1,3.3,7.5,7.8,10.8,12.2c1.3,1.8,2.6,3.5,4,5.2c0.4-3.4-0.5-6.9-2-9.7
								c-1.5-2.9-3.6-5.2-5.6-7.6c7.8,4.3,14.7,10.9,19.8,19c-1.3-7.1-5.9-12.6-10.2-17.7c8.6,5.1,15.8,13,22.7,20.8
								C1398.8,465.5,1395.4,460.2,1391.4,455.4z"/>
						</g>
						<g>
							<path class="st45" d="M1297,427.8c-1.9-5.7-6.3-10.3-11.3-13.6c-5-3.2-10.7-5.2-16.3-7c-6.9-2.3-14.1-4.4-21.4-4.2
								c5.2,0.3,10.4,2,14.8,5c-11.1-2.1-22.6-1.4-33.4,1.8c4.6-0.5,9.3,0,13.7,1.4c-13.2,0.5-26.1,6.2-35.5,15.7
								c3.4-1.4,6.9-2.7,10.4-3.7c-7.9,4.4-12.9,12.6-17.8,20c4-2.5,8-5,11.9-7.6c-4.8,6.2-7.4,14-7.2,21.9c1.6-2.3,3.2-4.6,4.8-6.9
								c-1.1,11.3,0.9,22.8,5.7,32.9c-1-10.2,0.5-23,6.9-31.3c-0.6,5.5-0.8,11.1-0.5,16.6c0.3-10.3,2.5-20.5,6.4-30
								c0.4,5.7,0.5,11.4,0.2,17.1c1.2-8.7,4.8-17,10.3-23.7c-0.2,5.5-0.5,10.9-0.7,16.4c1.4-9.1,6.5-17.6,13.9-22.8
								c-2.9,3.9-4.5,8.8-4.4,13.7c3.5-5.3,8.2-9.7,13.6-12.7c-2.7,3.1-4.5,6.9-5.1,11c2.5-3.2,6.4-5.2,10.3-6
								c3.9-0.8,8.1-0.6,12.1-0.1c7.3,1,14.8,3.3,19.6,9.1"/>
						</g>
					</g>
				</g>
			</g>
			<g>
				<g>
					<defs>
						<path id="SVGID_00000036216205107376333370000013713744803444829586_" d="M1400.5,1120H599.9c-33.5-23.7-112.9-40.2-170.3-50
							c-59.6-10.2-118.5-24.2-175.9-43.5c-132.8-44.4-153.1-96.9-145.1-130.1c10.6-43.7,73.8-57.2,114.7-70.1
							c89.5-28.3,161.2-54.2,228-104.6c134.2-101.2,173.8-220,292.9-472.8C786.6,159,875,29.4,990,0h410.5V1120L1400.5,1120z"/>
					</defs>
					<clipPath id="SVGID_00000110463562878269776000000009911246224572602507_">
						<use xlink:href="#SVGID_00000036216205107376333370000013713744803444829586_"  style="overflow:visible;"/>
					</clipPath>
					<g style="clip-path:url(#SVGID_00000110463562878269776000000009911246224572602507_);">
						<g>
							
								<linearGradient id="SVGID_00000096051537197653003280000016329087566391989638_" gradientUnits="userSpaceOnUse" x1="77.2899" y1="-1377.3958" x2="1564.6102" y2="-1377.3958" gradientTransform="matrix(1 0 0 1 0 2382)">
								<stop  offset="0" style="stop-color:#FAD779"/>
								<stop  offset="0.2843" style="stop-color:#FAC664"/>
								<stop  offset="0.5966" style="stop-color:#F9B853"/>
								<stop  offset="0.8118" style="stop-color:#F9B24D"/>
							</linearGradient>
							<path style="fill:url(#SVGID_00000096051537197653003280000016329087566391989638_);" d="M431.4,1135.6
								c-109.2-3.7-219.8-33.8-315.3-88.3c-18.1-10.3-37.7-24.7-38.8-45.6c-1.1-19.5,14.9-35.8,32-45c23.3-12.5,49.9-16.8,75.7-22.1
								c137.4-28.4,270.8-93.1,410.7-81.9c51.1,4.1,100.8,18.3,151.5,26c26.2,4,141.9,11.7,173.3,14.9c106.4,10.7,213.5,5.6,319.8-3
								c91.5-7.3,188.7-35.6,275.1,10.7c12.3,6.6,24.1,14.7,32.5,25.9c17.3,23,17.2,54.3,16.4,83.1c-0.3,11.7-0.7,23.9-6,34.4
								c-4.6,9.4-12.6,16.5-19.7,24.2c-18.7,20.3-32.6,46.5-57.1,59.2c-21.7,11.3-46.7,9.4-70.2,7.8c-24.8-1.6-48.4,2.4-72.9,2
								c-56.5-0.7-113.3-5-169.6,1.9c-123.1,14.9-244.8,26.1-367.5,10.4C678.9,1134.7,554.8,1139.8,431.4,1135.6z"/>
						</g>
						<g>
							
								<linearGradient id="SVGID_00000147913811520347539670000008453181223581145503_" gradientUnits="userSpaceOnUse" x1="367.9745" y1="-1075.8851" x2="854.9664" y2="-1562.877" gradientTransform="matrix(1 0 0 1 0 2382)">
								<stop  offset="0" style="stop-color:#D9A15C;stop-opacity:0.2"/>
								<stop  offset="0.3219" style="stop-color:#DF9043;stop-opacity:0.2966"/>
								<stop  offset="0.7512" style="stop-color:#E57D28;stop-opacity:0.4253"/>
								<stop  offset="1" style="stop-color:#E7751D;stop-opacity:0.5"/>
							</linearGradient>
							<path style="fill:url(#SVGID_00000147913811520347539670000008453181223581145503_);" d="M1157.3,1121.5
								c-110.5-44.6-311.4-68.9-448.1-78.8c-9.6-0.7-19.1-1.5-28.7-2.5c-43.2-4.5-86.4-9.4-129.5-14.6c-20.4-2.5-66.5-16-75.6-34.5
								c-22.7-46.6,69.7-93,92.1-109.3c9.9-7.2,15.7-24.9-2.8-30.2C436,851,312.2,908.4,185,934.7c-25.9,5.3-52.4,9.6-75.7,22.1
								c-17.1,9.2-33.1,25.5-32,45c1.2,20.9,20.8,35.3,38.8,45.6c95.5,54.5,206.1,84.6,315.3,88.3c123.4,4.2,247.5-0.9,370,14.7
								c111.9,14.3,222.9,6.2,335-6.6C1143.6,1130.8,1165.7,1133,1157.3,1121.5z"/>
						</g>
					</g>
				</g>
			</g>
			<g>
				<g>
					<defs>
						<path id="SVGID_00000167359061614478408540000017445598403917165716_" d="M1400.5,1120H599.9c-33.5-23.7-112.9-40.2-170.3-50
							c-59.6-10.2-118.5-24.2-175.9-43.5c-132.8-44.4-153.1-96.9-145.1-130.1c10.6-43.7,73.8-57.2,114.7-70.1
							c89.5-28.3,161.2-54.2,228-104.6c134.2-101.2,173.8-220,292.9-472.8C786.6,159,875,29.4,990,0h410.5V1120L1400.5,1120z"/>
					</defs>
					<clipPath id="SVGID_00000121247010516758823320000005659611832619383963_">
						<use xlink:href="#SVGID_00000167359061614478408540000017445598403917165716_"  style="overflow:visible;"/>
					</clipPath>
					
						<linearGradient id="SVGID_00000021092951217433087560000014491809346479066003_" gradientUnits="userSpaceOnUse" x1="556.2667" y1="-1364.7057" x2="1372.3434" y2="-1364.7057" gradientTransform="matrix(1 0 0 1 0 2382)">
						<stop  offset="0" style="stop-color:#D98238;stop-opacity:0.4"/>
						<stop  offset="0.5161" style="stop-color:#E27B28;stop-opacity:0.5032"/>
						<stop  offset="1" style="stop-color:#E7751D;stop-opacity:0.6"/>
					</linearGradient>
					
						<path style="clip-path:url(#SVGID_00000121247010516758823320000005659611832619383963_);fill:url(#SVGID_00000021092951217433087560000014491809346479066003_);" d="
						M856,1033.5c0.4-2.8,4-4.8,4.1-7.8c0.1-2.4-2-5.4-4.5-8.2c-2.1-2.3-4.6-4.7-8-6.7c-2.3-1.4-5-2.6-7.6-3.8
						c-5.3-2.4-10.7-4.9-16-7.3c-2.4-1.6-4.9-3.1-7.3-4.3c-6.3-3.2-14.1-5.8-20.3-5.9c-8.1-0.1-11.4,3.9-18.1,5.2
						c-13.3,2.7-33.8-9.5-48.5-15.9c-3.1-1.3-6.4-2.7-9.3-2.8c-5.9-0.1-3.7,4.9-2.3,8.5c4,10.4-12.7,21.4-32.7,17.2
						c-10.7-2.3-20.9-8.8-26.9-15c-3.7-3.8-8.2-8.7-14.7-9.8c-3.5-0.6-5.9,0.3-8.3,1c-4.6,1.3-14.5-0.2-18.2,1.4
						c-1,0.4-1.5,0.7-1.7,1c-0.4,0.7,1.7,1.3,3.6,3.6c2.2,2.7,9,5.3,12.1,6.3c5.9,1.8,13.9,1.6,18.9,4.5c10.3,6,18.9,12.2,28.7,16.6
						c-3.6,2.5-6.7,5.7-12.3,8.7c-4.8,2.5-10.2,4-16.2,4.8c-7.4-8.6-14.1-16.4-24.2-23.8c-3-2.2-5.1-3.7-7.4-5
						c-0.4-0.6-0.9-1.3-1.5-1.9c-4.3-4.6-11.8-8.7-18.9-12.6c-5.9-3.3-11.9-6.7-18.6-9.1c-0.6-0.2-1.3-0.5-1.8-0.8
						c-0.5-0.4-0.6-0.8-0.9-1.2c-0.7-0.9-2.6-1.6-4.2-1.9c-1.6-0.2-2.9,0-4.2,0.1c-2.2,0.3-4.8,0.4-6.7,0.9
						c-1.7,0.4-3.6,0.6-4.8,1.4c-0.2,0.1-0.3,0.2-0.5,0.4c-0.5,0.6-0.7,1.3-0.5,2c0.1,0.4,0.3,0.8,0.8,1.3c1,0.9,3,1.5,4.4,1.4
						c0.7,1,2.7,2.8,3,2.8c0.1,0,0.7,0,1.4,0c0.8,1,1.3,2.5,2.5,3.5c0.6,0.5,1.7,0.5,2.6,0.6c1.1,0.2,1.8,0.8,2.7,1.4
						c1.4,0.9,3.2,1.9,4.9,2.1c1.2,0.1,3.2-0.4,4.6-0.3c0.6,0.4,1.1,0.8,1.6,1.3c0,0.1,0,0.1,0,0.2c0,0.2-0.6,0.5-0.8,0.7
						c-0.6,0.9-0.7,1.9-0.7,2.9c0.2,5.5,4.6,12,8.8,17.9c0,0-2.3,3.2-3.9,5.1c-0.6,0.8-1.3,1.6-1.8,2.5c-0.3,0.5-0.5,0.9-1.1,1.2
						c-1.2,0.6-3.3,0.4-4.8,0.9c-0.4,0.1-0.7,0.3-0.8,0.6c0,0.2,0,0.4,0.1,0.6c0.2,0.4,0.4,0.8,0.6,1.2c0,0.1,0.1,0.3,0.3,0.4
						c0.3,0.2,0.8,0.2,1,0l0.1-0.1c0.1,0,0.3,0.1,0.4,0.1c12.2,3.4,24.8,6.7,37.2,9.2c3.4,4.9,6.2,9,7.7,10.9
						c5.1,6.5,10.1,13,14.8,19.6c0.9,1.2,1.8,3.1,4.1,4.1c1.7,0.7,3.6,0.5,5.1,0.6l0,0c2.2,2.4,4,4.4,3.8,4.7
						c-0.4,0.6-3.1,1.3-4.9,1.3c-1.9,0-3.6,0.8-1.9,1.9c5.6,0.2,15.1,0.2,15.4-0.3c0.1-0.1-2.9-3.8-6-7.4c1.3,0,2.7,0,4,0
						c5,0,10,0.1,15,0.1c1.2,0.8,2.4,1.7,3.6,2.5c0.4,0.3,0.8,0.6,1,0.9c0.8,1.2-1.2,1.7-3.1,1.6c-1.9,0-3.6,0.8-1.9,1.9
						c5.7,0.2,17.3,1.4,14.8-0.6c-2-1.6-5.2-4-8.3-6.3c0.4,0,0.9,0,1.3,0c0.6,0,1.3,0,1.5-0.3c0.2-0.2,0-0.6-0.3-0.9
						c-4.5-7-9.3-12.8-16.5-19.9c-3.4-3.3-6.3-6.4-9.1-9.5c4.9,0,9.6-0.2,14.1-0.8c16.4-2.2,25.9-8.3,23.6-18.2
						c5.1,0.6,10,0.8,15.1,1.7c1.1,0.2,2.3,0.4,3.4,0.6c18.1,14.2,27.2,30.1,36.9,44.4c1.3,1.9,2.5,3.8,2.9,5.5s-0.3,3.3-2.6,3.8
						c-1.2,0.3-2.7,0.3-3.7,0.7c-1,0.4-1.2,1.5,0.3,2.3c1.3,0.7,2.9,0.8,4.1,0.8c4.1,0,8.2-0.1,12.4-0.2c0.7,0,1.5,0,1.9-0.3
						c0.4-0.4,0-1-0.3-1.5c-2.4-3.8-4.7-7.6-7-11.4c-2.7-4.4-2.8-7.5-3.1-11.1c0.8,0.7,1.9,1.3,2.9,1.9c6.5,3.8,23.1,11.5,22,16
						c-0.5,1.5-3.5,2.4-1.6,4.3c5,0.8,9.5,0.6,12.7-0.6c0.4-0.1,0.8-0.3,0.9-0.6c0.2-0.7-1-1.7-2.2-2.5
						c-7.1-5.3-14.1-10.6-21.2-15.9c-2.5-1.9-5.1-3.8-6.3-5.8c-2-3.1-0.5-5.6,0-8.2c0.1-0.7,0.1-1.5,0-2.3
						c7.8-0.1,15.5,0.3,21.8-1.6c5.6-1.6,14.8-6.4,24.4-1.7c10.5,5.2,21.1,10.5,31.6,15.8c2.2,1.1,4.5,2.3,6,3.6
						c4.6,4.1,3.4,12.7,2.7,16.1c-0.1,0.4-0.2,0.7-0.6,1c-0.5,0.3-1.5,0.4-2.4,0.5c-3.5,0.5-5,2.7-3.4,5.3
						c6.8,0.4,13.3,0.4,19.3-0.1c-2.7-3-4.3-5.6-4.4-8.2c-0.1-3.7,2.8-6.4,1.5-10.4c-0.8-2.3-2.9-4.7-4.9-7
						c-2.4-2.8-4.3-5.4-5.7-7.8c9.7,4.6,23.1,11,25,12.5c3.2,2.4,10.2,16.4,9.3,16.5c-0.9,0.1-7.5,1.8-2.6,6.5l10.9-1.1l0.5-3.4
						l-7.3-18.3L856,1033.5z M598.9,1016.3c1.4-1.1,2.7-2.3,3.2-3.8c0.4-1.1-0.7-2.8-0.6-3.9c4.2,3.8,8.8,9.3,12.9,14.8
						c-7.9-1-16.2-2.3-24.6-3.5C592.6,1018.7,596.7,1018,598.9,1016.3z M587.9,1021.6c0.3-0.1,0.6-0.2,0.6-0.4
						c0.1-0.2,0.1-0.4,0.2-0.6l0,0c8.8,1.8,18.1,3.6,27.1,4.8c0.9,1.2,1.8,2.4,2.5,3.6C608.3,1026.9,598.1,1024.3,587.9,1021.6z
						 M659,1034c-0.1,0-0.3,0-0.5,0c-2.3-2.5-4.4-5-6.4-7.4c8.7-1.3,15.4-4.1,20.7-7.7c2.6-1.8,4.4-3.8,6.7-5.7
						c0.4-0.4,0.9-0.7,1.3-1.1c4.2,1.7,8.6,3.2,13.5,4c0.3,0,0.6,0.1,0.8,0.1C697.2,1028.3,681,1034.1,659,1034z M844.4,1022
						c-0.6-3.5-3.8-7.9-8.3-12.4c0.4,0.2,0.8,0.4,1.2,0.6c6.7,2.9,14.2,6.1,17.5,10.1c2.5,3,1.9,5.7,0.5,7.9
						c-0.7,1.1-1.6,2.1-2.5,3.1l-7.9-5.8C844.8,1024.4,844.6,1023.2,844.4,1022z M1365.2,1061.9l-41.9-30.7
						c-0.2-1.1-0.4-2.3-0.6-3.5c-1.2-7.5-14.8-19.8-27.8-26.5c-6.3-3.2-14.1-5.8-20.3-5.9c-8.1-0.1-11.4,3.9-18.1,5.2
						c-13.3,2.7-33.8-9.5-48.5-15.9c-3.1-1.3-6.4-2.7-9.3-2.8c-5.9-0.1-3.7,4.9-2.3,8.5c4,10.4-12.7,21.4-32.7,17.2
						c-10.7-2.3-20.9-8.8-26.9-15c-3.7-3.8-8.2-8.7-14.7-9.8c-3.5-0.6-5.9,0.3-8.3,1c-4.6,1.3-14.5-0.2-18.2,1.4
						c-1,0.4-1.5,0.7-1.7,1c-0.4,0.7,1.7,1.3,3.6,3.6c2.2,2.7,9,5.3,12.1,6.3c5.9,1.8,13.9,1.6,18.9,4.5c6.6,3.8,12.5,7.8,18.4,11.3
						c-22,1.3-44.9,0.1-70.7-4.4c-3.8-2.6-7.8-5.1-12.3-7.2c-6.6-3.1-14.3-5.3-20.2-5c-2.2,0.1-4,0.6-5.6,1.2
						c-2-2.1-4.3-4.2-6.6-6.2c-7.7-6.8-16.3-13.9-27.2-19.4c-4.4-4.1-11.2-7.8-17.7-11.4c-5.9-3.3-11.9-6.7-18.6-9.1
						c-0.6-0.2-1.3-0.5-1.8-0.8c-0.5-0.4-0.6-0.8-0.9-1.2c-0.7-0.9-2.6-1.6-4.2-1.9c-1.6-0.2-2.9,0-4.2,0.1
						c-2.2,0.3-4.8,0.4-6.7,0.9c-1.7,0.4-3.6,0.6-4.8,1.4c-0.2,0.1-0.3,0.2-0.5,0.4c-0.5,0.6-0.7,1.3-0.5,2c0.1,0.4,0.3,0.8,0.8,1.3
						c1,0.9,3,1.5,4.4,1.4c0.7,1,2.7,2.8,3,2.8c0,0,0.2,0,0.3,0c0.9,1.2,2.2,2.5,3.8,3.6c0.5,0.4,1,0.7,1.6,1s1.4,0.5,1.9,0.3
						c0.1,0,0.2-0.1,0.4,0c0.2,0,0.4,0.1,0.6,0.2c1.3,0.8,2.2,1.7,3.4,2.5c1.2,0.8,3,1.6,4.4,1.5c1.1,0,1.7-0.5,2.9-0.4
						c1.2,0.2,2.2,0.9,3,1.5c4.2,3.4,5.8,7.3,7.5,10.7c1.8,3.4,2.8,6.8,2.6,9.9c0,0.9-0.3,1.8-0.6,2.6c-2-0.9-4-1.7-5.8-2.4
						c-3.1-1.2-6.6-2.5-9.3-2.5c-5.7,0.2-2.7,5.2-0.8,8.9c2.3,4.5,1.9,8.8-2.7,11c-12.1,5.7-44.5-10.5-54.4-20.3
						c-2.4-2.4-4.1-4.7-6.7-7s-6.5-4.7-10.6-5.5c-4.7-1-7.9,0.3-10.3,1.7c-4.2,2.5-8.2,2.8-15.1,3c-2.9,0.1-10.3-0.8-7.4,2.3
						c3.8,4.1,8.2,4.2,16.6,5.1c10,1.1,17.7,3.9,26.9,9.4c1.7,1,3.6,2,5.5,3.1c16,13.9,36.8,28,62.3,33.7
						c10.4,7.6,19.7,16.5,25.2,23.5c4.9,6.3,11.2,11.5,21.8,16.2c3.2,1.4,6.4,2.7,9.7,4c0.8,1,1.7,2,2.5,3c1.9,2.1,3.8,4.6,2.4,6
						c-1.3,1.2-5,1.4-3.8,3.3c5.1,1.4,10.3,2,14.3,1.5c0.6,0,1.1-0.1,1.3-0.4c0.6-0.6-0.3-1.6-1.1-2.5c-2.2-2.3-4.2-4.6-6-6.9
						c3.5,1.5,6.9,3.2,9.9,5.1c-0.9,0.6-1.8,1.3-2.6,2c-0.3,0.2-0.6,0.5-0.4,0.9c0.5,0.8,2.6,1.2,3.9,1.1c3.6-0.2,6.9-0.7,9.6-1.6
						c0.5-0.2,1.1-0.4,1-0.8c-0.1-0.6-1.4-1.3-2.5-1.9c-6.8-3.2-15.8-8.5-22.7-11.4c-0.3-0.1-0.6-0.3-1-0.4
						c-3.3-5.4-5.7-10.7-6.7-15.7c-0.5-2.3,1.1-6.1-1.9-8.8c12.6-0.6,26.7,0,34.8-4c1.1-0.6,2.1-1.2,3.2-1.8
						c13.7,9.3,36.4,18.3,39.2,20.6c2.9,2.4,8.2,16.2,7.3,16.3c-1,0-8,1.4-3.6,6.2l11.4-0.5l0.9-3.2l-5-17.8l-23.1-18.6
						c5.6,2.4,11.1,4.9,16.3,7.6c6.4,3.4,11.2,7.1,17,10.8c0.7,0.4,1.3,0.9,1.9,1.3c0.7,0.6,1.2,1.3,1.6,1.9
						c3.2,4.7,6.2,9.5,8.9,14.2c0.2,0.4,0.5,0.8,0.3,1.2c-0.1,0.3-0.6,0.5-1,0.6c-0.7,0.2-1.4,0.5-2.1,0.7c-0.5,0.2-1,0.4-1.2,0.7
						c-0.5,0.7,0.5,1.9,0.2,2.6c1.8,0.5,3.4,0.4,4.9,0.3c2-0.1,4-0.3,6-0.4c0.6,0,1.2-0.1,1.6-0.3c1.9-0.8-0.4-2.9-1.3-4.4
						c-1.1-1.9-2.2-3.7-3.3-5.6c-2-3.6-4.2-7.3-5-10.7c-1.3-5.8-20.5-12.2-36.5-34.3c-0.1-0.2-0.3-0.3-0.4-0.5
						c9.9,2.2,19.5,3.4,28.4,3.3c18.6-0.3,36.6-4,47.2-10.9c5.7,0.8,11,1,16.7,1.9c1.1,0.2,2.3,0.4,3.4,0.6
						c18.1,14.2,27.2,30.1,36.9,44.4c1.3,1.9,2.5,3.8,2.9,5.5s-0.3,3.3-2.6,3.8c-1.2,0.3-2.7,0.3-3.7,0.7c-1,0.4-1.2,1.5,0.3,2.3
						c1.3,0.7,2.9,0.8,4.1,0.8c4.1,0,8.2-0.1,12.4-0.2c0.7,0,1.5,0,1.9-0.3c0.4-0.4,0-1-0.3-1.5c-2.4-3.8-4.7-7.6-7-11.4
						c-2.7-4.4-2.8-7.5-3.1-11.1c0.8,0.7,1.9,1.3,2.9,1.9c6.5,3.8,23.1,11.5,22,16c-0.5,1.5-3.5,2.4-1.6,4.3c5,0.8,9.5,0.6,12.7-0.6
						c0.4-0.1,0.8-0.3,0.9-0.6c0.2-0.7-1-1.7-2.1-2.5c-7.1-5.3-14.1-10.6-21.2-15.9c-2.5-1.9-5.1-3.8-6.3-5.8c-2-3.1-0.5-5.6,0-8.2
						c0.1-0.7,0.1-1.5,0-2.3c7.8-0.1,15.5,0.3,21.8-1.6c5.6-1.6,14.8-6.4,24.4-1.7c10.5,5.2,21.1,10.5,31.6,15.8
						c2.2,1.1,4.5,2.3,6,3.6c4.6,4.1,3.4,12.7,2.7,16.1c-0.1,0.4-0.2,0.7-0.6,1c-0.5,0.3-1.5,0.4-2.4,0.5c-3.5,0.5-5,2.7-3.4,5.3
						c6.8,0.4,13.3,0.4,19.3-0.1c-2.7-3-4.3-5.6-4.4-8.2c-0.1-3.7,2.8-6.4,1.5-10.4c-0.8-2.3-2.9-4.7-4.9-7
						c-2.4-2.8-4.3-5.4-5.7-7.8c9.7,4.6,23.1,11,25,12.5c3.2,2.4,10.2,16.4,9.3,16.5s-7.5,1.8-2.6,6.5l10.9-1.1l0.5-3.4
						L1365.2,1061.9z M993,986.1c2.5,3.2,3.1,6.1,3.5,9c-2.1-0.9-4.1-1.8-6.2-2.6C991.9,990.7,992.9,988.5,993,986.1z M918.1,1000.8
						c2.8,1.5,5.4,3.1,7.6,4.6c10.1,7.1,22,10,33.2,16.2c3.2,1.8,6.5,3.8,9.7,6C948,1022,932,1011.7,918.1,1000.8z M1021.2,1065.8
						c-3.2-2.5-3.1-3.9-4-5.9s-1.8-3.9-2.7-5.9c0.5,0.7,1,1.5,1.5,2.2c2.4,3.7,5.1,7.4,8,11.2C1023,1067,1022,1066.4,1021.2,1065.8z
						 M1119.8,1031.1c-7.3-0.4-14.9-1.6-22.6-3.3c-1.8-2.4-3.9-4.9-6.2-7.4c0.6,0.4,1.3,0.7,2,1.1c1.5,0.8,3.2,1.5,4.5,2.5
						c1.8,1.2,2.9,2.5,4,3.8c0.8-1.8,0-4.1-2.1-6.4c-2.7-2.9-7.2-5.4-11.7-7.6c-2.3-1.2-4.7-2.3-7-3.5c25.1,4.4,49.2,5.7,69.2,3.2
						c6.3,3.5,13,6.4,20.8,8C1158.7,1027.9,1139.8,1032,1119.8,1031.1z"/>
				</g>
			</g>
			<g>
				<g>
					<defs>
						<path id="SVGID_00000112598089430619463030000014045957637390775735_" d="M1400.5,1120H599.9c-33.5-23.7-112.9-40.2-170.3-50
							c-59.6-10.2-118.5-24.2-175.9-43.5c-132.8-44.4-153.1-96.9-145.1-130.1c10.6-43.7,73.8-57.2,114.7-70.1
							c89.5-28.3,161.2-54.2,228-104.6c134.2-101.2,173.8-220,292.9-472.8C786.6,159,875,29.4,990,0h410.5V1120L1400.5,1120z"/>
					</defs>
					<clipPath id="SVGID_00000155148129787080051030000008208030897008679314_">
						<use xlink:href="#SVGID_00000112598089430619463030000014045957637390775735_"  style="overflow:visible;"/>
					</clipPath>
					<g style="clip-path:url(#SVGID_00000155148129787080051030000008208030897008679314_);">
						
							<linearGradient id="SVGID_00000026864128047126584500000001709181155152062368_" gradientUnits="userSpaceOnUse" x1="1161.0621" y1="-1246.074" x2="1504.208" y2="-1589.22" gradientTransform="matrix(1 0 0 1 0 2382)">
							<stop  offset="0" style="stop-color:#D98238;stop-opacity:0.2"/>
							<stop  offset="0.5161" style="stop-color:#E27B28;stop-opacity:0.3548"/>
							<stop  offset="1" style="stop-color:#E7751D;stop-opacity:0.5"/>
						</linearGradient>
						<path style="fill:url(#SVGID_00000026864128047126584500000001709181155152062368_);" d="M1180.2,944
							c-29.5,5.4-62.7,4.4-92.1,9.3c-25.3,4.2-50.2,7.2-76.5,10.6c-7.4,0.9-16.4,2.8-15.9,6.1c0.5,3.8,12.4,4.9,21.5,4.9
							c45.2,0,90.4-0.1,135.7-0.2c60.4-0.1,142.3-12.3,197.5,16.6c11.3,5.9,21.6,13.8,33,19.5c22.9,11.4,49.2,13.8,74.7,14.4
							c56,1.3,113-5.2,164.6-27.1c9.3-3.9,18.8-8.7,24.8-16.9c7.9-10.8,8-26.2,2.4-38.4c-20.2-44.2-102.8-43.9-143.7-45.8
							c-72.3-3.5-145.2,3.7-214,13.6c-16.5,2.4-33.1,5-47,9.4C1222,927.3,1207.2,939.1,1180.2,944z"/>
					</g>
				</g>
			</g>
			<g>
				<g>
					<defs>
						<path id="SVGID_00000075125730727976758990000006153381374527299771_" d="M151.1,1066.3c33.7-18.3,72.3-25.7,110.6-27.1
							s76.4,2.8,114.6,6.5c70.2,6.8,121.7,9.2,192.2,12.3c70.2,3.1,148.9,2.1,218.7,0.3c122-3.1,243.4,23.3,365.5,20.8
							c104.1-2.1,209-25.2,311.5-6.4c31,5.7,64.7,18,78.1,46.7c16.1,34.6-7.2,77.1-40.5,95.5c-42.6,23.5-82.8,13.6-127.6,13.9
							c-55,0.4-115.6,16.3-170.2,24.5c-95.8,14.4-192.7,21-289.5,21.2c-194.7,0.3-389.1-25.9-578.4-70.9L151.1,1066.3z"/>
					</defs>
					<clipPath id="SVGID_00000024691198951606494810000012091427780464278943_">
						<use xlink:href="#SVGID_00000075125730727976758990000006153381374527299771_"  style="overflow:visible;"/>
					</clipPath>
					<path style="clip-path:url(#SVGID_00000024691198951606494810000012091427780464278943_);fill:#501F1D;" d="M716.7,1153.4
						c0,0-65.5,1.8-116.8-33.5c-29.6-20.3-112.9-40.2-170.3-50c-59.6-10.2-118.5-24.2-175.9-43.5c-132.8-44.3-153.1-96.8-145.1-130
						c10.6-43.7,73.8-57.2,114.7-70.1c89.5-28.3,161.2-54.2,228-104.6c134.2-101.2,173.8-220,292.9-472.8C786.6,159,875,29.4,990,0
						h410.5v1120v33.5L716.7,1153.4L716.7,1153.4z"/>
				</g>
			</g>
			<g>
				<g>
					<defs>
						<path id="SVGID_00000070111630024024232830000006365205560889634227_" d="M1400.5,1120H599.9c-33.5-23.7-112.9-40.2-170.3-50
							c-59.6-10.2-118.5-24.2-175.9-43.5c-132.8-44.4-153.1-96.9-145.1-130.1c10.6-43.7,73.8-57.2,114.7-70.1
							c89.5-28.3,161.2-54.2,228-104.6c134.2-101.2,173.8-220,292.9-472.8C786.6,159,875,29.4,990,0h410.5V1120L1400.5,1120z"/>
					</defs>
					<clipPath id="SVGID_00000029726132533761676920000010525775047634396557_">
						<use xlink:href="#SVGID_00000070111630024024232830000006365205560889634227_"  style="overflow:visible;"/>
					</clipPath>
					<g style="clip-path:url(#SVGID_00000029726132533761676920000010525775047634396557_);">
						<g>
							<g>
								<path class="st45" d="M1090.2,1009.7c5.5,15.7,22,31.3,22.9,35.2s-5.2,26.5-6.2,26.5c-1,0.1-9.2,2.3-8.7,10l11.8-0.8
									l3.7-5.3l9.8-29l-13.7-53.1l-17.1,8.4C1092.6,1001.5,1084.7,994,1090.2,1009.7z"/>
								<path class="st45" d="M1033.4,1017.5c-0.2,0.5-0.4,0.9-0.5,1.4c-1.4,5.3-1.7,11.8-2.3,17.3c-1.2,11.3-1.6,22.7-1.3,34
									c0.1,3.5,0,7.5-2.5,9.7c-2.2,1.9-6.2,2.4-6.6,5.4c3.9,2.4,8.6,3.2,13.1,2.5c0.6-0.1,1.2-0.3,1.7-0.6c1.1-0.9,1-2.6,0.9-4
									c-1.3-16.3,1.2-32.9,6.9-48.1c1.5-4,7.1-11.2,5-15.5c-1.5-3.1-6.6-5.7-9.2-7.9C1036.2,1013.7,1034.4,1015,1033.4,1017.5z"/>
								<path class="st45" d="M952.1,919c-7.6-1.5-12-1.7-12.4-8.4c-0.3-5,6.4-3.7,9.4-3.8c7-0.3,11.3-0.8,17.5-4.8
									c3.5-2.3,7.8-4.4,11.7-2.7c3.4,1.4,5.3,5.2,6.1,9c0.7,3.8,0.5,7.6,0.9,11.5c1.8,16,20.8,42.3,37.6,33.1
									c6.3-3.4,10.3-10.5,11.7-17.8c1.2-6,2.4-14.3,8.2-14.5c2.8-0.1,5.2,2,7.3,4c10.1,9.7,22.1,28.5,37.2,22.8
									c7.6-2.8,13.7-9.9,21.7-10.4c6.2-0.4,12,3.2,16.1,8.2c10.2,12.5,11.2,32.9,10.2,48.8c-2.3,36,11.7,46.3,8.2,55.8
									c-2,5.5-2.9,11.6-3.9,17.4c-0.5,3-0.9,6-1.3,9c-0.3,2.4,0.2,5.9-2.3,7.2c-0.6,0.3-1.2,0.4-1.8,0.4c-2.1,0.2-4.3,0.5-6.4,0.7
									c-1.6,0.2-3.2,0.3-4.6-0.5c0.9-1.3,0.9-3.2,1.9-4.3c0.5-0.5,1.2-0.8,1.8-1.1c0.9-0.4,1.8-0.8,2.7-1.3c0.6-0.2,1.1-0.5,1.5-1
									s0.5-1.3,0.6-1.9c1.2-7.6,2.1-15.3,2.8-23.1c0.1-1,0.2-2,0-3c-0.1-0.7-0.5-1.5-0.8-2.2c-2.8-5.9-4.4-12-8.1-17.6
									c-3.6-5.4-7.9-10.1-12.2-14.9c-2.5-2.8-5.2-5.7-8.8-6.6c-6.6-1.8-12.6,3.8-18.5,7.2c-13.7,7.8-30.4,4.9-45.8,7.4
									c-2.5,0.4-5.3,1.1-6.9,3.2c-1.1,1.4-1.6,3.3-2,5.2c-0.9,4.1-1.8,8.1-2.7,12.2c-0.7,3.2-2,5.5-0.8,9.5
									c1.2,4.1,5.4,5.7,9.2,9.5c4.6,4.7,9.3,13.3,13.4,18.5c0.7,0.8,1.4,2,1,3c-0.3,0.7-1,1-1.7,1.3c-3.5,1.4-7.2,2.4-11,2.6
									c-1.3,0.1-3.2-0.5-3-1.8c0.1-0.6,0.6-1.1,1.1-1.5c1.4-1.1,2.8-2.2,4.3-3.2c-4.1-8.9-12.3-14.3-18.5-21.3
									c-6.8-7.6-8.7-16.1-8.4-26.5c0.5-16.3-3.7-39-12.2-52.8c-6.2-10-15.6-14.6-19.8-26.3c-2.4-6.5-7.8-13.1-11.1-19.1
									C966.5,925.4,961.2,920.8,952.1,919z"/>
								<g>
									<path class="st45" d="M1129.9,955.5c1.9,4.2,4.9,7.6,7.6,11.3s5,7.8,5.4,12.5c0.3,3.8-0.9,7.6-3.2,10.4
										c0-2.1,0-4.3-0.8-6.2c-0.6-1.5-1.6-2.7-2.5-4c-3.9-5.5-6.5-12-7.7-18.7"/>
								</g>
							</g>
							<g>
								<path class="st45" d="M1070.7,877.7c4,6.8,11.2,10.6,16.4,16.2c8.4,9.1,11.5,22.2,13.9,34.7c1.2,6.3,2.2,12.7,1.6,19.1
									c-0.6,6.3-3.2,12.8-7.9,16.6c-3.8,3.1-8.7,4.3-13.5,4.9c-8.4,1-18.4-0.5-22.5-8.3c-3.1-6-1.4-13.3,1.1-19.6
									s5.7-12.4,5.8-19.2c-4.9,9.1-13,16.2-22.4,19.5c1.2-1.3,2.4-2.7,3.5-4.1c3.6-4.2,7.2-8.4,10-13.3c2.7-5,4.4-10.5,5.5-16
									c1.1-5.6,2.7-11.7,1.3-17.4c-0.2-1-0.7-2.1-1.8-2.4c-1.1-0.3-2.1,0.5-3.2,0.6c-1.4,0-2.6-1.2-3.2-2.5s-0.7-2.8-1.4-4
									c-0.1-0.2-0.2-0.3-0.4-0.4c-0.1,0-0.3,0-0.4,0.1c-0.6,0.2-1.2-0.1-1.6-0.6s-0.6-1.1-0.8-1.6c-1-3.5-1.2-7.5,0.4-10.7
									c2-4,7.5-6.7,11.4-3.9C1066.8,868.3,1068.1,873.4,1070.7,877.7z"/>
							</g>
							<g>
								<path class="st45" d="M973.1,923.6c5.8,24.4,11,53.7,34.4,66.1c28.4,15,49.2-14.3,64.8-34.8c0.6-0.7,1.8,0.1,1.3,1
									c-12.8,23.2-35.2,50.4-63.5,39c-26.7-10.8-34.9-43.9-38.4-70.9C971.7,923.1,972.9,922.8,973.1,923.6L973.1,923.6z"/>
							</g>
							<g>
								<path class="st45" d="M1048.3,861.8c0.2-0.2,0.5-0.5,0.8-0.6c1.8-1.3,3.9-1.6,5.9-2.3c2.3-0.8,5-1,7.4-1.4
									c1.4-0.3,2.9-0.5,4.3-0.1s2.7,1.5,2.7,3c0,0.6-0.2,1.3,0,1.9c0.2,0.6,0.6,1,1.1,1.3c4.7,4,7.9,9.5,11.1,14.9
									c3.8,6.4,7.9,13.1,8.5,20.6c0.1,1.7,0,3.5-0.6,5.1c-0.4,0.9-0.9,1.7-1.7,2.4c-0.6,0.6-1.3,0.8-1.9,1.5
									c-1.2,1.6-2.7,2.8-4.7,3.1c-3,0.5-6-1.2-8.1-3.4s-3.4-5-4.9-7.7c-1.4-2.5-2.9-4.9-3.9-7.5c-0.8-2.3-1.3-4.7-2.1-7
									c-1.1-2.9-2.5-5.8-4.4-8.2c-0.9-1.2-1.9-2.6-3.3-3.2c-0.4-0.1-4.5,0-4.8,0s-0.8-3-0.7-4.6c-1.4,0.2-2.9-0.9-3.2-2.3
									c-0.1-0.7,0-1.4,0.3-2.1C1046.5,863.8,1047.3,862.7,1048.3,861.8z"/>
							</g>
						</g>
						<g>
							<g>
								<path class="st45" d="M874.3,1007.3c0,0,19.9,24.4,21.1,28.2s-3.4,26.8-4.4,26.9s-9,3-8,10.7l11.7-1.7l3.3-5.6l7.8-29.7
									l-17.2-52l-16.5,9.7L874.3,1007.3z"/>
							</g>
							<g>
								<path class="st45" d="M790.7,1002.1c-2,3-3.6,6.6-4.9,10c-1.4,3.7-2.8,7.3-4.3,10.9c-0.6,1.6-1.3,3.4-1.1,5.1
									c0.1,1.4,0.8,2.6,1.4,3.9c3.3,6.3,13.6,18.7,8.8,26c-1.7,2.5-5.5,3.9-5.1,6.9c4.4,1.3,9.1,0.9,13.2-1.1
									c0.6-0.3,1.1-0.6,1.5-1.1c0.8-1.2,0.4-2.8,0-4.2c-2.8-8.6-5.4-17.2-8-25.9c-0.9-3.1-1.9-6.3-1.5-9.5c0.5-5,4.1-9,6.7-13.3
									c2.6-4.2,4.4-10.1,1.5-14.2C795.4,996.7,792.7,999,790.7,1002.1z"/>
							</g>
							<g>
								<path class="st45" d="M884.7,938.6c4.9,5.8,9.9,11.7,14.8,17.5c1.6,1.9,3.3,3.9,4.4,6.2c1.7,3.3,2.3,7.2,2.5,11
									c0.2,4.5,0,9.3-2.2,13.3c-3.4,6.3-11.3,9.9-12.2,17.2c-0.2,2-0.1,4.4-1.7,5.4c-1.7,1-3.9-0.6-4.2-2.6c-0.3-2,0.6-4,1.8-5.7
									c2.7-3.9,6.4-6.9,9.6-10.5c3.2-3.5,6-7.9,6-12.8c0-6.5-4.8-11.8-9.1-16.5s-8.6-10.7-7.4-17.1"/>
							</g>
							<path class="st45" d="M697.3,912.7c0.4-0.5,1.2-0.9,2.5-1.6c5-2.6,13.6,0,19.4-2.3c3-1.2,6.1-2.6,9.1-1.7
								c5.6,1.8,6.1,9.8,6.6,16c0.8,10.1,5.7,20.7,14.5,24.4c16.5,6.9,42.3-11,46.9-27.9c1.6-5.9,3.5-14,9.3-13.8
								c2.8,0.1,5.1,2.4,7,4.6c9.4,10.5,19.8,30.3,35.3,25.9c7.7-2.2,14.4-8.7,22.4-8.6c6.2,0.1,11.8,4.3,15.4,9.5
								c7.5,10.8,10.9,30.9,5.9,43.1c-6.8,16.5-11.9,28.6-11.7,47.5c0,3.8,0.2,7.8-0.9,11.4c-1.9,6.4-7.1,10.9-10.1,16.9
								c-2.1,4.3-2.6,8.4-2.4,13.3c-6.4,0.7-12.9,0.7-19.4,0.1c0.6-4.2,3.8-7.8,7.8-8.7c0.9-0.2,1.9-0.3,2.8-0.8
								c0.6-0.4,1-1,1.4-1.6c3.4-5.4,11.7-19.5,10.5-26.1c-0.4-2.2-1.8-4.1-3.1-5.9c-6.2-8.6-12.4-17.1-18.6-25.7
								c-5.7-7.8-18.8,0-25.8,2.7c-9,3.4-17.4,2-26.8,2.7c-2.5,0.2-5.3,0.6-7.1,2.6c-3.8,4.2-4.5,12.5-6.9,17.7
								c-3.2,6.9-6.1,12.2-7.1,20.1c-0.8,6.2-1.6,12.4-2.4,18.6c-0.1,0.9-0.3,1.9-1,2.5c-0.6,0.5-1.4,0.5-2.1,0.6
								c-4.2,0.1-8.3,0.2-12.5,0.3c-1.3,0-2.8-0.1-3.5-1.3c-0.7-1.3,0.3-3.1,1.6-3.7s2.8-0.6,4.2-1.1c2.7-0.9,4.7-3.4,5.8-6.3
								c1.1-2.8,1.3-5.9,1.6-8.9c2.1-23.4,6.2-49.1-0.2-72.3c-0.9-0.4-1.9-0.8-2.9-1.1c-5.5-1.6-11.3-1.7-16.7-3.4
								c-15-4.9-18.4-20.2-26.4-34.7c-2.6-4.8-10.8-4.4-15.2-7.3c-2.3-1.5-6.9-5.8-6.9-10.2C697.9,914.7,696.2,913.9,697.3,912.7z"
								/>
							<g>
								<path class="st45" d="M646,897.8c0.2-0.2,0.5-0.5,0.8-0.6c1.8-1.3,3.9-1.6,5.9-2.3c2.3-0.8,5-1,7.4-1.4
									c1.4-0.3,2.9-0.5,4.3-0.1s2.7,1.5,2.7,3c0,0.6-0.2,1.3,0,1.9c0.2,0.6,0.6,1,1.1,1.3c4.7,4,7.9,9.5,11.1,14.9
									c3.8,6.4,8,13.1,8.5,20.6c0.1,1.7,0,3.5-0.6,5.1c-0.4,0.9-0.9,1.7-1.7,2.4c-0.6,0.6-1.3,0.8-1.9,1.5
									c-1.2,1.6-2.7,2.8-4.7,3.1c-3,0.5-6-1.2-8.1-3.4s-3.4-5-4.9-7.7c-1.4-2.5-2.9-4.9-3.9-7.5c-0.8-2.3-1.3-4.7-2.1-7
									c-1.1-2.9-2.5-5.8-4.4-8.2c-0.9-1.2-1.9-2.6-3.3-3.2c-0.4-0.1-4.5,0-4.8,0s-0.8-3-0.7-4.6c-1.4,0.2-2.9-0.9-3.2-2.3
									c-0.1-0.7,0-1.4,0.3-2.1C644.3,899.8,645,898.7,646,897.8z"/>
							</g>
							<g>
								<path class="st45" d="M659.6,958.6c-1.1,1.9-1.4,4.6-2.7,6.3c-1.7,2.4-4,4.4-6.3,6.2c-3.5,2.7-8.3,4-12.3,6
									c-0.5,0.3-1.1,0.6-1.4,1c-0.2,0.3-0.4,0.6-0.6,1c-0.5,0.6-1.3,0.8-2.1,0.8s-1.5-0.3-2.3-0.6c-0.5-0.2-1.1-0.4-1.6-0.1
									c-0.3,0.1-0.6,0.5-0.9,0.6c-0.3,0.2-0.8,0.2-1-0.1c-0.1-0.2-0.1-0.4,0-0.6c0.1-0.6,0.2-1.3,0.4-1.9c0.1-0.3,0.2-0.6,0.3-0.9
									c0.3-0.5,0.8-0.7,1.3-0.9c1.8-0.7,3.8-0.4,5.5-1.4c0.8-0.5,1.5-1.3,2.1-1.9c1.2-1.4,2.5-2.7,3.8-4c3.2-3.1,8.2-8.3,8.2-8.3
									c0.7-9.7,1.7-20.3,6-29.2c0.8-1.8,1.9-3.3,3.2-4.8c0.3-0.4,1.2-0.7,1.3-1.2c2.1-4.3-3.4-1.7-5.3-1.9
									c-1.6-0.2-2.5-1.9-3.2-3.4c-0.4-0.9-0.7-1.9-1.5-2.3c-0.7-0.3-1.9-0.2-2.1-1.1c-0.4-1.7,0.5-4.3,0.5-5.9
									c0-1.6-0.2-3.3-0.3-4.9c0-0.6,0-1.2,0.2-1.7c0.2-0.3,0.5-0.6,0.8-0.8c3.2-2.3,6.1-3.7,9.8-2.2c5,2,6.1,8.7,8.6,13.7
									c3.3,6.7,9.5,11.1,14.2,16.7c5.1,5.9,6.2,8.3,8.6,15.7c6.9,20.6,2.9,43.4,6.3,71.6c1.4,11.4,1.4,20.9,0.1,32.3
									c0,0.6-0.1,1.1-0.5,1.5c-0.4,0.5-1.2,0.5-1.8,0.5c-7.5,0.2-14.9,0-22.4-0.2c-3.5-0.1-6.9-0.2-10.4-0.3
									c-1.4,0-3.5,0.3-4.6-0.9c-1.5-1.6-0.8-4.7-0.7-6.7c0.7-10.6,1.1-21.2,1.3-31.8C658.4,1004.8,662.3,973.3,659.6,958.6z"/>
							</g>
							<path class="st45" d="M690.6,1044.1c1.9,4.4,5,13.5,6.3,18.4c0.8,3.3-9.9,1.4-15.3,1c-0.9-1.7,1.6-3.1,3.4-3.1
								c1.8,0.1,4.2-0.7,4.4-2.6c0-0.5-0.1-1-0.3-1.4c-2-5.8-4.4-10.9-7.4-16.3"/>
							<path class="st45" d="M668.4,1039.5c0,0,0.6,24.1,0.1,24.6c-0.7,0.7-10.2,0.9-15.7,0.5c-0.9-1.7,1.6-3.1,3.4-3.1
								c1.8,0.1,5.1-1.1,5.9-2s-1-21.2-1-21.2"/>
							<g>
								<path class="st45" d="M751.9,951.8c1.7,28-16.4,44.6-41.2,49.4c-28.4,5.6-56.3-6.8-80.7-21.4c-1.4-0.9-0.1-3.2,1.3-2.4
									c20.3,11.4,41.5,22.3,64.9,22.5c28.2,0.2,54.5-15.2,54.3-48.2C750.5,950.8,751.8,950.8,751.9,951.8L751.9,951.8z"/>
							</g>
							<g>
								<path class="st45" d="M764.6,958.6c-13.7-3.2-19.9-1.3-30.7,7.4c-3.8,3.1-7.4,6.4-11.4,9.3c-8.6,6-17.8,10.7-27.9,12.7
									c-19.5,4-40.8-3.2-58.9-10.5c-0.7-0.3-0.4-1.3,0.3-1.2c27.9,6.9,52.2,17.1,79.5,0.8c19.8-11.8,25.3-25.8,49.3-19.4
									C765.2,958,765,958.7,764.6,958.6L764.6,958.6z"/>
							</g>
						</g>
						<g>
							<g>
								<path class="st45" d="M1343.7,1016.7c0,0,19.9,24.4,21.1,28.2c1.2,3.8-3.4,26.8-4.4,26.9s-9,3-8,10.7l11.7-1.7l3.3-5.6
									l7.8-29.7l-17.2-52l-16.5,9.7L1343.7,1016.7z"/>
							</g>
							<g>
								<path class="st45" d="M1260,1011.4c-2,3-3.6,6.6-4.9,10c-1.4,3.7-2.8,7.3-4.3,10.9c-0.6,1.6-1.3,3.4-1.1,5.1
									c0.1,1.4,0.8,2.6,1.4,3.9c3.3,6.3,13.6,18.7,8.8,26c-1.7,2.5-5.5,3.9-5.1,6.9c4.4,1.3,9.1,0.9,13.2-1.1
									c0.6-0.3,1.1-0.6,1.5-1.1c0.8-1.2,0.4-2.8,0-4.2c-2.8-8.6-5.4-17.2-8-25.9c-0.9-3.1-1.9-6.3-1.5-9.5c0.5-5,4.1-9,6.7-13.3
									c2.6-4.2,4.4-10.1,1.5-14.2C1264.8,1006,1262.1,1008.4,1260,1011.4z"/>
							</g>
							<path class="st45" d="M1166.6,922.1c0.4-0.5,1.2-0.9,2.5-1.6c5-2.6,13.6,0,19.4-2.3c3-1.2,6.1-2.6,9.1-1.7
								c5.6,1.8,6.1,9.8,6.6,16c0.8,10.1,5.7,20.7,14.5,24.4c16.5,6.9,42.3-11,46.9-27.9c1.6-5.9,3.5-14,9.3-13.8
								c2.8,0.1,5,2.4,7,4.6c9.4,10.5,19.8,30.3,35.3,25.9c7.7-2.2,14.4-8.7,22.4-8.6c6.2,0.1,11.8,4.3,15.4,9.5
								c7.5,10.8,10.9,30.9,5.9,43.1c-6.8,16.5-11.9,28.6-11.7,47.5c0,3.8,0.2,7.8-0.9,11.4c-1.9,6.4-7.1,10.9-10.1,16.9
								c-2.1,4.3-2.6,8.4-2.4,13.3c-6.4,0.7-12.9,0.7-19.4,0.1c0.6-4.2,3.8-7.8,7.8-8.7c0.9-0.2,1.9-0.3,2.8-0.8
								c0.6-0.4,1-1,1.4-1.6c3.4-5.4,11.7-19.5,10.5-26.1c-0.4-2.2-1.8-4.1-3.1-5.9c-6.2-8.6-12.4-17.1-18.6-25.7
								c-5.7-7.8-18.8,0-25.8,2.7c-9,3.4-17.4,2-26.8,2.7c-2.5,0.2-5.3,0.6-7.1,2.6c-3.8,4.2-4.5,12.5-6.9,17.7
								c-3.2,6.9-6.1,12.2-7.1,20.1c-0.8,6.2-1.6,12.4-2.4,18.6c-0.1,0.9-0.3,1.9-1,2.5c-0.6,0.5-1.4,0.5-2.1,0.6
								c-4.2,0.1-8.3,0.2-12.5,0.3c-1.3,0-2.8-0.1-3.5-1.3c-0.7-1.3,0.3-3.1,1.6-3.7s2.8-0.6,4.2-1.1c2.7-0.9,4.7-3.4,5.8-6.3
								c1.1-2.8,1.3-5.9,1.6-8.9c2.1-23.4,6.2-49.1-0.2-72.3c-0.9-0.4-1.9-0.8-2.9-1.1c-5.5-1.6-11.3-1.7-16.7-3.4
								c-15-4.9-18.5-20.2-26.4-34.7c-2.6-4.8-10.8-4.4-15.2-7.3c-2.3-1.5-6.9-5.8-6.9-10.2C1167.2,924.1,1165.6,923.2,1166.6,922.1
								z"/>
							<g>
								<path class="st45" d="M1224.4,975.1c-16.8,14.7-41.7,22.7-63.3,23.3c-23.3,0.6-43-13.6-59.9-29.4c-0.7-0.7,0-2.1,0.9-1.4
									c16.2,12.3,32.6,26,53.1,27.8c22.7,1.9,49.9-7.9,67.7-22C1224.1,972.3,1225.6,974,1224.4,975.1L1224.4,975.1z"/>
							</g>
							<g>
								<path class="st45" d="M1217,961.8c-35,12.3-74.8,6.9-107.4-10.9c-1.3-0.7-0.6-3.2,0.8-2.5c35.2,16.5,68.8,19.7,106.4,12.9
									C1217.1,961.3,1217.3,961.7,1217,961.8L1217,961.8z"/>
							</g>
						</g>
					</g>
				</g>
			</g>
			<g>
				<g>
					<defs>
						<path id="SVGID_00000168795581678951006880000017021677971926699651_" d="M716.7,1153.4c0,0-65.6,1.9-116.8-33.5
							c-51.2-35.4-112.9-40.2-170.3-50c-59.6-10.2-118.5-24.2-175.9-43.5c-132.8-44.3-153.1-96.8-145.1-130
							c10.6-43.7,73.8-57.2,114.7-70.1c89.5-28.3,161.2-54.2,228-104.6c134.2-101.2,173.8-220,292.9-472.8C786.6,159,875,29.4,990,0
							h410.5v1120v33.5L716.7,1153.4L716.7,1153.4z"/>
					</defs>
					<clipPath id="SVGID_00000060749571465573258640000005074985617225200269_">
						<use xlink:href="#SVGID_00000168795581678951006880000017021677971926699651_"  style="overflow:visible;"/>
					</clipPath>
					<g style="clip-path:url(#SVGID_00000060749571465573258640000005074985617225200269_);">
						<path class="st45" d="M1349.7,943.8c3,2.4,5.7,3.9,8,7c2.6,3.6,4.8,7.5,6.5,11.5c3.4,7.9,5.2,16.6,5.1,25.2
							c0,1.3-0.5,3-1.8,2.8c-0.5-1.6-0.5-3.3-0.7-4.9c-1-6.4-5.2-11.7-8.5-17.3s-5.7-11.8-6.9-18.2"/>
					</g>
				</g>
			</g>
		</g>
	</g>
</g>
</svg>
