<?xml version="1.0" encoding="utf-8"?>
<!-- Generator: Adobe Illustrator 27.0.1, SVG Export Plug-In . SVG Version: 6.00 Build 0)  -->
<svg version="1.1" id="Laag_1" xmlns="http://www.w3.org/2000/svg" xmlns:xlink="http://www.w3.org/1999/xlink" x="0px" y="0px"
	 viewBox="0 0 630 396.4" style="enable-background:new 0 0 630 396.4;" xml:space="preserve">
<style type="text/css">
	.st0{fill:#020203;}
	.st1{fill:url(#SVGID_1_);}
	.st2{fill:url(#SVGID_00000140725092536669724420000006851587518641226396_);}
	.st3{fill:url(#SVGID_00000057123798128135052660000008144232280837419668_);}
	.st4{fill:#82492B;}
</style>
<g>
	<g>
		<path class="st0" d="M201.6,254.4c-14,0-25.4-10.5-25.4-25.3c0-14.8,11.4-25.2,25.4-25.2c14,0,25.2,10.4,25.2,25.2
			C226.8,243.9,215.5,254.4,201.6,254.4z M201.6,240c6.2,0,9.6-4.4,9.6-10.9c0-6.7-3.4-11-9.6-11c-6.3,0-9.7,4.3-9.7,11
			C191.9,235.6,195.2,240,201.6,240z"/>
		<path class="st0" d="M232.3,204.7h34.8v12.2h-19.3v6.8h13.9v11.6h-13.9v18.6h-15.4V204.7z"/>
		<path class="st0" d="M281.3,204.7h41.4v12.2h-13.1v37h-15.4v-37h-12.9V204.7z"/>
		<path class="st0" d="M357,234.7h-14.7v19.2h-15.4v-49.2h15.4v17.7H357v-17.7h15.4v49.2H357V234.7z"/>
		<path class="st0" d="M412.2,217h-17.4v6h15.3v11.6h-15.3v7h17.4v12.3h-32.8v-49.2h32.8V217z"/>
	</g>
	<g>
		<linearGradient id="SVGID_1_" gradientUnits="userSpaceOnUse" x1="58.7547" y1="118.1546" x2="614.7741" y2="118.1546">
			<stop  offset="0" style="stop-color:#DD6328"/>
			<stop  offset="1" style="stop-color:#E68F31"/>
		</linearGradient>
		<path class="st1" d="M170.1,125.2c-3.3-6.2-8.6-12.4-15.7-18.8c9.8-7.1,20.6-14.1,32.3-20.9c11.7-6.8,23.4-13.7,35-20.7
			c1.8-0.9,2.7-2.4,2.8-4.6c0.1-2.2-0.4-4.2-1.4-6c-1-1.9-2.5-3.3-4.2-4.3c-1.8-1-3.6-1-5.6,0.2c-6.4,4.2-12.8,8.4-19.2,12.6
			c-6.4,4.2-12.6,8.4-18.6,12.4c-6,4-11.7,7.9-17,11.6c-5.3,3.7-10.2,7.1-14.5,10.3c-5.9-4.9-10.5-9.1-13.7-12.6
			c-3.2-3.5-5.1-7.2-5.7-11.3c-0.7-4.6-0.1-9,2-13.3c2.1-4.2,5-8.2,8.7-11.8c3.7-3.6,8.1-6.9,13-9.9c5-3,10-5.6,15.2-7.8
			c5.1-2.2,10.1-4,14.9-5.5c4.8-1.4,9-2.3,12.6-2.8c2.7-0.4,4.5-1.9,5.3-4.3c0.9-2.5,1.1-5,0.6-7.8c-0.5-2.7-1.6-5.2-3.2-7.2
			c-1.6-2.1-3.6-2.9-6-2.5c-5.5,1-11.4,2.6-17.6,4.7c-6.2,2.1-12.5,4.7-18.7,7.8c-6.2,3.1-12.2,6.7-17.9,10.6
			c-5.7,3.9-10.8,8.2-15.3,12.8c-4.5,4.6-8,9.5-10.7,14.8c-2.7,5.3-4,10.7-4,16.2c0,4.3,0.8,8.3,2.5,12c1.6,3.7,3.8,7.2,6.5,10.4
			c2.7,3.2,5.6,6.2,8.8,9c3.2,2.8,6.4,5.5,9.5,8c-20.8,15.3-37.8,29.3-50.9,42c-13.1,12.7-23.1,24.1-29.7,34.1
			c-6.7,10-10.6,18.7-11.7,26.1c-1.1,7.4-0.1,13.3,2.9,17.7c3,4.5,7.8,7.4,14.4,8.9c6.5,1.5,14.1,1.4,22.7-0.1
			c8.6-1.6,17.9-4.7,27.7-9.4c9.9-4.7,19.7-11,29.5-19.1c5.6-4.6,11-9.4,16.2-14.4c5.1-5,9.5-10.1,13.3-15.4
			c3.7-5.3,6.6-10.7,8.7-16.3c2.1-5.6,2.9-11.3,2.3-17.3C175.4,137.5,173.5,131.4,170.1,125.2z M156.2,149.5
			c-1.2,5.9-3.8,11.7-7.7,17.4c-3.9,5.7-8.6,11.1-14,16.3c-5.4,5.1-11.4,9.8-17.9,14c-6.5,4.2-12.9,7.8-19.2,10.8
			c-6.2,3-12.1,5.2-17.6,6.6c-5.5,1.4-10,1.8-13.5,1.2c-3.5-0.6-5.7-2.3-6.7-5.2c-1-2.9-0.1-7.2,2.6-12.8c4-8,9.2-16,15.7-23.8
			c6.5-7.9,13.4-15.4,20.8-22.5c7.4-7.1,14.9-13.7,22.4-19.8c7.5-6.1,14.3-11.3,20.4-15.6c6.7,5.2,11.1,10.6,13.3,16.3
			C156.9,137.9,157.4,143.7,156.2,149.5z"/>
		
			<linearGradient id="SVGID_00000183237943490858166250000016273066485873414838_" gradientUnits="userSpaceOnUse" x1="58.7547" y1="122.7289" x2="614.7741" y2="122.7289">
			<stop  offset="0" style="stop-color:#DD6328"/>
			<stop  offset="1" style="stop-color:#E68F31"/>
		</linearGradient>
		<path style="fill:url(#SVGID_00000183237943490858166250000016273066485873414838_);" d="M629.8,70.9c-0.4-2-1.5-3.3-3.5-3.9
			c-2.5-0.4-5.6-0.8-9.4-1.1c-3.7-0.3-7.6-0.5-11.7-0.7c-4.1-0.1-8.1-0.2-12.1-0.2c-4,0-7.5,0.1-10.5,0.2c3.1-3.4,6.3-6.7,9.6-9.9
			c3.3-3.2,6.6-6.2,10-9c2.5-2.1,3.6-4.5,3.1-7.2c-0.4-2.7-1.6-5.2-3.6-7.5c-1.9-2.2-4.2-3.8-6.9-4.7c-2.7-0.9-5-0.4-6.9,1.3
			c-3.7,3.4-8.2,8.3-13.4,14.6c-5.2,6.3-10.8,13.8-16.7,22.4c-8.3,0.4-16.5,1-24.5,1.8c-8,0.7-15.8,2.2-23.4,4.2
			c-2.8,0.7-4.5,2.1-5,4.1c-0.5,2-0.4,3.9,0.4,5.8c0.8,1.9,2.1,3.3,3.9,4.3c1.8,1,3.7,1,5.8,0c4.9-1.6,10.3-3,16.2-4
			c5.9-1,11.6-1.8,17-2.2c-5.8,9.1-11.7,18.8-17.6,29.2c-5.7,9.9-11.1,20.2-16.2,30.8c-0.6,0-1.1,0.3-1.6,0.7
			c-2.5,2.4-5.6,5.1-9.4,8.1c-3.7,3-7.8,6.1-12.1,9c-4.4,3-8.9,5.8-13.5,8.5c-4.6,2.7-9,4.9-13.1,6.8c-4.2,1.9-7.9,3.1-11.1,3.8
			c-3.3,0.7-5.7,0.4-7.4-0.8c-1-0.6-1.7-1.6-2-2.9c-0.3-1.3-0.4-2.7-0.3-4.1c0.1-1.4,0.3-2.7,0.8-4c0.4-1.3,0.9-2.3,1.3-3
			c3.3,0.6,6.8,0.3,10.6-1c3.8-1.3,7.5-3.1,11.1-5.6c3.6-2.5,7.1-5.3,10.2-8.7c3.2-3.3,5.9-6.8,8.1-10.4c3.4-5.9,5-11.1,4.7-15.5
			c-0.3-4.4-1.9-7.6-4.9-9.7c-3-2.1-6.9-2.8-11.9-2.1c-5,0.7-10.4,3-16.2,7c-4.3,3.1-8.6,6.9-12.8,11.3c-3.6,3.7-6.9,7.8-9.9,12
			c-0.6,0.2-1.1,0.5-1.6,1.1c-2.8,2.8-5.7,5.3-8.7,7.5c-3,2.2-5.6,3.8-8,5c-2.4,1.2-4.4,1.9-6,2.1c-1.6,0.2-2.5-0.2-2.7-1.2
			c-0.4-2.7,0.2-5.9,1.9-9.6c1.7-3.7,3.3-7.4,4.9-11.1c1.6-3.7,2.5-7.2,2.8-10.5c0.3-3.3-1.2-5.8-4.5-7.6c-3.6-2.1-7.7-2.3-12.3-0.6
			c-4.6,1.7-9.4,4.5-14.3,8.4c-4.9,3.9-9.9,8.5-14.9,13.8c-5.1,5.3-9.8,10.7-14.2,16.2c-4.4,5.4-8.4,10.5-12,15.2
			c-3.6,4.7-6.5,8.2-8.6,10.6c0.4-0.9,1.4-2.6,3-5.1c1.6-2.5,3.4-5.5,5.5-8.9c2.1-3.4,4.4-7.1,7-10.9c2.6-3.9,5.2-7.6,7.8-11.1
			c2.6-3.6,5.1-6.8,7.6-9.6c2.5-2.8,4.6-5,6.6-6.5c1.5-1.2,2-2.9,1.6-5.1c-0.4-2.2-1.5-4.3-3.2-6.1c-1.7-1.9-3.7-3.2-6-3.9
			c-2.3-0.7-4.4-0.2-6.4,1.6c-2.1,1.8-5.1,5.5-9,11.3c-3.6,5.2-7.3,11-11.3,17.4c-0.2,0.1-0.4,0.2-0.7,0.3
			c-2.8,2.2-6.6,5.2-11.3,8.9c-4.7,3.7-9.6,7.5-14.8,11.3c-5.2,3.8-10.4,7.2-15.5,10.1c-5.1,3-9.5,4.8-13.3,5.3
			c-5.3,0.9-8.7-0.4-9.9-3.9c-1.3-3.5-0.7-7.8,1.7-12.8c2.4-5,6.5-10.3,12.4-15.6c5.9-5.3,13.3-9.4,22.4-12c2.8-0.9,4.7-2.6,5.6-5.2
			c0.9-2.6,1-5.2,0.4-7.7c-0.6-2.5-1.9-4.6-3.8-6.4c-1.9-1.7-4.2-2-6.9-1c-7.4,2.7-14.3,6.3-20.5,10.8c-6.2,4.5-11.7,9.5-16.4,14.8
			c-1.6,1.8-3.1,3.7-4.4,5.5c-1.7,1.5-3.6,3.1-5.7,4.8c-3.7,3-7.8,6.1-12.1,9c-4.4,3-8.9,5.8-13.5,8.5c-4.6,2.7-9,4.9-13.1,6.8
			c-4.2,1.9-7.9,3.1-11.1,3.8c-3.3,0.7-5.7,0.4-7.4-0.8c-1-0.6-1.7-1.6-2-2.9c-0.3-1.3-0.4-2.7-0.3-4.1c0.1-1.4,0.3-2.7,0.8-4
			c0.4-1.3,0.9-2.3,1.3-3c3.3,0.6,6.8,0.3,10.6-1c3.8-1.3,7.5-3.1,11.1-5.6c3.6-2.5,7.1-5.3,10.2-8.7c3.2-3.3,5.9-6.8,8.1-10.4
			c3.4-5.9,5-11.1,4.7-15.5c-0.3-4.4-1.9-7.6-4.9-9.7c-3-2.1-6.9-2.8-11.9-2.1c-5,0.7-10.4,3-16.2,7c-4.3,3.1-8.6,6.9-12.8,11.3
			c-4.2,4.4-8,9.1-11.4,14.2c-3.3,5.1-6.2,10.2-8.5,15.4c-2.3,5.2-3.7,10.1-4.2,14.7c-0.5,4.6,0,8.7,1.7,12.4
			c1.6,3.6,4.6,6.4,8.9,8.4c3.9,1.8,8.2,2.4,12.9,1.8c4.8-0.6,9.7-1.9,14.8-4c5.1-2.1,10.4-4.7,15.7-7.9c5.3-3.2,10.5-6.6,15.5-10.3
			c2.5-1.8,5-3.7,7.3-5.6c-0.4,1.6-0.8,3.1-1,4.6c-0.7,5.1-0.3,9.5,1.2,13.4c1.6,3.9,4.4,6.7,8.6,8.5c4.2,1.8,8.7,2.3,13.6,1.6
			c4.9-0.7,9.9-2.3,15.2-4.6c5.2-2.3,10.4-5.2,15.6-8.8c5.2-3.6,10.2-7.2,14.9-11c1.4-1.1,2.8-2.2,4.1-3.4c-3.4,6.7-6,12.4-7.7,16.8
			c-0.9,2.7-0.8,5.2,0.3,7.6c1.1,2.4,2.8,4.1,4.9,5.2c2.2,1.1,4.6,1.4,7.5,1c2.8-0.4,5.4-2.2,7.8-5.1c3.9-4.8,8.2-10.2,13.1-16.4
			c4.9-6.2,9.8-12.1,14.8-17.9c5-5.8,9.8-11,14.4-15.6c4.6-4.6,8.6-7.7,12-9.1c-5.3,9.4-7.7,17-7.1,22.8c0.6,5.9,3.2,9.6,7.8,11.1
			c4.6,1.6,10.8,0.8,18.5-2.3c4-1.6,8.2-4,12.6-7.2c-2.1,5-3.5,9.7-4,14.1c-0.5,4.6,0,8.7,1.7,12.4c1.6,3.6,4.6,6.4,8.9,8.4
			c3.9,1.8,8.2,2.4,12.9,1.8c4.8-0.6,9.7-1.9,14.8-4c5.1-2.1,10.4-4.7,15.7-7.9c5.3-3.2,10.5-6.6,15.5-10.3c5-3.6,9.7-7.4,14-11.1
			c0.2-0.2,0.4-0.4,0.6-0.5c-2.1,4.9-4.2,9.8-6.2,14.8c-4.5,11.4-8.2,22.5-11,33.5c-0.9,3.6-0.3,6.2,1.9,8c2.2,1.8,4.7,2.8,7.6,3.1
			c2.9,0.3,5.7-0.1,8.4-1.3c2.7-1.2,4.2-3,4.5-5.3c0.3-2.5,1-6.4,2.2-11.6c1.2-5.2,2.9-11.3,5.2-18.3c2.3-7,5.1-14.7,8.4-23.1
			c3.3-8.4,7.1-17.1,11.6-26.2c4.5-9.1,9.5-18.2,15-27.5c5.6-9.3,11.7-18.2,18.4-26.9c3.6-0.1,7.6-0.1,12.1,0
			c4.5,0.1,9,0.4,13.4,0.8c4.4,0.4,8.5,0.8,12.4,1.3c3.9,0.5,6.9,1.1,9.1,1.7c2.5,0.7,4.8,0.5,6.7-0.8c1.9-1.3,3.3-2.9,4.2-4.9
			C629.9,74.9,630.2,72.9,629.8,70.9z M455.7,144.6c2.8-3.6,5.8-7.1,8.9-10.4c1.8-1.9,3.5-3.6,5.2-4.9c1.7-1.3,3-2.2,4-2.6
			c1-0.4,1.5-0.2,1.7,0.6c0.1,0.7-0.4,2.2-1.6,4.5c-3.4,6.7-7.4,11.7-12,15.2c-4.6,3.4-8.5,5.3-11.6,5.6
			C451.1,150.9,452.9,148.3,455.7,144.6z M211.7,144.6c2.8-3.6,5.8-7.1,8.9-10.4c1.8-1.9,3.5-3.6,5.2-4.9c1.7-1.3,3-2.2,4-2.6
			c1-0.4,1.5-0.2,1.7,0.6c0.1,0.7-0.4,2.2-1.6,4.5c-3.4,6.7-7.4,11.7-12,15.2c-4.6,3.4-8.5,5.3-11.6,5.6
			C207.1,150.9,208.8,148.3,211.7,144.6z"/>
		
			<linearGradient id="SVGID_00000047764984156400860470000012517944010123704497_" gradientUnits="userSpaceOnUse" x1="58.7547" y1="164.5801" x2="614.7741" y2="164.5801">
			<stop  offset="0" style="stop-color:#DD6328"/>
			<stop  offset="1" style="stop-color:#E68F31"/>
		</linearGradient>
		<path style="fill:url(#SVGID_00000047764984156400860470000012517944010123704497_);" d="M622.3,136.6c-1.1-0.8-2.5-0.9-4.1-0.1
			c-0.9,0.4-2.6,1.3-5.2,2.6c-2.6,1.3-5.6,2.8-9.1,4.6c-3.5,1.8-7.2,3.6-11.1,5.6c-3.9,1.9-7.7,3.8-11.1,5.7
			c-3.5,1.9-6.6,3.5-9.4,4.9c-2.8,1.4-4.6,2.5-5.7,3.2c-2.2-5.3-2.5-10.8-0.7-16.3c1.8-5.5,4.7-10.5,8.7-15.2c4-4.6,8.7-8.5,14-11.8
			c5.3-3.3,10.5-5.4,15.4-6.5c2.7-0.6,4.3-2.1,4.9-4.6c0.6-2.5,0.5-4.9-0.2-7.5c-0.7-2.5-2.1-4.6-4.1-6.4c-2-1.7-4.3-2.1-6.8-1.2
			c-7.6,3-14.9,7.1-21.8,12.5c-7,5.3-12.8,11.5-17.4,18.4c-4.6,6.9-7.6,14.4-8.9,22.4c-1.3,8-0.1,16.2,3.8,24.5
			c-4.6,3.1-8.9,6.3-13,9.6c-4.1,3.3-7.8,6.5-11.3,9.8c-6.2,6.2-10.4,12.1-12.6,17.6c-2.2,5.5-2.9,10.3-2.1,14.4
			c0.7,4.1,2.7,7.3,5.9,9.7c3.2,2.4,7.1,3.5,11.8,3.3c4.7-0.1,9.8-1.7,15.5-4.7c5.6-3,11.3-7.8,16.9-14.5c3.1-3.7,5.4-7.4,6.8-11.1
			c1.4-3.7,2.3-7.4,2.6-10.9c0.3-3.6,0.2-6.9-0.3-10.1c-0.5-3.2-1.2-6.1-1.9-8.8c3.1-2.2,7.1-4.6,11.8-7.2c4.8-2.6,9.6-5.2,14.6-7.8
			c5-2.6,9.6-5,13.9-7.1c4.3-2.2,7.6-3.9,9.8-5.2c1.5-0.9,2.5-2.2,2.9-3.8c0.4-1.6,0.4-3.2,0-4.6
			C624.2,138.5,623.4,137.4,622.3,136.6z M556.5,192c-0.5,2.4-1.5,4.9-2.9,7.5c-1.4,2.6-3.2,5.2-5.5,7.9c-2.2,2.7-4.8,5.1-7.6,7.4
			c-5.2,4.3-8.7,5.6-10.4,3.9c-1.7-1.7-0.3-5.9,4.3-12.6c2.8-4,6.4-7.9,10.8-11.6c4.4-3.7,8.1-6.6,11-8.7
			C557,187.5,557,189.6,556.5,192z"/>
	</g>
	<g>
		<path class="st4" d="M101.9,294.4c4.8-3.9,9.1-8.2,12.8-12.9c3.7-4.7,6.9-9.6,9.5-14.7c2.6-5.1,4.6-10.2,5.8-15.2
			c1.7-6.5,2.4-13.1,2.1-19.7c-0.3-6.6-1.8-12.6-4.3-17.9c-2.6-5.3-6.3-9.7-11.1-13.1c-4.9-3.4-10.9-5.2-18.3-5.4
			c-5.4-0.1-10.8,0.6-16.2,2c-5.4,1.4-10.6,3.5-15.5,6.1c-5,2.6-9.6,5.6-14.1,9c-4.4,3.4-8.4,7-12.1,10.7c-3.6,3.7-6.8,7.5-9.4,11.3
			c-2.7,3.8-4.7,7.3-6.2,10.6c-1,2.1-0.9,4.1,0.1,5.8c1,1.8,2.4,3.1,4.2,4c1.8,0.9,3.7,1.2,5.7,0.9c2-0.3,3.4-1.4,4.2-3.4
			c1.1-2.3,2.6-5,4.6-8.1c2-3,4.5-6.2,7.4-9.5c2.9-3.3,6.1-6.6,9.8-9.8c3.6-3.2,7.5-6.1,11.5-8.8c-0.4,1.7-1.3,4.7-2.7,8.9
			c-1.4,4.2-3.2,9.2-5.4,15c-2.2,5.8-4.8,12.2-7.8,19.2c-2.9,7-6.1,14.1-9.4,21.4c-3.4,7.3-6.9,14.5-10.6,21.5
			c-3.7,7-7.5,13.5-11.4,19.4c-3.8,5.9-7.7,11-11.6,15.3c-3.9,4.3-7.6,7.4-11.3,9.2c-1.3,0.6-2,1.6-2.1,2.8
			c-0.1,1.2,0.1,2.5,0.7,3.9c0.6,1.4,1.5,2.7,2.7,4c1.2,1.3,2.6,2.3,4.2,3c1.5,0.7,3.1,1,4.8,0.8c1.7-0.2,3.2-1,4.6-2.5
			c2.3-2.5,5-5.8,8-10.2c3-4.3,5.9-8.9,8.8-13.7s5.5-9.5,8-14.1c2.5-4.6,4.4-8.3,5.8-11.2c7.1,1.2,14,1.3,20.5,0.2
			c6.5-1,12.6-2.8,18.2-5.4C91.8,301.5,97.1,298.3,101.9,294.4z M51.5,300.7c1.1-1.9,2.6-4.8,4.5-8.8c1.9-3.9,4.1-8.4,6.4-13.3
			c2.3-5,4.8-10.3,7.4-15.9c2.6-5.6,5-11.1,7.4-16.4c2.3-5.3,4.5-10.2,6.4-14.6c1.9-4.5,3.4-8.1,4.5-10.9c0.4-1.2,0.6-2.3,0.4-3.3
			c-0.2-1-0.5-1.9-1.1-2.7c-0.6-0.8-1.3-1.5-2-2c-0.7-0.5-1.5-0.9-2.2-1.1c8.7-3.9,15.9-5.6,21.3-5.1c5.5,0.5,9.5,2.6,12.1,6.2
			c2.6,3.6,3.8,8.3,3.8,14.1c0,5.9-1.1,12.1-3.3,18.9c-2.2,6.7-5.4,13.4-9.5,20.1s-9.1,12.7-14.8,18.1c-5.7,5.3-12,9.6-19,12.8
			C66.7,299.9,59.3,301.2,51.5,300.7z"/>
		<path class="st4" d="M468.3,280.2c1.1,0.6,2.4,0.5,4.1-0.5c1.7-1,3.3-2.2,5-3.8c1.7-1.6,3.3-3.3,4.7-5c1.4-1.8,2.5-3.1,3.3-4.1
			c1.3-1.6,1.6-3.2,0.9-4.8c-0.7-1.6-1.8-2.9-3.3-3.9c-1.5-1-3.1-1.6-4.9-1.7c-1.8-0.1-3.2,0.5-4.2,1.9c-0.7,1.1-1.7,2.7-2.8,4.8
			c-1.1,2.1-2.1,4.3-2.9,6.6c-0.8,2.3-1.3,4.4-1.4,6.4C466.6,278.1,467.1,279.5,468.3,280.2z"/>
		<path class="st4" d="M605.5,295c-0.3-1-0.9-1.8-1.7-2.4c-0.8-0.6-1.8-0.6-3-0.1c-0.6,0.3-1.9,0.9-3.8,1.8c-1.9,0.9-4.1,2-6.6,3.3
			c-2.5,1.3-5.2,2.6-8,4c-2.8,1.4-5.5,2.7-8,4.1c-2.5,1.3-4.7,2.5-6.7,3.5c-2,1-3.3,1.8-4.1,2.3c-1.6-3.8-1.8-7.7-0.5-11.7
			c1.3-3.9,3.4-7.6,6.2-10.9c2.9-3.3,6.2-6.1,10.1-8.5c3.8-2.3,7.5-3.9,11-4.6c1.9-0.4,3.1-1.5,3.5-3.3c0.4-1.8,0.4-3.5-0.2-5.4
			c-0.5-1.8-1.5-3.3-3-4.6c-1.4-1.2-3.1-1.5-4.9-0.9c-5.4,2.1-10.7,5.1-15.7,9c-5,3.8-9.2,8.2-12.5,13.2c-3.3,5-5.4,10.3-6.4,16.1
			c-1,5.8-0.1,11.6,2.7,17.6c-3.3,2.2-6.4,4.5-9.4,6.9c-2.9,2.3-5.6,4.7-8.1,7c-1.9,1.9-3.6,3.8-5,5.6c0.1-2.3,0.3-4.8,0.6-7.4
			c1.1-8.3,3.5-17.6,7.4-27.9c3.8-10.3,9.2-21.3,16.2-33c7-11.7,15.8-23.5,26.5-35.3c1.6-1.7,2.2-3.5,1.9-5.4
			c-0.3-1.9-1.1-3.4-2.3-4.7s-2.7-2.1-4.3-2.3c-1.7-0.3-3,0.3-4.1,1.7c-1.3,1.5-3,3.8-5.3,6.9c-2.2,3.1-4.7,6.5-7.5,10.3
			c-2.8,3.8-5.6,7.8-8.6,11.9c-2.9,4.2-5.7,8.1-8.3,11.8s-4.9,6.9-6.9,9.8c-2,2.8-3.4,4.8-4.2,5.8c-0.7-1.4-1.9-2.6-3.4-3.8
			c-1.5-1.1-3.1-1.9-5-2.4s-3.8-0.6-5.8-0.3c-2.1,0.3-4.1,1-6.2,2.3c-3.3,2-6.7,4.7-10.2,8.2c-3.5,3.4-6.8,7.2-9.9,11.4
			c-1.9,2.6-3.7,5.3-5.4,8c-1.2,1.1-2.3,2.2-3.5,3.3c-3.6,3.1-7,5.9-10.3,8.4c-3.3,2.5-6.3,4.4-9,5.8c-2.7,1.4-4.8,2-6.2,1.8
			c-1-0.1-1.5-0.8-1.7-2.2c-0.2-1.3,0.1-3.1,0.7-5.3c0.6-2.2,1.8-4.8,3.4-7.8c1.7-3,3.9-6.4,6.6-10c1.2-1.5,1.4-3,0.8-4.6
			c-0.6-1.5-1.7-2.8-3.1-3.8c-1.4-1-3.1-1.5-4.9-1.7c-1.8-0.2-3.3,0.5-4.3,1.8c-1.9,2.4-3.6,4.9-5.2,7.5c-0.1,0-0.1,0.1-0.2,0.1
			c-1.6,1.5-3.8,3.3-6.5,5.4c-2.7,2.1-5.5,4-8.3,5.8c-2.8,1.8-5.5,3.2-8,4.3c-2.5,1.1-4.4,1.4-5.7,0.9c-0.9-0.3-1.2-1.2-1-2.7
			c0.2-1.5,0.6-3.3,1.2-5.5c0.6-2.2,1.4-4.5,2.3-7c0.9-2.5,1.6-4.9,2.2-7.3c0.5-2.4,0.8-4.6,0.7-6.5c-0.1-1.9-0.7-3.4-1.8-4.3
			c-2.1-1.8-4.6-2.3-7.4-1.4c-2.8,0.9-5.7,2.5-8.7,4.8c-3,2.3-6,5.1-9,8.4c-2.9,3.3-5.7,6.4-8.2,9.5c-2.5,3.1-4.7,5.8-6.5,8.2
			c-1.8,2.3-3,3.8-3.7,4.3c-0.5,0.4-0.6,0-0.3-1.3c0.3-1.3,1-3,1.9-5.3c1-2.2,2.1-4.8,3.4-7.8c1.3-2.9,2.7-5.8,4.2-8.7
			c1.4-2.7,2.6-5.3,3.6-7.8c1-2.6,1.7-4.9,2.2-7.1c0.4-2.2,0.5-4.1,0.2-5.8c-0.3-1.7-1-3-2.2-3.8c-2.6-1.9-5.4-2.3-8.4-1.3
			c-3,1.1-6.2,3.1-9.5,6.1c-3.3,3-6.7,6.6-10.2,11c-3.5,4.3-7,8.8-10.5,13.4c-3.5,4.6-6.9,9-10.3,13.2c-3.4,4.2-6.6,7.7-9.6,10.5
			c0.4-1.1,1.3-2.8,2.5-5.2c1.2-2.4,2.6-4.9,4.2-7.6c1.5-2.7,3.1-5.2,4.7-7.7c1.6-2.5,3-4.3,4.3-5.6c1.1-1.1,1.4-2.4,1-4.1
			c-0.4-1.7-1.3-3.1-2.5-4.2c-1.2-1.2-2.7-1.9-4.3-2.3c-1.7-0.4-3.2,0.2-4.6,1.7c-1.6,1.5-3.4,3.7-5.4,6.6c-1.2,1.7-2.3,3.5-3.4,5.5
			c-0.3,0.2-0.5,0.4-0.8,0.6c-7.9,7.5-14.3,13-19.3,16.6c-5,3.6-8.3,5-9.9,4.2c-1.6-0.9-1.5-4,0.4-9.6c1.9-5.5,5.7-13.7,11.6-24.5
			c1-1.7,1.3-3.3,0.9-4.8c-0.4-1.5-1.1-2.6-2.2-3.4c-1.1-0.8-2.5-1.2-4.1-1.3c-1.6-0.1-3.1,0.5-4.5,1.7c-0.9,0.6-1.8,1.5-3,2.7
			c-1.1,1.2-2.2,2.4-3.4,3.7c-1.1,1.3-2.2,2.5-3.3,3.7c-1.1,1.2-2,2.1-2.7,2.9c-2.6-3.7-5.7-6.1-9.4-7c-3.7-1-7.6-0.2-11.9,2.2
			c-3.6,2-7.1,4.5-10.5,7.5c-1.4,1.2-2.6,2.5-3.9,3.8c-0.6,0-1.2,0.3-1.8,0.8c-2,2-4.1,3.8-6.2,5.4c-2.1,1.5-4.1,2.7-5.8,3.6
			c-1.7,0.9-3.1,1.4-4.3,1.5c-1.2,0.2-1.8-0.1-1.9-0.9c-0.3-1.9,0.1-4.2,1.4-6.9c1.2-2.7,2.4-5.3,3.5-8c1.1-2.7,1.8-5.2,2-7.5
			c0.2-2.3-0.9-4.2-3.2-5.4c-2.6-1.5-5.5-1.6-8.8-0.4c-3.3,1.2-6.7,3.2-10.2,6c-3.5,2.8-7.1,6.1-10.7,9.9c-3.6,3.8-7,7.7-10.2,11.6
			c-3.1,3.9-6,7.5-8.6,10.9c-2.6,3.4-4.7,5.9-6.2,7.6c0.3-0.6,1-1.9,2.2-3.7c1.1-1.8,2.4-3.9,3.9-6.4c1.5-2.5,3.2-5.1,5-7.8
			c1.9-2.8,3.7-5.4,5.6-8c1.9-2.6,3.7-4.8,5.4-6.9c1.8-2,3.3-3.6,4.7-4.6c1.1-0.9,1.4-2.1,1.1-3.7c-0.3-1.6-1.1-3.1-2.3-4.4
			c-1.2-1.3-2.7-2.3-4.3-2.8c-1.7-0.5-3.2-0.2-4.6,1.1c-1.5,1.3-3.7,4-6.5,8.1c-2.8,4.1-5.8,8.7-9,13.9c0,0.1-0.1,0.1-0.1,0.2
			c-5.2,2.8-10.2,5.7-14.9,8.7c-4.9,3.1-8.7,5.7-11.6,7.6c1.6-3.5,3.3-7.4,5-11.5c1.8-4.2,3.4-8.2,5-12c1.5-3.8,2.9-7.2,4.1-10.2
			c1.2-2.9,1.9-5,2.2-6.2c0.5-1.7,0.3-3.3-0.8-4.8c-1.1-1.5-2.4-2.6-4.1-3.4c-1.7-0.7-3.4-1-5.2-0.8c-1.8,0.2-3.2,1.1-4.2,2.7
			c-2.2,3.9-5,8.5-8.3,13.7c-3.3,5.2-6.8,10.3-10.6,15.3c-3.7,5-7.5,9.5-11.2,13.5c-3.7,4-7.1,6.6-10.1,7.9
			c-1.5,0.6-2.2,0.3-2.2-1.1c0.1-1.4,0.6-3.3,1.6-5.8c1-2.5,2.4-5.4,4.1-8.6c1.7-3.2,3.4-6.2,5-9.1c1.6-2.9,3.2-5.4,4.6-7.6
			c1.4-2.2,2.3-3.5,2.9-3.9c1.1-1,1.2-2.2,0.5-3.7c-0.7-1.5-1.9-2.8-3.4-3.8c-1.5-1.1-3.1-1.7-4.9-2c-1.8-0.3-3.2,0.3-4.2,1.8
			c-1.3,1.8-3.1,4.7-5.4,8.6c-2.3,3.9-4.6,8-6.9,12.5c-2.2,4.4-4.2,8.7-5.8,12.9c-1.7,4.2-2.4,7.4-2.3,9.8c0,2.3,0.6,4.4,1.7,6.2
			c1.1,1.8,2.6,3.2,4.5,4.2c1.9,1,4,1.5,6.5,1.4c2.5-0.1,5-0.8,7.7-2.3c2.5-1.3,4.8-2.9,7-4.9c2.2-2,4.3-4.1,6.4-6.3
			c2.1-2.2,4.1-4.6,6-7c1.9-2.5,3.8-4.8,5.8-7c-0.9,1.8-1.8,3.8-2.7,6c-1,2.2-2,4.4-3.1,6.6c-1.1,2.2-2.2,4.3-3.3,6.3
			c-1.1,2-2.1,3.8-3,5.3c-0.5,0.5-2.6,1.9-6.2,4.2c-3.6,2.2-8,5-13,8.4c-5.1,3.4-10.4,7.2-15.9,11.6c-5.5,4.4-10.5,9-14.9,13.7
			c-3.4,3.8-5.8,7.5-7.1,11.1c-1.3,3.6-1.8,6.8-1.4,9.8c0.4,2.9,1.4,5.4,3.2,7.3c1.8,1.9,4,3.2,6.7,3.8c2.7,0.6,5.8,0.4,9.2-0.6
			c3.4-1,7-3.1,10.7-6.2c4.3-3.6,8.2-7.6,11.8-11.9c3.6-4.3,7.1-9,10.4-13.9c3.3-5,6.5-10.2,9.7-15.7c3.1-5.5,6.4-11.4,9.8-17.6
			c0.3-0.3,1.3-1.1,3-2.2c1.7-1.2,3.8-2.6,6.2-4.2c2.5-1.6,5.1-3.4,8.1-5.3c2.9-1.9,5.8-3.8,8.6-5.6c0.1,0,0.1-0.1,0.2-0.1
			c-2.7,5.2-4.7,9.5-5.9,12.9c-0.6,1.9-0.6,3.7,0.2,5.4c0.8,1.7,2,3,3.5,3.8c1.5,0.8,3.3,1,5.4,0.7c2-0.3,3.9-1.5,5.6-3.7
			c2.8-3.4,5.9-7.3,9.4-11.8c3.5-4.4,7.1-8.7,10.6-12.9c3.6-4.2,7-7.9,10.3-11.2c3.3-3.3,6.2-5.5,8.6-6.6
			c-3.8,6.7-5.5,12.2-5.1,16.4c0.4,4.2,2.3,6.9,5.6,8c3.3,1.1,7.7,0.6,13.3-1.7c1.8-0.7,3.7-1.7,5.6-2.8c-0.2,0.3-0.4,0.6-0.5,0.9
			c-1.9,3.5-3.1,6.8-3.7,9.8c-0.6,3-0.5,5.7,0.3,7.9c0.8,2.2,2.5,3.7,5,4.5c3.8,1.2,7.9,0.6,12.1-1.6c4.2-2.2,8.4-5.2,12.5-9
			c4.1-3.8,8.1-7.8,11.9-12c3.8-4.2,7.2-7.8,10.2-10.6c-3.4,8.6-4.9,15.1-4.5,19.3c0.4,4.3,2.1,7.1,5,8.6c4.6,2.3,10.2,1.6,16.8-2.3
			c3.9-2.3,8.4-6,13.5-11.1c-0.9,2.6-1.7,5.2-2.2,7.5c-0.7,3.4-1,6.3-0.7,8.8c0.3,2.5,1.3,4.1,3,4.9c2.6,1.2,5.4,0.9,8.4-0.8
			c3-1.7,6.1-4.3,9.2-7.7c3.1-3.2,6.3-6.9,9.6-11.2c3.3-4.3,6.6-8.6,9.8-13c3.3-4.4,6.4-8.6,9.6-12.5c3.1-3.9,6-7.1,8.7-9.6
			c-1,1.8-2.1,4.1-3.5,6.8c-1.4,2.7-2.8,5.7-4.2,8.8c-1.4,3.1-2.7,6.3-3.9,9.6c-1.2,3.3-2,6.3-2.5,9.2c-0.5,2.9-0.5,5.4,0,7.6
			c0.5,2.2,1.7,3.8,3.6,4.7c2.2,1.2,4.6,1.2,7.2,0c2.6-1.2,5.1-3,7.8-5.4c2.6-2.4,5.2-5.2,7.9-8.5c2.7-3.3,5.2-6.4,7.7-9.4
			c2.5-3,4.7-5.6,6.8-8c2.1-2.3,3.9-3.8,5.4-4.5c0.2,0.1,0.1,0.8-0.4,2.1c-0.5,1.3-1.1,2.9-1.8,4.9c-0.7,2-1.4,4.1-2.1,6.5
			c-0.7,2.3-1.2,4.7-1.4,7c-0.3,2.3-0.2,4.4,0.2,6.4c0.4,2,1.3,3.5,2.8,4.6c2.3,1.7,5.2,2.2,8.7,1.5c3.5-0.7,7.2-2.2,11.2-4.4
			c4-2.2,8.1-5,12.3-8.2c0.9-0.7,1.7-1.3,2.6-2c-0.6,1.7-1,3.3-1.4,5c-0.9,4.2-0.9,7.9,0,11.2c0.9,3.3,2.8,5.5,5.9,6.6
			c3,1.2,6.1,1.4,9.4,0.6c3.2-0.8,6.5-2.1,9.8-4c3.3-1.9,6.5-4.1,9.6-6.8c0.5-0.4,0.9-0.8,1.4-1.2c-1,3.5-1.3,6.7-0.9,9.5
			c0.4,3.1,1.9,5.3,4.5,6.7c2.1,1.2,4.5,1.4,7,0.6c2.6-0.7,5.2-2.1,8-4.1c2.8-2,5.6-4.4,8.6-7.4c2.9-3,5.8-6.1,8.5-9.4
			c2.7-3.3,5.3-6.5,7.8-9.8c2.5-3.3,4.8-6.2,6.8-8.9c-2.2,5.8-4.1,11.6-5.7,17.6c-1.5,6-2.7,11.5-3.5,16.5c-0.8,5.1-1.3,9.4-1.4,13
			c-0.2,3.6-0.1,6,0.2,7.2c0.4,1.6,1.5,2.6,3.1,3c1.6,0.4,3.2,0.3,4.8-0.1c0.7,2.4,1.9,4.4,4,5.9c2.3,1.7,5.1,2.5,8.5,2.4
			c3.4-0.1,7.1-1.2,11.1-3.4c4.1-2.1,8.1-5.6,12.1-10.4c2.2-2.7,3.9-5.3,4.9-8c1-2.7,1.6-5.3,1.8-7.8c0.2-2.6,0.1-5-0.2-7.3
			c-0.4-2.3-0.8-4.4-1.4-6.3c2.2-1.6,5.1-3.3,8.5-5.2c3.4-1.9,6.9-3.7,10.5-5.6c3.6-1.9,6.9-3.6,10-5.1c3.1-1.5,5.4-2.8,7-3.8
			c1.1-0.6,1.8-1.5,2.1-2.7C605.8,297.1,605.8,296,605.5,295z M126.5,350.6c-2.2,3.1-4.6,6.2-7.1,9.3c-2.5,3.1-5.1,6.1-7.8,9.1
			c-2.7,3-5.3,5.7-8,8.2c-3.5,3.2-6.3,5.1-8.4,5.6c-2.1,0.5-3.2,0.1-3.5-1.4c-0.3-1.4,0.5-3.7,2.2-6.7c1.8-3,4.8-6.5,9-10.3
			c1.9-1.6,4.1-3.4,6.6-5.4c2.5-2,5-4,7.6-6c2.6-2,5.2-4,7.9-5.9c2.7-1.9,5.2-3.7,7.5-5.3C130.7,344.6,128.7,347.5,126.5,350.6z
			 M285.9,293.2c-0.5,1-1.7,2.4-3.4,4.3c-1.7,1.9-3.7,3.9-5.8,6.1c-2.2,2.1-4.4,4.2-6.7,6.2c-2.3,2-4.3,3.7-6.2,5
			c-2.7,1.8-4.6,2.9-5.8,3.3c-1.2,0.4-1.9,0.3-2.1-0.3c-0.2-0.6,0.1-1.5,0.6-2.8c0.6-1.3,1.3-2.6,2.2-4.1c0.9-1.4,1.9-2.9,3-4.3
			c1.1-1.4,2-2.6,2.8-3.4c3.5-3.9,6.7-6.8,9.5-8.6c2.8-1.8,5.2-2.9,7-3.4c1.9-0.4,3.2-0.4,4.1,0.2
			C286.1,291.8,286.3,292.5,285.9,293.2z M525,288.1c-0.5,1-1.5,2.5-3,4.6c-1.4,2.1-3.1,4.4-5.1,7c-2,2.6-4.1,5.2-6.4,8
			c-2.3,2.8-4.5,5.4-6.6,7.8c-2.1,2.4-4.1,4.4-5.8,6.1c-1.8,1.7-3.2,2.7-4.2,3.1c-1.4,0.5-1.9,0-1.7-1.7c0.3-1.7,1.1-3.9,2.5-6.8
			c1.4-2.9,3.2-6.1,5.5-9.7c2.3-3.6,4.7-6.9,7.2-10c2.5-3.1,5-5.7,7.6-7.9c2.6-2.2,4.8-3.4,6.9-3.6c1.5-0.2,2.5,0.1,3.1,0.9
			C525.5,286.6,525.6,287.3,525,288.1z M556.6,332.4c-0.4,1.7-1.1,3.5-2.1,5.4c-1,1.9-2.3,3.8-3.9,5.7s-3.4,3.7-5.4,5.3
			c-3.7,3.1-6.2,4-7.4,2.8c-1.2-1.2-0.2-4.2,3.1-9c2-2.9,4.6-5.6,7.8-8.3c3.1-2.7,5.8-4.7,7.9-6.2C557,329.2,557,330.7,556.6,332.4z
			"/>
	</g>
</g>
</svg>
