<?xml version="1.0" encoding="utf-8"?>
<!-- Generator: Adobe Illustrator 27.0.1, SVG Export Plug-In . SVG Version: 6.00 Build 0)  -->
<svg version="1.1" id="Laag_1" xmlns="http://www.w3.org/2000/svg" xmlns:xlink="http://www.w3.org/1999/xlink" x="0px" y="0px"
	 viewBox="0 0 35 35" style="enable-background:new 0 0 35 35;" xml:space="preserve">
<style type="text/css">
	.st0{fill:#DD6329;}
	.st1{fill:#FFFFFF;}
</style>
<g>
	<circle class="st0" cx="17.5" cy="17.5" r="17.5"/>
	<path class="st1" d="M13.4,7.8c-1.1,0.1-1.8,0.2-2.4,0.5c-0.7,0.2-1.2,0.6-1.7,1.1c-0.6,0.6-0.9,1.1-1.1,1.7
		c-0.2,0.7-0.4,1.3-0.5,2.4s-0.1,1.4-0.1,4.1s0,3,0.1,4.1S8,23.4,8.2,24c0.2,0.7,0.6,1.2,1.1,1.7c0.6,0.6,1.1,0.9,1.7,1.1
		c0.7,0.2,1.3,0.4,2.4,0.5c1.1,0.1,1.4,0.1,4.1,0.1s3,0,4.1-0.1c1.1-0.1,1.8-0.2,2.4-0.5c0.7-0.2,1.2-0.6,1.7-1.1
		c0.6-0.6,0.9-1.1,1.1-1.7c0.2-0.7,0.4-1.3,0.5-2.4s0.1-1.4,0.1-4.1s0-3-0.1-4.1s-0.2-1.8-0.5-2.4c-0.2-0.7-0.6-1.2-1.1-1.7
		c-0.6-0.6-1.1-0.9-1.7-1.1c-0.7-0.2-1.3-0.4-2.4-0.5s-1.4-0.1-4.1-0.1C14.8,7.7,14.5,7.7,13.4,7.8 M13.5,25.5
		c-1-0.1-1.5-0.2-1.8-0.3c-0.5-0.2-0.8-0.4-1.1-0.7c-0.3-0.3-0.6-0.7-0.7-1.1c-0.2-0.3-0.3-0.9-0.3-1.8c-0.1-1.1-0.1-1.3-0.1-4
		c0-2.6,0-2.9,0.1-4c0.1-1,0.2-1.5,0.3-1.8c0.2-0.5,0.4-0.8,0.7-1.1c0.3-0.3,0.7-0.6,1.1-0.7c0.3-0.2,0.9-0.3,1.8-0.3
		c1.1-0.1,1.3-0.1,4-0.1c2.6,0,2.9,0,4,0.1c1,0.1,1.5,0.2,1.8,0.3c0.5,0.2,0.8,0.4,1.1,0.7c0.3,0.3,0.6,0.7,0.7,1.1
		c0.2,0.3,0.3,0.9,0.3,1.8c0.1,1.1,0.1,1.3,0.1,4c0,2.6,0,2.9-0.1,4c-0.1,1-0.2,1.5-0.3,1.8c-0.2,0.5-0.4,0.8-0.7,1.1
		c-0.3,0.3-0.7,0.6-1.1,0.7c-0.3,0.2-0.9,0.3-1.8,0.3c-1.1,0.1-1.3,0.1-4,0.1C14.9,25.6,14.6,25.5,13.5,25.5 M21.5,12.3
		c0,0.7,0.5,1.1,1.1,1.1c0.7,0,1.1-0.5,1.1-1.1c0-0.7-0.5-1.1-1.1-1.1C22.1,11.1,21.5,11.6,21.5,12.3 M12.5,17.5c0,2.8,2.3,5,5,5
		c2.8,0,5-2.3,5-5s-2.3-5-5-5C14.7,12.5,12.5,14.7,12.5,17.5 M14.2,17.5c0-1.8,1.5-3.3,3.3-3.3s3.3,1.5,3.3,3.3s-1.5,3.3-3.3,3.3
		S14.2,19.3,14.2,17.5"/>
</g>
</svg>
