<?xml version="1.0" encoding="utf-8"?>
<!-- Generator: Adobe Illustrator 27.0.1, SVG Export Plug-In . SVG Version: 6.00 Build 0)  -->
<svg version="1.1" id="Laag_1" xmlns="http://www.w3.org/2000/svg" xmlns:xlink="http://www.w3.org/1999/xlink" x="0px" y="0px"
	 viewBox="0 0 35 35" style="enable-background:new 0 0 35 35;" xml:space="preserve">
<style type="text/css">
	.st0{fill:#DD6329;}
	.st1{fill:#FFFFFF;}
</style>
<g>
	<circle class="st0" cx="17.5" cy="17.5" r="17.5"/>
	<path class="st1" d="M14.3,24.5c6.5,0,10.1-5.4,10.1-10.1c0-0.2,0-0.3,0-0.5c0.7-0.5,1.3-1.1,1.8-1.9c-0.7,0.3-1.3,0.5-2,0.6
		c0.7-0.4,1.3-1.1,1.5-2c-0.7,0.4-1.5,0.7-2.3,0.9c-0.7-0.7-1.6-1.1-2.6-1.1c-2,0-3.6,1.6-3.6,3.6c0,0.2,0,0.6,0.1,0.8
		c-2.8-0.2-5.5-1.5-7.3-3.7c-0.9,1.6-0.5,3.7,1.1,4.7c-0.6,0-1.1-0.2-1.6-0.4l0,0c0,1.7,1.2,3.2,2.8,3.5c-0.5,0.2-1.1,0.2-1.6,0.1
		c0.5,1.5,1.8,2.4,3.3,2.4c-1.2,1-2.8,1.5-4.4,1.5C9.4,23,9,23,8.8,23C10.5,23.9,12.4,24.5,14.3,24.5"/>
</g>
</svg>
